<?xml version="1.0" encoding="utf-8"?>
<!-- Generator: Adobe Illustrator 26.3.1, SVG Export Plug-In . SVG Version: 6.00 Build 0)  -->
<svg version="1.1" id="Layer_1" xmlns="http://www.w3.org/2000/svg" xmlns:xlink="http://www.w3.org/1999/xlink" x="0px" y="0px"
	 viewBox="0 0 2071.2 577.7" style="enable-background:new 0 0 2071.2 577.7;" xml:space="preserve">
<style type="text/css">
	.st0{fill:#034EA1;}
	.st1{fill:#FFB71B;}
	.st2{fill:none;stroke:#A5A7AA;stroke-width:4.7503;stroke-miterlimit:10;}
	.st3{fill:#670E36;}
	.st4{fill:#95BFE5;}
	.st5{fill:#FFFFFF;}
	.st6{fill:#FFE505;}
	.st7{clip-path:url(#SVGID_00000042717222784200296510000006892668934153573540_);fill:#5F0041;}
	.st8{clip-path:url(#SVGID_00000083066320071018886100000000808761629764882820_);fill:#FFFFFF;}
	.st9{clip-path:url(#SVGID_00000079444823991865666150000003058531256154457748_);fill:#FFFFFF;}
	.st10{clip-path:url(#SVGID_00000009556341932917810820000005436095611549614727_);fill:#FFFFFF;}
	.st11{clip-path:url(#SVGID_00000052786187054238136450000003006599372557952176_);fill:#FFFFFF;}
	.st12{clip-path:url(#SVGID_00000167390046785045216180000015684126149745819778_);fill:#FFFFFF;}
	.st13{clip-path:url(#SVGID_00000034782371109099468320000011829556847326906284_);fill:#FFFFFF;}
	.st14{clip-path:url(#SVGID_00000033346356175602845300000006395591985765666963_);fill:#FFFFFF;}
	.st15{clip-path:url(#SVGID_00000018234905898062429350000015134808941452977579_);fill:#FFFFFF;}
	.st16{clip-path:url(#SVGID_00000182515647909642125100000017149569138693276560_);fill:#FFFFFF;}
	.st17{clip-path:url(#SVGID_00000092428690739568525220000003255385751520297638_);fill:#FFFFFF;}
	.st18{clip-path:url(#SVGID_00000034082213077441291390000014030371229332062081_);fill:#FFFFFF;}
	.st19{clip-path:url(#SVGID_00000000203249705200351060000003410738517033082773_);fill:#FFFFFF;}
	.st20{clip-path:url(#SVGID_00000173141928491351650440000005778690615667337919_);fill:#FFFFFF;}
	.st21{clip-path:url(#SVGID_00000072279603222554881290000006555133072528353209_);fill:#FFFFFF;}
	.st22{clip-path:url(#SVGID_00000136409624840466963620000008415055942409789325_);fill:#FFFFFF;}
	.st23{clip-path:url(#SVGID_00000099636252000269942060000015481926393521517223_);fill:#FFFFFF;}
	.st24{clip-path:url(#SVGID_00000057848895138609240220000007584120521178299566_);fill:#FFFFFF;}
	.st25{clip-path:url(#SVGID_00000134958497658633904810000007749185012651005864_);fill:#FFFFFF;}
	.st26{clip-path:url(#SVGID_00000065044666991730864460000007603333232637621920_);fill:#FFFFFF;}
	.st27{clip-path:url(#SVGID_00000167359344946314633660000006449180945613900174_);fill:#FFFFFF;}
	.st28{clip-path:url(#SVGID_00000163785435297321940980000006133008748518195389_);fill:#FFFFFF;}
	.st29{clip-path:url(#SVGID_00000098187531029663730270000018411133482162145152_);fill:#FFFFFF;}
	.st30{clip-path:url(#SVGID_00000134936220927570563460000009971217195080484016_);fill:#FFFFFF;}
	.st31{clip-path:url(#SVGID_00000155834483056807314570000017968185281836732336_);fill:#FFFFFF;}
	.st32{clip-path:url(#SVGID_00000115506449928372770720000006777314308839139746_);fill:#FFFFFF;}
	.st33{clip-path:url(#SVGID_00000080183925238218812190000001827064915989958820_);fill:#FFFFFF;}
	.st34{clip-path:url(#SVGID_00000065051085761788762350000016962827389964045722_);fill:#FFFFFF;}
	.st35{clip-path:url(#SVGID_00000083075186405452320680000001710795462278252701_);fill:#FFFFFF;}
	.st36{clip-path:url(#SVGID_00000116212492146952418070000004801544251987409322_);fill:#FFFFFF;}
	.st37{clip-path:url(#SVGID_00000010298777625380162050000008629973558765239214_);fill:#FFFFFF;}
	.st38{clip-path:url(#SVGID_00000137825616007107130450000008932098728025147018_);fill:#FFFFFF;}
	.st39{clip-path:url(#SVGID_00000000943406102973797630000004459024485319529098_);fill:#FFFFFF;}
	.st40{clip-path:url(#SVGID_00000176747443469647354170000016341767030248352424_);fill:#FFFFFF;}
	.st41{clip-path:url(#SVGID_00000002345759121405188430000016090626614226204856_);fill:#FFFFFF;}
	.st42{clip-path:url(#SVGID_00000083062715522243395730000014338129517132720297_);fill:#FFFFFF;}
</style>
<g>
	<path class="st0" d="M269.8,223.6c9.4-37.5-13.2-84.9-111.2-87.4c-60.2-1.6-106.3,6.6-106.3,6.6L13.8,417.7c0,0,45.1,6.9,96.1,6.9
		c65.6,0,136.6-10.1,156.9-75.2c7.3-23.3,3.6-48.4-14.8-64.8c-12.6-11.2-26.4-14.5-26.4-14.5S261.1,258.2,269.8,223.6 M131.9,355.2
		c-7.3,0-18.4-0.6-18.4-0.6l7.9-56.5c0,0,9.8-1,19.4-1c25.1,0,40.5,9.3,41.2,25.9C182,343.1,164.7,355.2,131.9,355.2 M180.5,234.4
		c-9.5,9.5-26.7,10.5-35.3,10.5c-6.9,0-16.2-0.6-16.2-0.6l7.4-52.8c0,0,9.8-0.4,16-0.4c22.5,0,34.2,8.6,35.9,22.2
		C189.1,220.9,185.4,229.4,180.5,234.4"/>
	<path class="st0" d="M496.7,144c-12,40.3-58.2,67.2-105.5,67.8l-10.7,76.3c2.7,0.1,5.8,0.3,9,0.3h1.6
		C486,287.1,570.1,226,581.8,144L496.7,144L496.7,144z"/>
	<polygon class="st0" points="315.5,144 277.4,415.6 357.4,415.6 395.5,144 	"/>
	<path class="st0" d="M515.7,254.3c-22.9,16.1-50,27.9-79.5,34.1c3.8,4.6,9.5,12.8,12.3,19.9c6,15.6,6.8,24.9,3.4,51.2l-7.7,55.7
		h86.4c2.8-19.2,7.7-58.9,9-71.6c1.8-17.7,3.3-38.1-7.6-61.7C528,273.4,520,259.5,515.7,254.3"/>
	<path class="st1" d="M821.4,205.6c6.8-45-19.9-79.3-109-82.2c-64.3-2.1-114.3,18.3-125.4,73.5c-6.8,33.8,7.4,58.4,37,72.1
		c-33.7,11.6-57.6,34.4-65,73.5c-11.6,60.9,37.2,94.9,116.2,94.9c79.6,0,129.6-31.2,137.3-84.9c5.1-35.8-7.7-67.1-48.8-82.8
		C796.3,257.1,816.9,235,821.4,205.6 M683,207.9c2-17.8,10.5-31.7,24.8-31.7c13.4,0,18.9,14.2,16.9,32c-2,17.8-11.3,32-24.4,32
		C687.9,240.2,681,225.7,683,207.9 M709.8,336c-2.3,22.3-13.4,40.2-29,40.2c-14.8,0-22.9-18.3-20.5-40.6
		c2.3-22.3,12.4-39.8,29.4-39.8C705.6,295.9,712.2,313.7,709.8,336"/>
	<path class="st0" d="M826,143.4c30.9,34.4,49.5,79,49.5,127.8c0,109-93,197.3-207.7,197.3c-48.1,0-92.3-15.5-127.5-41.6
		c38.1,42.5,94.8,69.5,158.2,69.5c114.8,0,207.8-88.3,207.8-197.3C906.3,235.8,874.8,179.5,826,143.4"/>
	<path class="st1" d="M760,75.5L725.3,42l-39.6,31.7l-39.1-19.2l-10.7,56.4c19.7-5.9,40.7-9.1,62.6-9.1c42.2,0,81.4,12,114.2,32.5
		l9.7-77.1L760,75.5z"/>
</g>
<line class="st2" x1="1031.5" y1="495.6" x2="1031.5" y2="82.1"/>
<g>
	<g>
		<path class="st3" d="M1173.1,35.8v383.1c0,58.8,69.3,78.1,120,92.1c10.1,2.8,19.7,5.5,28,8.2c0.1,0,7.8,2.7,14.4,7
			c5.9,3.9,12,10.5,12,10.5l4.8,5.2l4.8-5.2c0.1-0.1,6.1-6.6,12-10.5c6.5-4.3,14.3-7,14.3-7c8.3-2.7,17.9-5.4,28-8.2
			c50.6-14.1,120-33.3,120-92.1V35.8H1173.1z"/>
		<path class="st4" d="M1518.3,418.9c0,48.9-61.2,65.9-110.4,79.6c-10.3,2.9-20,5.6-28.6,8.4c-0.4,0.1-9.4,3.2-17.4,8.4
			c-3.6,2.3-7,5.3-9.7,7.8c-2.6-2.5-6.1-5.5-9.7-7.8c-8-5.2-17-8.3-17.4-8.5c-8.6-2.8-18.3-5.5-28.6-8.4
			c-49.2-13.7-110.4-30.7-110.4-79.6v-370h332.2V418.9z"/>
		<polygon class="st5" points="1227.3,195.2 1237.9,189.6 1248.5,195.2 1246.4,183.2 1255,174.8 1243.2,173 1237.9,162.1 
			1232.6,173 1220.7,174.8 1229.3,183.2 		"/>
		<path class="st3" d="M1352.3,67.5c-3.3,0.2-6.6,0.3-10.4,0.3c-4.3,0-8.5-0.1-13.8-0.3c-1.3,0.6-1.3,2.9-0.4,3.8l3.6,0.8
			c2.7,0.7,3.6,1.1,3.6,1.9c0,0.7-0.3,1.9-1.1,4c-1.3,3.8-6.2,16.4-9,23.4l-4.3,10.5c-1.3,3.4-3.1,7.2-4,9.1l-3.7-9.4l-9.9-25.2
			c-2.7-6.7-4.5-11.4-4.5-12.3c0-1,0.8-1.7,2.8-2.1l3.4-0.7c0.7-1,0.8-3.1-0.1-3.8c-6.8,0.2-11.7,0.3-16.8,0.3
			c-5.8,0-9.5-0.2-15.2-0.3c-1,0.6-1.3,2.6-0.5,3.8l4.5,1.1c3.6,0.9,4.1,1.1,8.4,11.9l18.2,45.6c1.6,3.8,3.5,9.8,4.7,12.8
			c0.7,0.6,1.7,0.9,3,0.9c1.7,0,3-0.3,3.9-0.9c2.6-6.3,5.5-15.1,11.2-28.7l8.2-19.4c3.8-9.1,6.6-15.4,9.1-19.1
			c1.5-2.4,3.4-3.1,6.5-3.7l2.9-0.6C1353.3,70.6,1353.2,68,1352.3,67.5"/>
		<path class="st3" d="M1401.8,67.8h-25.1c-5.4,0-11-0.1-15.8-0.3c-1.2,0.4-1.2,3.3-0.2,3.9l2.2,0.3c5,0.8,5.7,1.8,5.7,12.2v41.7
			c0,10.4-0.7,11.2-5.7,12l-3.7,0.6c-0.9,0.7-0.9,3.2,0,3.9c6.7-0.2,12.3-0.3,17.5-0.3c5.4,0,10.9,0.1,17.8,0.3
			c0.8-0.7,0.8-3.2,0-3.9l-4.1-0.6c-5-0.7-5.7-1.6-5.7-12v-15.1c0-3,0.1-3.4,3.1-3.4h10.2c5.9,0,7.2,0.9,8.3,6.3l0.6,2.7
			c0.8,1,3.6,0.9,4.3-0.1c-0.2-3.4-0.3-7.5-0.3-11.7c0-4.3,0.1-8.4,0.3-12c-0.7-1-3.5-1.1-4.3-0.1l-0.6,2.7
			c-1.1,5.5-2.4,6.3-8.3,6.3h-10.2c-3,0-3.1-0.3-3.1-3.4V77.6c0-4.4,0-4.6,3.7-4.6h10.3c5.7,0,9.1,1.3,11,3.7c1.1,1.5,2,4.1,3.3,8.7
			c1.3,0.9,3.8,0.8,4.3-0.4c-0.2-7.5-0.2-15.6-0.2-17.5C1415.4,67.7,1409,67.8,1401.8,67.8"/>
		<path class="st3" d="M1495.6,121.1c-3,7.6-9.3,17.4-22.9,17.4c-13.5,0-26.3-12-26.3-34.3c0-22.3,13.3-32.9,25.8-32.9
			c10.9,0,18,5.6,21.1,16c0.8,1,3.8,0.6,4.3-0.8c-1-6.5-1.3-15.5-1.3-17.5c-3.4-0.2-11.7-2.9-23.1-2.9c-11.7,0-23.1,3.4-31,10
			c-7.7,6.4-13.6,16-13.6,29.7c0,13.9,6.2,23.2,14.2,29.4c8,5.9,19.2,8.5,30.1,8.5c8.7,0,16.7-2.5,22.7-4.1
			c1.6-2.6,3.5-9.3,4.3-17.6C1499.1,120.5,1496.5,120.2,1495.6,121.1"/>
		<path class="st3" d="M1275.8,137.6c-4.1-0.7-5.2-3.2-7.5-10L1253,83.6c-2.8-8-4.1-12.1-5-15.4c-0.4-1.7-1.1-2.2-2.6-2.2
			c-0.2,0-3.7,4.6-8.4,6.3l-2.8,7.4c-0.4,1.1-0.8,2.2-1.3,3.5l-1.4,3.7c0,0,0,0,0,0.1l-10.2,27.3c-3,8.1-5.2,13.4-7.1,17.9
			c-1.9,4.4-4.1,5.3-6.8,5.6l-3,0.3c-0.8,0.9-0.9,3.2,0.3,3.9c5.2,0,7.7-0.3,11.5-0.3c4.7,0.1,8.7,0.1,12.7,0.3
			c1.1-0.6,0.9-3.1,0.2-3.9l-3.4-0.6c-3.1-0.6-4.6-1.2-4.6-1.9c0-0.9,0.1-1.8,0.8-4l4.4-13c0.7-2.1,1-2.2,3.7-2.2h13.3
			c3.9,0,4.8,0.2,5.4,2l3,9.6c1.3,4.1,2.1,6.8,2.1,7.6c0,0.7-0.4,1.5-3,1.9l-3.6,0.6c-1.2,0.9-1,3.2,0.2,3.9
			c5.2-0.2,9.5-0.3,15.1-0.3c5.8,0,11.9,0.1,17.3,0.3c1-0.7,0.8-3.4,0.1-3.9L1275.8,137.6z M1242.8,110.5h-10.5
			c-2.8,0-3.4-0.3-2.4-3.4l2.8-8.4c1.7-5.2,3.9-11.2,4.8-13.8c1,2.4,3,8.4,4.6,13.2l2.9,9.1C1246,110.2,1245.4,110.5,1242.8,110.5"
			/>
		<path class="st6" d="M1316,197.9c-2,2-1.7,4.4-3.5,6.2c-0.7,0.7-1.7,1.3-3.1,1.3c-2.6,0-4.3-2.1-4.3-4.3c0-2.2,2.5-4.2,9.5-4.2
			c0.8,0,1.8,0,2.7,0.1C1317,197.1,1316.5,197.4,1316,197.9 M1487.9,250.3c-2,0-3.1,0.3-3.1,0.3s13.2-13,13.2-33.3
			c0-9.2-2.2-12.8-2.6-12.8c-0.7,0-0.7,5.5-5,9.7c-3.1,3.1-7.9,3.4-10.6,6.1c2.6-5.6,0.7-13.1,0.4-13.1s-0.2,4-5.2,9
			c-3.2,3.2-10.6,5.5-16.6,11.5c2.6-5.9,0.3-12.1-0.2-12.1c-0.5,0,0,3.6-3.5,7c-3.2,3.2-9.4,4.8-14,9.5c-6.4,6.4-5.3,16.2-5.3,19.7
			c0,0.3,0,0.7,0,1c-0.9,0.6-1.8,1.4-2.7,2.2c-7.3,6.4-11.1,14.7-11.1,24.3c0,18.1,11.7,30.4,22.1,41.2c4.6,4.8,8.9,9.3,12,14
			c3.2,4.9,4.7,9.3,4.7,13.9c0,4.5-1.5,8.8-4.1,11.9c-2.9,3.4-7,5.2-12.2,5.2c-8.9,0-15.4-3.3-22.4-6.8c-3.5-1.8-7.1-3.7-10.9-5.2
			c-2-19.6-16-31.4-16-49.7c0-10,4.4-15.5,2.8-22.5c3.2,3.2,8.7,4.3,10.5,4.3c1.6,0,2.6-0.6,3.1-1c0.1-0.1,0.1-0.3,0-0.3
			c-0.9-0.7-4.5-3.6-4.5-8.8c0-6,2.3-10.7,2.3-16.7s-3.3-9.6-4-10.2c2.7,2.7,7.5,4.3,9.9,4.3c2.1,0,3.2-0.3,3.9-0.8
			c0.1-0.1,0.1-0.3,0-0.4c-1.2-0.7-5.8-3.8-5.8-8.6c0-5.5,1.5-6.5,1.5-10.4c0-3.8-1.8-6.7-1.8-6.7s2.6,1.5,5.6,1.5
			c3.4,0,5.3-0.8,6.6-1.9c0.2-0.1,0.1-0.4-0.1-0.4c-8.6-0.7-7.4-20.2-15.5-27.4c0,0,0.9,0.2,2.1,0.2c2.8,0,6.2-2.4,7.4-4.6
			c0.1-0.1,0-0.3-0.2-0.3c-15.5-0.8-20.4-35.1-55.4-28.2c1.8-2.6,5.2-4.7,6.4-5.5c0.2-0.1,0.1-0.3,0-0.4c-1.6-0.6-4.9-1.9-12.7-1.9
			c-8,0-15.4,4.3-19.6,9.7c1.9-3.8-0.4-8.6-2.5-10.9c-0.1-0.1-0.3-0.1-0.4,0.1c-0.2,1-1.1,3.1-2.4,4.4c-6.3,6.3-17.6,10.3-17.6,23.4
			c0,0-3.7,2.4-8.7,5.8c-5,3.4-7.7,8.8-7.7,10.4c-1.9,1-9.8,6.8-16.2,13.2c-0.1,0.1-0.2,0.4-0.1,0.6c0.7,1,1.2,2.4,1.4,3.2
			c0.1,0.3,0.5,0.4,0.7,0.2c0.9-0.8,2.6-2.3,3.3-2.6c-1.4,1.4-1.9,3.1-1.9,5.3c0,4.8,10.6,11.4,11.2,10.8c0.5-0.5-1.2-5.3,0.4-6.9
			c2.4-2.4,10.8-2.7,13.4-2.7c2.6,0,3.9,1,3.9,2.8c0,4.5-2.5,12.8-10.6,12.8c-3.3,0-5.4-3.2-5.9-2.6c-0.5,0.5-0.1,5.2,1,6.8
			c0,0-0.9,1.1-0.9,3.3c0,5.8,9.6,13.2,10.5,12.2c0.7-0.7-2-7.2-0.3-7.2c0.9,0,3.5,3.7,6.4,3.7c0.1,0,0.2,0,0.2-0.1
			c0.5-0.5-1.9-3.8-0.6-5c3.2-3.2,11.6-9.5,13.7-10.2c4.4-1.4,6.8,1.8,6.8,6.2c0,9.7-10.3,11.7-18.7,20.1
			c-8.4,8.4-10.1,20.3-20.6,20.3c-1.4,0,7.8-2.5,10.4-11.7c-27.6,0.2-32.3-15.2-54.4-18.2c0-0.3-0.2-0.7-0.5-1
			c-0.6-0.6-8.3-7.4-8.3-22.7c0-3.1-2.1-5.4-5.2-5.4l0,0c-1-2.2-3.6-6.5-9.1-6.5c-5.2,0-6.6,2.4-6.3,2.7c0.3,0.3,2.6-0.5,5.3,2.2
			c1.6,1.6,2.2,3.4,2.5,4.6c-0.6,0.8-1,1.7-1,2.8c0,0-2.7-0.5-5.4,2c-1.1-0.7-3.1-1.4-5.9-1.4c-7.6,0-9.1,6.8-8.8,7.1
			c0.3,0.3,1.6-1.2,4-1.2c2.7,0,5.4,2.1,6.9,3.4c-0.2,1.8,0.2,3.4,1.3,4.6c0,0-3.6,1.1-4.3,6.2c-0.2,0-0.3,0.1-0.5,0.1
			c-10.1,2.8-8.1,10.7-7.7,10.7s0.9-3.4,5.6-3.4c1.6,0,2.9,0.2,3.9,0.4c1.8,3.4,5,4.3,7.3,4.3c2.1,0,4-0.5,5.7-0.5
			c2.3,0,3.7,1.4,3.7,4.6c0,4.7-4.5,3.3-6.6,5.3c-1.4,1.4-1.6,2.6-1.6,4.5c0,0.1,0,0.2,0,0.2c-0.6,0.2-1.3,0.3-2,0.3
			c-3.1,0-4.9-2.8-5.3-2.4c-0.6,0.6,1.3,9.6,7.7,9.6c2.2,0,3.8-0.6,4.8-1.4c0.5,0.1,1.1,0.2,1.7,0.2c6.4,0,7.9-7.8,15.9-7.8
			c7.9,0,23.3,11,25.5,24.8c0,0.2,0.2,0.2,0.4,0.1c3.5-2.8,3.3-7.1,3.3-7.1c6.5,5.3,9.2,7.7,14.7,13.1c0,0-31.8,24.4-33.4,25.4
			c-1.4,0.8-2.1,1.2-3.9,1.2c-4.5,0-5.9-7.5-13-7.5c-1.4,0-2.4,0.4-3.3,1.1c-0.7-0.1-1.6-0.2-2.8-0.2c-8.4,0-9.9,11.3-9.1,11.3
			c0.8,0,1.4-2.9,5.4-2.9c0.5,0,1,0.1,1.6,0.2c0,2.2,0.8,4.2,2.2,5.3c0,0-2.3,0.8-3.6,3.5c-10,0.3-9.8,12.1-8.8,12.1
			c0.7,0,1.1-4.9,6.9-4.9c0.4,0,1,0.2,1.5,0.4c1,4.4,4,6.8,7.6,6.8c-0.9,1.6-0.7,4.3,0.2,6.6c-2.3,4.8,1.8,11.5,2.9,11.5
			c0.8,0-0.2-4.2,1.7-7c0.4,0.1,0.8,0.1,1.2,0.1c5.2,0,7.4-4.4,7.4-4.4s0.3,4.6,4.9,5.1c1,4.1,3.6,7.6,4.5,7.6
			c0.6,0-0.6-5.6,1.1-9.2c6.6-6.6,1.4-15.1,8.2-21.9c7.8-7.8,27.1-14.9,43-15.5c5.7,6.5,13.7,16.2,17.3,18.7c0,0-0.2,0.2-0.4,0.4
			c-9.8,9.8-28,1.2-37.5,10.8c-3.8,3.8-4.3,7.3-9.7,7.3c-1.8,0-3.5-0.9-4.3-1.6c-0.1-0.1-0.3-0.1-0.4,0.1c-0.3,1.1-0.6,4.9,2.3,7.8
			c3.3,3.3,7.4,2.7,8.5,2.1c-2.6,3.6-8.4,3.4-11.8,1.4c-0.2-0.1-0.4,0.1-0.3,0.2c2.7,10.2,13.2,8.3,13.2,8.3
			c2.2,10.9,13,15.5,13,22.8c0,2-0.9,4.4-2.6,6.1c-4.1,4.1-13.2,6.8-23.1,6.8c-15.9,0-16.2-11.3-24.9-11.3c-1.1,0-2.2,0.1-3.3,0.4
			c-1.2-1.4-4-3.1-7.4-3.1c-5.3,0-8.4,6-7.7,6.7c0.4,0.4,2-1.4,4.4-1.4c1.2,0,2.6,1,3.3,2.6c-0.4,0.5-0.8,1.1-1.1,1.7
			c-0.9-0.2-2-0.4-3.4-0.4c-10,0-9.8,11.5-8.8,11.5c0.6,0,1.9-4.3,6.8-3.7c-1,1.8-1.5,3.8-1.5,6c0,0.3,0,0.6,0,1
			c-2.3,1.3-4.1,3.8-4.1,6.7c0,4.2,0.8,6.3,1.4,6.3c0.7,0,1.4-4.8,5.1-6.4c1.7,2.3,4,3.9,6.8,4.7c-0.3,1.4-0.6,3.6-0.6,6.7
			c0,3.9,1.2,9,2,9c0.7,0,1.2-6,3.8-8.3c1.1,1.1,2.4,1.9,3.9,2.5c1.4,0.6,3,1,5,1c0.1,0,0.2,0,0.4,0c13.3-0.2,21.8-12.4,31.9-12.4
			c5.6,0,5.7,5.2,3.7,7.5c15.2,0,19.5-11.5,28.7-11.5c4.7,0,8.9,2.5,13.2,2.5c2.8,0,6.3-0.9,8.3-5c0.1-0.1,0-0.3-0.2-0.3
			c-7.1,0.1-10.1-3.3-10.6-5.4c12.7,5.1,16.4-2.8,17.1-4.9c0.1-0.2-0.1-0.4-0.3-0.3c-0.5,0.2-1.4,0.5-2.4,0.5
			c-6.8,0-14.2-6.9-14.2-16.5c0-9.1,6.3-14.2,12.3-15.8c4.7-13.4,11.4-16,8.8-24.4c0,0,0-0.1,0-0.1c0,0,0,0,0,0
			c0.7,0.9,2.1,4.5,2.1,6.5c0,8.8-8.5,13.9-8.5,27.8c0,15.8,12.3,15.1,12.3,25.7c0,4.2-1.6,6.6-2.2,7.4c-0.1,0.1,0,0.3,0.1,0.4
			c1.5,0.2,7.2,0.4,12.8-8.8c7.3,3.8,5.4,10.2,4.8,11.6c-0.1,0.1,0.1,0.3,0.2,0.3c9.5-0.3,12.6-13.3,12.6-13.3
			c8.4-0.9,15.1,2,15.1,5.5c0,9.1-17,26.2-29.5,26.2c-4.6,0-6.3-4.8-10.3-4.8c-2.9,0-4.4,1.4-5.3,3.2c-1.6-0.7-3.3-1.1-4.9-1.1
			c-4,0-7.5,2.2-8.7,7.1c-5.4,1.8-6.5,10.1-5.9,10.6c0.4,0.4,3-4,7.4-2.9c0.8,1.3,1.7,2.3,2.4,3c-0.9,0.5-1.9,1.1-2.9,2.1
			c-5.3,5.3-3.9,11.2-3.4,11.7c0.5,0.5,1.5-2,3-3.5c1.2-1.1,2.8-2.4,5-2.2c1.8,3.4,5.7,4.3,8.1,4.3c-0.3,3.1-0.3,8.2,0.5,9
			c0.6,0.6,2.9-4.4,6.6-7c1.9,1.2,4.3,2.3,6.7,2.3c7,0,13.2-3.3,18.2-8.3c7.3-7.3,12.3-19.1,18.5-19.1c3.9,0,3.1,3.5,3,4
			c10,0,5.7-12.2,24.8-31.3c2.3-2.3,5-4.4,5.4-6.7c0-0.2-0.2-0.3-0.3-0.2c-1.7,1.1-5.9,1.4-7.9-0.5c0,0,15.4-7.7,15.8-19.1
			c0-0.2-0.2-0.3-0.4-0.2c-4.2,3.3-11.9,2.5-11.9,2.5c3.6-2.9,6.2-11.1,2.5-18.9c-0.1-0.2-0.3-0.2-0.4,0
			c-3.6,8.5-10.9,11.4-17.5,11.4c-9.5,0-17.5-7.6-17.5-18.1c0-8.9,2.9-12.9,4.1-20.9c2,0.9,4.1,1.9,6.3,3.1c7.4,3.8,15.8,8,27.3,8
			c4.3,0,8.3-0.8,11.9-2.5c3.4-1.5,6.3-3.8,8.7-6.6c4.3-5.1,6.7-11.8,6.7-19c0-14.8-10.1-25.3-19.8-35.5c-4.8-5-9.8-10.2-13.4-15.8
			c-3.8-6-5.6-11.6-5.6-17.7c0-6.2,3.4-12.7,8.2-16.9c0,0,10.5,5.8,22.6,5.8c12.1,0,19.3-8.9,19.3-8.9c5.6-5.6,11.5-4.7,12.1-5.3
			C1495.4,253.3,1492.2,250.3,1487.9,250.3"/>
	</g>
</g>
<g>
	<g>
		<defs>
			<rect id="SVGID_1_" x="1633.3" y="31.2" width="452.1" height="514.7"/>
		</defs>
		<clipPath id="SVGID_00000135681432181203712200000005262836159880214923_">
			<use xlink:href="#SVGID_1_"  style="overflow:visible;"/>
		</clipPath>
		<path style="clip-path:url(#SVGID_00000135681432181203712200000005262836159880214923_);fill:#5F0041;" d="M1855.7,530
			c-55.2-10.2-106.9-38.7-145.6-79.6c-39.2-41.8-61.4-93.3-61.7-144.5V46h422v259.9c-0.6,51.5-22.5,102.7-61.7,144.5
			c-38.7,40.9-90.1,69.4-145.6,79.6l-3.7,0.6L1855.7,530z"/>
	</g>
	<g>
		<g>
			<defs>
				<rect id="SVGID_00000155832323597642921020000014080498450278760089_" x="1633.3" y="31.2" width="452.1" height="514.7"/>
			</defs>
			<clipPath id="SVGID_00000011710671546802909690000004546902113000152726_">
				<use xlink:href="#SVGID_00000155832323597642921020000014080498450278760089_"  style="overflow:visible;"/>
			</clipPath>
			<path style="clip-path:url(#SVGID_00000011710671546802909690000004546902113000152726_);fill:#FFFFFF;" d="M1661.5,59.1v246.8
				c0.6,48.1,21.3,96.1,58.3,135.6c36.7,39,85.9,66,138.5,75.9l1.1,0.3l1.1-0.3c52.6-10,101.8-36.7,138.5-75.9
				c37-39.5,57.7-87.6,58.3-135.9V59.1L1661.5,59.1z M2044.2,305.6c-0.9,91.8-82.2,178.9-184.8,198.8
				c-102.9-19.6-184-106.9-184.8-198.5V72.2h369.9v233.5H2044.2z"/>
		</g>
		<g>
			<defs>
				<rect id="SVGID_00000017480338456947554660000004082298447081284008_" x="1633.3" y="31.2" width="452.1" height="514.7"/>
			</defs>
			<clipPath id="SVGID_00000129195550739317186410000007353974551362936463_">
				<use xlink:href="#SVGID_00000017480338456947554660000004082298447081284008_"  style="overflow:visible;"/>
			</clipPath>
			<path style="clip-path:url(#SVGID_00000129195550739317186410000007353974551362936463_);fill:#FFFFFF;" d="M1743.7,387.2
				c1.4-0.3,2.3-0.6,2.8-2c0.6-1.4,0.6-4-3.1-5.4l-8-3.1l-5.7,14.5l8.2,3.1c2.6,1.1,5.7,0.6,6.8-2.3
				C1745.7,389.5,1744.8,388.1,1743.7,387.2z M1740.5,389.5c-0.6,1.1-1.4,1.1-2.3,0.6l-2.6-1.1l1.1-2.6l2.8,1.1
				C1740.5,388.1,1740.8,388.6,1740.5,389.5z M1742,384.1c-0.3,0.9-1.1,0.9-2,0.6l-2.3-0.9l0.9-2.3l2.3,0.9
				C1742,383,1742.2,383.5,1742,384.1L1742,384.1z"/>
		</g>
		<g>
			<defs>
				<rect id="SVGID_00000098942038724286660020000001573888242639652504_" x="1633.3" y="31.2" width="452.1" height="514.7"/>
			</defs>
			<clipPath id="SVGID_00000075131370154928314540000011575315553087694232_">
				<use xlink:href="#SVGID_00000098942038724286660020000001573888242639652504_"  style="overflow:visible;"/>
			</clipPath>
			<path style="clip-path:url(#SVGID_00000075131370154928314540000011575315553087694232_);fill:#FFFFFF;" d="M1754.5,384.1l-4.3-2
				l-4,8.5c-1.7,4-0.6,6.8,3.7,8.8c4.3,2,7.4,1.1,9.1-2.8l4-8.5l-4.3-2l-3.7,7.7c-0.6,1.4-1.4,3.1-3.7,2.3c-2-0.9-1.1-2.8-0.6-4.3
				L1754.5,384.1z"/>
		</g>
		<g>
			<defs>
				<rect id="SVGID_00000053504764529426136490000016207876998864011651_" x="1633.3" y="31.2" width="452.1" height="514.7"/>
			</defs>
			<clipPath id="SVGID_00000000190557037971696880000016543403442816589232_">
				<use xlink:href="#SVGID_00000053504764529426136490000016207876998864011651_"  style="overflow:visible;"/>
			</clipPath>
			<path style="clip-path:url(#SVGID_00000000190557037971696880000016543403442816589232_);fill:#FFFFFF;" d="M1761.3,405.1
				l2.8-4.8l2.3,1.1c1.7,0.9,0.9,2.3,0.3,3.7c-0.3,0.9-0.6,1.4-0.9,2.3l4.3,2.3c0-0.9,0.9-2.6,1.1-3.1c0.9-1.7,0.9-3.4,0-4.5
				c1.7,0.3,3.1-0.9,4-2.3c1.4-2.6,0.3-5.1-2.3-6.3l-8-4.5l-7.7,13.4L1761.3,405.1z M1767.3,394.9l2,1.1c1.7,0.9,1.7,1.7,1.1,2.6
				c-0.6,1.1-1.7,0.9-2.6,0.3l-2.3-1.1L1767.3,394.9z"/>
		</g>
		<g>
			<defs>
				<rect id="SVGID_00000129892656703122309790000000516716634822591915_" x="1633.3" y="31.2" width="452.1" height="514.7"/>
			</defs>
			<clipPath id="SVGID_00000183233979771116251860000003865849144321507991_">
				<use xlink:href="#SVGID_00000129892656703122309790000000516716634822591915_"  style="overflow:visible;"/>
			</clipPath>
			<path style="clip-path:url(#SVGID_00000183233979771116251860000003865849144321507991_);fill:#FFFFFF;" d="M1773.8,413.1
				l5.4-6.5l-1.7,9.4l3.7,3.1l9.7-12.2l-3.4-2.8l-5.4,6.5l1.7-9.4l-3.7-3.1l-10,12.2L1773.8,413.1z"/>
		</g>
		<g>
			<defs>
				<rect id="SVGID_00000129890018956256621050000008020904007747649687_" x="1633.3" y="31.2" width="452.1" height="514.7"/>
			</defs>
			<clipPath id="SVGID_00000141457485092352142470000007070759600086164391_">
				<use xlink:href="#SVGID_00000129890018956256621050000008020904007747649687_"  style="overflow:visible;"/>
			</clipPath>
			<path style="clip-path:url(#SVGID_00000141457485092352142470000007070759600086164391_);fill:#FFFFFF;" d="M1791.7,427.3
				l2.6-3.1l-5.4-4l7.1-9.4l-4-2.8l-9.4,12.2L1791.7,427.3z"/>
		</g>
		<g>
			<defs>
				<rect id="SVGID_00000127037500268548993110000002845049131941150129_" x="1633.3" y="31.2" width="452.1" height="514.7"/>
			</defs>
			<clipPath id="SVGID_00000073709297849215284840000010267805465941144199_">
				<use xlink:href="#SVGID_00000127037500268548993110000002845049131941150129_"  style="overflow:visible;"/>
			</clipPath>
			<path style="clip-path:url(#SVGID_00000073709297849215284840000010267805465941144199_);fill:#FFFFFF;" d="M1804,435.8l2.3-3.4
				l-7.1-4.5l1.1-1.7l6.3,4l2-2.8l-6-4.3l0.9-1.4l6.8,4.3l1.4-1.7v9.4l-2.8,4.8l4,2.6l2.8-5.1l9.7-6l-4.5-2.6l-5.1,3.7l0.6-6.3
				l-3.7-2l-10.8-7.1l-8.5,12.8L1804,435.8z"/>
		</g>
		<g>
			<defs>
				<rect id="SVGID_00000081630699351309260020000009422451960896303527_" x="1633.3" y="31.2" width="452.1" height="514.7"/>
			</defs>
			<clipPath id="SVGID_00000147215872061558482640000001542792344570794888_">
				<use xlink:href="#SVGID_00000081630699351309260020000009422451960896303527_"  style="overflow:visible;"/>
			</clipPath>
			<path style="clip-path:url(#SVGID_00000147215872061558482640000001542792344570794888_);fill:#FFFFFF;" d="M1829,448.1l2-5.7
				l6,2l1.1-3.4l-6-2l0.9-2l6.8,2.6l1.1-3.7l-11.1-4l-5.4,14.5L1829,448.1z"/>
		</g>
		<g>
			<defs>
				<rect id="SVGID_00000025424763914365964800000005431367628669532820_" x="1633.3" y="31.2" width="452.1" height="514.7"/>
			</defs>
			<clipPath id="SVGID_00000137824932169827238430000011947629959072040845_">
				<use xlink:href="#SVGID_00000025424763914365964800000005431367628669532820_"  style="overflow:visible;"/>
			</clipPath>
			<path style="clip-path:url(#SVGID_00000137824932169827238430000011947629959072040845_);fill:#FFFFFF;" d="M1838.9,443.2
				c-0.9,4.5,1.4,8.5,6.3,9.4c4.5,0.9,8.2-1.7,9.4-6.5c0.9-4.5-1.4-8.5-6.3-9.4C1843.5,435.8,1839.8,438.7,1838.9,443.2
				L1838.9,443.2z M1843.5,444.4c0.6-3.4,2.6-3.7,4-3.7c1.1,0.3,2.8,1.4,2.3,4.8c-0.6,3.4-2.6,3.7-4,3.7
				C1844.6,448.9,1842.9,447.8,1843.5,444.4z"/>
		</g>
		<g>
			<defs>
				<rect id="SVGID_00000053523001217315154980000006175926270778444947_" x="1633.3" y="31.2" width="452.1" height="514.7"/>
			</defs>
			<clipPath id="SVGID_00000155856057250866246400000018201341423995409555_">
				<use xlink:href="#SVGID_00000053523001217315154980000006175926270778444947_"  style="overflow:visible;"/>
			</clipPath>
			<path style="clip-path:url(#SVGID_00000155856057250866246400000018201341423995409555_);fill:#FFFFFF;" d="M1862.8,454.9
				c4.8,0,8-3.1,8-8c0-4.8-3.1-8.2-7.7-8.2c-4.8,0-8,3.1-8,8C1854.9,451.2,1858,454.6,1862.8,454.9z M1863.1,442.4
				c1.1,0,3.1,0.9,3.1,4.3c0,3.4-2,4.3-3.1,4.3s-3.1-0.9-3.1-4.3C1860,443.2,1861.7,442.4,1863.1,442.4z"/>
		</g>
		<g>
			<defs>
				<rect id="SVGID_00000168818291752709178350000018005597768378069392_" x="1633.3" y="31.2" width="452.1" height="514.7"/>
			</defs>
			<clipPath id="SVGID_00000052814428385545106430000015956555598786103462_">
				<use xlink:href="#SVGID_00000168818291752709178350000018005597768378069392_"  style="overflow:visible;"/>
			</clipPath>
			<path style="clip-path:url(#SVGID_00000052814428385545106430000015956555598786103462_);fill:#FFFFFF;" d="M1875,442.1l2,11.7
				l4.5-0.9l-1.7-11.4l4.3-0.9l-0.6-4l-13.4,2.3l0.6,4L1875,442.1z"/>
		</g>
		<g>
			<defs>
				<rect id="SVGID_00000098917768190491820810000017291456049058187935_" x="1633.3" y="31.2" width="452.1" height="514.7"/>
			</defs>
			<clipPath id="SVGID_00000106145075229590284120000005340617075046816669_">
				<use xlink:href="#SVGID_00000098917768190491820810000017291456049058187935_"  style="overflow:visible;"/>
			</clipPath>
			<path style="clip-path:url(#SVGID_00000106145075229590284120000005340617075046816669_);fill:#FFFFFF;" d="M1897.5,448.4
				c2.6-0.9,4.5-3.4,3.4-6.3c-0.9-2.3-2.3-2.8-4-2.8c0.9-0.9,1.4-2,0.9-3.4c-0.6-1.4-2-3.4-6-2l-8,2.8l5.1,14.5L1897.5,448.4z
				 M1896.4,443.2c0.3,1.1-0.3,1.7-1.1,2l-2.6,0.9l-0.9-2.8l2.8-1.1C1895.2,442.1,1896.1,442.4,1896.4,443.2L1896.4,443.2z
				 M1892.1,437.6c0.9-0.3,1.7-0.3,2,0.6c0.3,0.9-0.3,1.4-1.1,1.7l-2.3,0.9l-0.9-2.3L1892.1,437.6z"/>
		</g>
		<g>
			<defs>
				<rect id="SVGID_00000058572635892435581640000009922108319464747933_" x="1633.3" y="31.2" width="452.1" height="514.7"/>
			</defs>
			<clipPath id="SVGID_00000075883277547201593090000015883447721048095123_">
				<use xlink:href="#SVGID_00000058572635892435581640000009922108319464747933_"  style="overflow:visible;"/>
			</clipPath>
			<path style="clip-path:url(#SVGID_00000075883277547201593090000015883447721048095123_);fill:#FFFFFF;" d="M1906.9,444.4
				l-0.3-2.3l4.3-2.3l1.7,1.7l4.3-2.3l-12.2-11.1l-4.3,2.3l2.3,16.5L1906.9,444.4z M1904.9,433.6l3.4,3.7l-2.6,1.4L1904.9,433.6z"/>
		</g>
		<g>
			<defs>
				<rect id="SVGID_00000142174577611510070540000007473773662579191195_" x="1633.3" y="31.2" width="452.1" height="514.7"/>
			</defs>
			<clipPath id="SVGID_00000124142243316585590420000008345462895835980215_">
				<use xlink:href="#SVGID_00000142174577611510070540000007473773662579191195_"  style="overflow:visible;"/>
			</clipPath>
			<path style="clip-path:url(#SVGID_00000124142243316585590420000008345462895835980215_);fill:#FFFFFF;" d="M1927.1,431.9l-2-3.1
				l-6,3.7l-6.3-9.7l-4,2.6l8.5,13.1L1927.1,431.9z"/>
		</g>
		<g>
			<defs>
				<rect id="SVGID_00000120544713558433858250000007772525683558655382_" x="1633.3" y="31.2" width="452.1" height="514.7"/>
			</defs>
			<clipPath id="SVGID_00000013887347082900205600000008184647159443039672_">
				<use xlink:href="#SVGID_00000120544713558433858250000007772525683558655382_"  style="overflow:visible;"/>
			</clipPath>
			<path style="clip-path:url(#SVGID_00000013887347082900205600000008184647159443039672_);fill:#FFFFFF;" d="M1937.6,424.2
				l-2.3-3.4l-5.4,4.3l-7.1-9.4l-3.7,2.8l9.4,12.5L1937.6,424.2z"/>
		</g>
		<g>
			<defs>
				<rect id="SVGID_00000113346355587401628420000008612473229135361439_" x="1633.3" y="31.2" width="452.1" height="514.7"/>
			</defs>
			<clipPath id="SVGID_00000061465643291140685230000014903973712672161181_">
				<use xlink:href="#SVGID_00000113346355587401628420000008612473229135361439_"  style="overflow:visible;"/>
			</clipPath>
			<path style="clip-path:url(#SVGID_00000061465643291140685230000014903973712672161181_);fill:#FFFFFF;" d="M1949.3,415.4
				c3.4-2.8,3.4-7.1,1.4-9.4l-3.7,2.8c0.6,1.4,0.9,2.6-0.3,3.7c-1.7,1.4-3.7,0-4.8-1.4c-1.4-1.7-2-3.7-0.3-5.1
				c1.4-1.1,2.8-0.3,3.4,0.3l3.7-2.8c-2.8-2.8-6-3.1-9.4-0.6c-3.7,2.8-4.3,7.4-1.1,11.4C1941,417.4,1945.6,418.5,1949.3,415.4
				L1949.3,415.4z"/>
		</g>
		<g>
			<defs>
				<rect id="SVGID_00000034784205062197004940000001803060240507825050_" x="1633.3" y="31.2" width="452.1" height="514.7"/>
			</defs>
			<clipPath id="SVGID_00000158728748988429757850000016979960839160169123_">
				<use xlink:href="#SVGID_00000034784205062197004940000001803060240507825050_"  style="overflow:visible;"/>
			</clipPath>
			<path style="clip-path:url(#SVGID_00000158728748988429757850000016979960839160169123_);fill:#FFFFFF;" d="M1964.6,402.9
				l-2.6-3.1l-5.4,4.3l-6.8-9.4l-4,2.8l9.4,12.5L1964.6,402.9z"/>
		</g>
		<g>
			<defs>
				<rect id="SVGID_00000058573810772576309880000000442288073389564035_" x="1633.3" y="31.2" width="452.1" height="514.7"/>
			</defs>
			<clipPath id="SVGID_00000062157891139451375260000011730423767015431554_">
				<use xlink:href="#SVGID_00000058573810772576309880000000442288073389564035_"  style="overflow:visible;"/>
			</clipPath>
			<path style="clip-path:url(#SVGID_00000062157891139451375260000011730423767015431554_);fill:#FFFFFF;" d="M1971.2,399.2
				c4-2.6,5.1-5.4,2.8-9.1l-4.8-8.2l-4,2.6l4.3,7.4c0.9,1.4,1.7,3.1,0,4.3c-2,1.1-3.1-0.6-3.7-2l-4.3-7.4l-4,2.6l4.8,8.2
				C1964,400.9,1967.2,401.4,1971.2,399.2L1971.2,399.2z"/>
		</g>
		<g>
			<defs>
				<rect id="SVGID_00000085242485484150518340000016741616369829326491_" x="1633.3" y="31.2" width="452.1" height="514.7"/>
			</defs>
			<clipPath id="SVGID_00000051380006702941027610000004349002273971089829_">
				<use xlink:href="#SVGID_00000085242485484150518340000016741616369829326491_"  style="overflow:visible;"/>
			</clipPath>
			<path style="clip-path:url(#SVGID_00000051380006702941027610000004349002273971089829_);fill:#FFFFFF;" d="M1985.9,392.1
				c2.6-0.9,4.5-3.4,3.4-6.3c-0.9-2.3-2.3-2.8-4-2.8c0.9-0.9,1.4-2,0.9-3.4c-0.6-1.4-2.3-3.4-6-2l-8,2.8l5.1,14.5L1985.9,392.1z
				 M1984.8,386.9c0.3,1.1-0.3,1.7-1.1,2l-2.6,0.9l-0.9-2.8l2.8-1.1C1983.9,385.8,1984.5,386.1,1984.8,386.9L1984.8,386.9z
				 M1980.5,381.2c0.9-0.3,1.7-0.3,2,0.6c0.3,0.9-0.3,1.4-1.1,1.7l-2.3,0.9l-0.9-2.3L1980.5,381.2z"/>
		</g>
		<g>
			<defs>
				<rect id="SVGID_00000020361217299551371440000017813633842299035544_" x="1633.3" y="31.2" width="452.1" height="514.7"/>
			</defs>
			<clipPath id="SVGID_00000008864390137335727270000011621688936469857959_">
				<use xlink:href="#SVGID_00000020361217299551371440000017813633842299035544_"  style="overflow:visible;"/>
			</clipPath>
			<path style="clip-path:url(#SVGID_00000008864390137335727270000011621688936469857959_);fill:#FFFFFF;" d="M2009.5,357.6
				l-0.9-0.9h-0.3c8.5-14.8,6-28.7,6-29.6c-0.3-1.1-0.9-3.7-3.4-6c-3.1-2.8-8.2-4-15.1-3.1c-7.4,0.9-12.8,3.4-14.8,7.4l-0.3,0.3
				c-0.6,1.1-1.4,3.4-1.1,6.5c0.3,2.3,1.1,5.1,1.7,7.4c-4.3,0.6-8.2,1.1-11.9,2.6c-3.7,1.4-5.7,3.1-6.3,5.4c-0.3,0.6-0.3,1.4,0,2
				c0,0-0.9,12.2,0.6,23.6c-17.9,8-28.2,17.6-28.2,17.6c-39.2,36.4-70.5,37.5-74.2,37.5h-0.3c-0.3,0-33,0.6-74.2-37.5
				c0,0-10-8.5-27-16.2c1.7-11.9,0.9-26.4,0.6-27.3c-0.6-2.3-2.6-4.3-6.3-5.4c-3.7-1.4-7.7-2-11.9-2.6c0.9-2.3,1.4-5.1,1.7-7.4
				c0.3-3.1-0.3-5.1-1.1-6.5c0-0.3-0.3-0.3-0.3-0.6c-2.3-4-7.4-6.8-14.8-7.4c-6.8-0.6-11.9,0.3-15.1,3.1c-2.6,2.3-3.1,4.8-3.4,6
				c0,0.6-2.6,13.6,7.1,28.7c0,0-0.3,0-0.6,0.3c0,0-0.3,0.3-0.6,0.3c-0.6,0.3-0.9,0.6-1.1,1.1c-0.9,0.9-2,2.6-2.8,4.5
				c-2,4.5-3.1,14.2,5.7,34.4l0.3,0.6l0.6,0.3c0.3,0,24.7,6.8,50.9,27.3c18.5,14.5,40.7,30.1,64.3,37l2,0.6c3.1,0.9,6.5,1.7,10,2
				l2.3,0.3c0.3,0,0.9,0,1.4,0.3h1.1c3.7,0.3,7.4,0.6,11.1,0.6c2,0,3.7,0,5.7-0.3c4.8-0.3,10-0.9,15.1-2c3.7-0.9,6.3-1.4,7.4-2
				c21.6-6.3,44.4-19.6,64-37c25.9-23,50.3-27,50.6-27h0.9l0.3-0.9c7.1-19.1,8-28.7,7.1-33.6
				C2012.1,360.8,2010.4,358.8,2009.5,357.6L2009.5,357.6z M1983.7,326.4c2-3.1,6.3-5.1,12.5-5.7c1.1,0,2.3-0.3,3.4-0.3
				c4.3,0,7.4,0.9,9.4,2.8c2,1.7,2.3,3.7,2.6,4.3v1.1v0.3c-0.9,5.1-4.8,7.4-11.7,8.5l-2-9.1l-1.4,0.3c-10.2,2.8-12.5,1.1-13.1,0.6
				C1982.5,328.4,1983.7,326.4,1983.7,326.4L1983.7,326.4z M1983.4,332.6c2.6,1.1,6.8,0.9,12.5-0.6l1.4,6.3
				c-2.3,0.3-4.8,0.6-7.7,0.9h-0.3c-0.6,0-1.1,0-1.7,0.3c-0.6,0-1.4,0-2,0.3h-1.1c0-0.3-0.3-0.9-0.6-1.4c-0.3-0.9-0.6-2-0.9-3.1
				c-0.3-0.9-0.6-2-0.6-2.8C1982.8,332.3,1983.1,332.6,1983.4,332.6L1983.4,332.6z M1966,348.5c0.3-1.4,2-2.6,4.5-3.7
				c3.7-1.4,7.7-2,11.9-2.6c0.6,0,0.9,0,1.4-0.3c1.7-0.3,3.1-0.3,4.8-0.6h0.3h0.6h1.1c0.6,0,1.1,0,1.7-0.3c2.8-0.3,5.7-0.6,8.2-1.1
				c2.3-0.3,4.3-0.9,6.3-1.7c1.4-0.6,2.6-1.1,3.7-2c0.6-0.6,1.4-1.1,2-1.7v1.7c-0.3,5.1-1.7,11.9-5.7,18.8c-0.9-0.6-2-0.9-3.4-1.1
				c-4-1.1-11.1-1.4-17.9-1.7c-4.8-0.3-10-0.3-13.6-0.9c-3.4-0.6-4.5-1.1-4.8-1.4C1966,349.7,1966,349.1,1966,348.5L1966,348.5z
				 M1965.8,353.4v-0.6c2,0.9,5.4,1.4,9.7,1.7c2,0,4,0.3,6.3,0.3h2.8c6.5,0.3,13.4,0.6,17.3,1.4c1.1,0.3,2,0.6,2.8,0.9
				c0.6,0.3,0.9,0.3,1.1,0.6c1.4,0.9,1.4,1.4,1.4,1.4c0,0.6-0.6,1.4-2.3,2.3c-0.9,0.6-2,0.9-3.4,1.4c-2.3,0.9-5.4,1.4-9.7,2
				c-9.7,1.4-18.2,4.3-25.6,7.1C1965.8,365,1965.8,357.6,1965.8,353.4L1965.8,353.4z M1741.7,332.1c0,0.9-0.3,1.7-0.6,2.8
				c-0.3,1.1-0.6,2-0.9,3.1c-0.3,0.6-0.3,0.9-0.6,1.4h-1.1c-0.6,0-1.4,0-2-0.3c-0.6,0-1.1,0-1.7-0.3h-0.3c-2.8-0.3-5.4-0.6-7.7-0.9
				l1.4-6.3c6,1.4,10,1.7,12.5,0.6C1741.4,332.3,1741.7,332.3,1741.7,332.1z M1715,323c2.6-2.3,7.1-3.1,13.1-2.6
				c6.3,0.6,10.8,2.6,12.5,5.7c0.3,0.3,0.9,2.3,0.3,3.1c-0.6,0.6-2.8,2.3-13.1-0.6l-1.4-0.3l-2,9.1c-6.8-1.1-11.1-3.4-11.7-8.5v-0.3
				v-1.1C1712.7,326.9,1713,324.7,1715,323z M1712.7,336.6c0-0.6-0.3-1.1-0.3-1.7c0.6,0.6,1.1,1.1,1.7,1.4c1.1,0.9,2.3,1.4,3.7,2
				c1.7,0.9,4,1.4,6,1.7c2.6,0.6,5.4,0.9,8.2,1.1c0.6,0,1.1,0,1.7,0.3h1.1h0.6h0.3c1.7,0,3.1,0.3,4.8,0.6c0.6,0,0.9,0,1.4,0.3
				c4.3,0.6,8.2,1.1,11.9,2.6c2.6,1.1,4.3,2.3,4.5,3.7c0.3,0.6,0,1.1-0.3,1.7c-0.3,0.3-1.7,0.9-4.8,1.4c-3.7,0.6-8.8,0.6-13.6,0.9
				c-6.8,0.3-13.9,0.6-17.9,1.7c-0.9,0.3-1.4,0.6-2.3,0.9C1715.2,348,1713.2,341.4,1712.7,336.6L1712.7,336.6z M1716.9,359.6v-0.6
				c0.3-0.3,0.9-0.9,1.4-1.1c0.3-0.3,0.9-0.3,1.1-0.6c0.3-0.3,0.9-0.3,1.4-0.6c0.3,0,0.9-0.3,1.4-0.3c3.7-1.1,10.5-1.4,17.3-1.4
				c1.4,0,2.8,0,4.3-0.3c2.3,0,4.3-0.3,6-0.3c3.7-0.3,6.8-0.9,8.5-1.7v0.6c0,4.5,0.3,12.8-0.9,20.5c-7.7-3.4-16.5-6.5-26.7-8.5
				c-2.8-0.6-5.1-1.1-6.8-1.7c-0.6-0.3-1.1-0.3-1.7-0.6C1716.9,361.1,1716.9,359.9,1716.9,359.6z M2003,394.9
				c-4.5,0.9-27,6.3-51.2,27.6c-19.3,17.1-41.8,30.1-63.1,36.4c-1.1,0.3-3.7,1.1-7.1,1.7c-4.8,1.1-9.7,1.7-14.5,2
				c-5.4,0.3-11.1,0.3-16.5-0.6h-1.1c-0.3,0-0.9,0-1.1-0.3l-2.3-0.3c-2.6-0.3-5.1-0.9-7.7-1.7l-1.7-0.6c-23.9-6.5-46.3-22.5-65.1-37
				c-24.2-18.8-47.2-26.2-51.2-27.6c-8.5-20.5-6.8-29-5.1-32.1c0-0.3,0.3-0.3,0.3-0.6c0.6,0.6,1.1,1.1,2.3,1.7
				c0.6,0.3,1.4,0.9,2.3,1.1c2.3,0.9,6,2,10.8,3.1c6.3,1.4,11.9,3.1,17.1,4.8c2,0.9,4,1.4,6,2.3c1.7,0.6,3.4,1.4,5.1,2.3
				c17.1,7.7,26.7,15.9,26.7,15.9c41.8,38.7,74.5,38.4,75.9,38.4h0.3c3.7,0,35.8-1.1,75.9-38.1c0,0,9.7-9.4,26.7-17.1
				c0.3-0.3,0.9-0.3,1.4-0.6c1.4-0.6,2.8-1.1,4.5-1.7c6.5-2.6,13.9-4.5,22.5-6c5.7-0.9,9.7-2,12.2-3.1c0.9-0.3,1.7-0.9,2.3-1.1
				c1.1-0.6,1.7-1.1,2.3-1.7c0,0.3,0.3,0.6,0.3,0.9C2010.4,366.5,2010.1,375.6,2003,394.9L2003,394.9z"/>
		</g>
		<g>
			<defs>
				<rect id="SVGID_00000025414288816824634430000002013377258693017769_" x="1633.3" y="31.2" width="452.1" height="514.7"/>
			</defs>
			<clipPath id="SVGID_00000029731369244321443590000013315967745677725074_">
				<use xlink:href="#SVGID_00000025414288816824634430000002013377258693017769_"  style="overflow:visible;"/>
			</clipPath>
			<path style="clip-path:url(#SVGID_00000029731369244321443590000013315967745677725074_);fill:#FFFFFF;" d="M1859.1,362.2
				c1.7-3.1-1.1-6-1.1-5.4c0.3,0.9-1.4,1.1-1.4,1.1c-1.7,0.3-5.4-0.9-5.4-0.9c-12.5-2.3-8.5,13.4-7.7,16.8c0.6,2-0.9,6.5-8,6
				c-5.4-0.6-5.7,2.3-5.7,2.3c2.6-2,4.3-0.6,4.3-0.6c-2.8,0.3-3.7,3.4-3.7,3.4c2.8-2.6,5.4-0.9,5.4-0.9c-2.3,0.6-2.3,3.7-2.3,3.7
				c1.7-2.3,3.4-1.1,3.4-1.1s3.4,1.4,4.3-2.3c0.3-1.1,2.3,0.6,2.3,0.6c-0.3-1.4,0.3-2.8,0.6-3.4c0.3-0.6,2.6,1.7,2.6,1.7
				c1.1-1.1,0.6-2.6,0.6-2.8c0-0.6-0.9-2.6-0.3-3.7c1.7-2.3,4,1.7,4,1.7c0.6-3.1-2.6-9.1-2.8-9.4c-1.4-1.7-2-5.7,4.3-0.9
				c2.3,2,5.1,0.9,5.1,0.9C1856.6,365.9,1859.1,362.2,1859.1,362.2z"/>
		</g>
		<g>
			<defs>
				<rect id="SVGID_00000166637772563174394630000005151131010575700910_" x="1633.3" y="31.2" width="452.1" height="514.7"/>
			</defs>
			<clipPath id="SVGID_00000180362841076047440870000010485494503060387216_">
				<use xlink:href="#SVGID_00000166637772563174394630000005151131010575700910_"  style="overflow:visible;"/>
			</clipPath>
			<path style="clip-path:url(#SVGID_00000180362841076047440870000010485494503060387216_);fill:#FFFFFF;" d="M1851.2,327.5
				c0,0,1.1,1.4,0,3.4c0,0,3.4,0.9,5.1-0.9c0,0-0.9,2.3,0.6,4.8c0,0,2.6-1.4,3.1-3.1c0,0,1.1,0.3,2,2.3c0.9,2,1.7,2.3,1.7,2.3
				s0-2.8,2-3.4c0,0,2.3,2.8,5.4,1.7c0,0-5.1-2.8,0-4c0,0-3.7-1.1-3.4-2.8c0,0-2,3.1-6.3,2.3c0,0,1.1-1.4,0.6-3.1c0,0-3.4,2-6.3,0.6
				c0,0,0-3.1,2-4.3c0,0-4.5-0.6-6,0.9c0,0-0.9-2,0.6-3.7c0,0-4.3,1.4-5.4,8.2C1846.6,328.9,1849.7,329.2,1851.2,327.5L1851.2,327.5
				z"/>
		</g>
		<g>
			<defs>
				<rect id="SVGID_00000016757570370602526020000017998331377140632718_" x="1633.3" y="31.2" width="452.1" height="514.7"/>
			</defs>
			<clipPath id="SVGID_00000090982964636216751420000001188905310141047733_">
				<use xlink:href="#SVGID_00000016757570370602526020000017998331377140632718_"  style="overflow:visible;"/>
			</clipPath>
			<path style="clip-path:url(#SVGID_00000090982964636216751420000001188905310141047733_);fill:#FFFFFF;" d="M1823,344.6
				c0,0-4,3.1-0.9,6.5c0,0,0.3-4.3,2.8-3.1c0,0-4.3,3.1,0,5.7c0,0-0.3-4.3,3.1-3.4c2,0.6,3.4-2,3.4-2s2.3-1.4,3.7,0.6
				c1.4,2.3,3.4,2.6,3.7,2.8c0,0-1.4-2,0-2.8c0,0,2.3,2.3,4,2.3c0,0-2-2.3,0-2.6c0,0,1.1,0,1.4,1.1c0.3,1.4,3.7,2,4,2
				c0,0-2-1.7-0.9-3.4V348c1.1-1.7,2.3-1.1,2.3-1.1c4.3-1.1,4-5.7,4-6.8c0.3,0,0.6,0.3,0.6,0.6c0.6,1.4,0.9,4.8-4,7.7
				c0,0,0.3,4,6.8,6.8c0,0-0.9-5.1,3.1,2.3c0,0,1.4,2.8-0.3,5.7c-1.4,2.8-3.1,7.7,2.3,10.8c5.4,3.4,8.8,7.1,6.3,16.8
				c0,0-1.7,3.4-5.1,2.6c-3.4-0.9-4.8-2.3-7.7,1.4c0,0,3.4-1.7,5.4,0.6c0,0-4-1.1-5.4,4c0,0,4-2.3,5.7-0.6c0,0-2.3,0.6-2.3,3.4
				c0,0,2.3-1.7,4-0.9c2.8,1.1,3.4-0.6,4.3-2c0.9-1.4,2.8,0.6,5.7,0c0,0-4-3.1-1.7-4.5c1.4-0.9,4,0.9,5.1-0.6c0,0-5.1-2-2.6-5.4
				c1.1-1.4,3.1,0.3,4.3-0.6c0,0-3.4-1.1-2.8-4.3c0.3-2,1.1-1.7,1.7-1.4c0.6,0.3,2,0.6,2.8,0c0,0-1.4-0.3-1.7-2c-0.3-1.7,0-4-2-5.4
				c-1.1-0.9-2-0.9-2-3.7c0-3.4,1.4-3.7,2.3-4c0.9,0,2.8-0.3,4-1.1c0,0,7.4-4.5,3.4-13.9c-4-9.4-6-10-5.4-17.3s2.3-10.8,4-13.4
				c1.1-2,3.7-3.4,5.4-3.7c0,0,4.3-0.9,3.7,4.3c0,0,0,1.4-2.6,3.4c-2.6,2.3-3.4,4.5-3.4,4.5s2.8-2,3.4-1.4c0.6,0.6,0.3,1.4-0.9,2.8
				c-1.1,1.1-2.6,4-2.3,6.3c0,0,0.9-1.4,2-1.4c0,0-0.6,4.5,2.3,6.3c0,0-0.9-5.1,1.1-8c1.4-2,4.8-8.5,2.8-13.1c0,0,0-6-3.7-6.5
				c0,0,0.6,1.1,0.3,0.9c-0.3-0.3-11.7-1.1-13.9,16.8c0,0.9-0.6,3.4-0.6,3.4s-0.3,4.5-3.1,1.1c0,0-0.3,3.7,3.4,6
				c3.7,2.6-3.4,2.3-4.8-0.3c0,0,0,2.8,3.7,4.5c3.7,1.4,3.1,3.4-2.8,2c0,0,1.7,2.6,6.5,2.6c4.8,0,5.1,7.4,3.4,9.1
				c-2.6,2.3-4,2-5.1,1.7c-1.4-0.3-2,0-2,0s-2.8-2.8-3.4-5.4c-0.3-2-4.3-5.4-4.3-5.4s-2.3-2.8-1.4-8.5c0.9-5.7,1.1-7.4,0.9-8.2
				c0,0-1.4-0.3-2-1.1c0,0-0.9,2.3-0.9,3.7c0,0-2.8-0.6-4-2.8c-0.9-2.3-1.7-1.7-1.7-1.7s-1.7,2.3-3.7,2.8c0,0-0.9-0.3-0.9-2.6v-1.4
				v-0.9c0,0-3.1,0.9-5.1,0c0,0,0.6-1.4,0-2.3c0,0-1.4,0.9-4.3,0.3c0,0-0.6-2.6,2-6.5c0,0,0.3-1.1-1.1-3.7
				c-1.4-2.3-3.7-7.4-1.7-10.8c1.4-2.3,0.9-5.4-1.1-6.5c-1.7-1.1-2.8-1.1-5.4-0.3c0,0,3.4-0.3,3.4,2.6c0,0-3.7-3.7-6.8,0
				c0,0,4.3-0.6,3.4,2.8c0,0-3.1-4.3-6.3,0.9c0,0,4.3-0.6,4.3,3.1c-0.3,2.6,3.1,3.4,3.1,3.4s0.9,7.4-3.4,7.1c0,0,2.6,1.7,3.7,1.4
				c0,0,0.3,2.8-2.3,3.1c0,0,1.4,1.4,3.4,1.4c0,0,0.3,0.9-0.9,1.4c-1.4,0.9-1.4,3.1-1.4,3.4c0,0,1.4-1.1,3.7,0s5.1,0.3,5.7,0
				c0,0,0.6-0.3,1.1-0.3c-0.3,0.3-0.6,0.9-1.1,1.7c-0.9,1.1-2,2.6-3.1,4c-3.1,3.1-8.5,6.3-16.5,2.6c-2-0.9-5.4-1.1-6.8,0.3
				c-1.4,1.4-2,3.1-0.6,5.1C1820.4,347.1,1820.4,344,1823,344.6L1823,344.6z"/>
		</g>
		<g>
			<defs>
				<rect id="SVGID_00000083780251686509732670000011218698350930864063_" x="1633.3" y="31.2" width="452.1" height="514.7"/>
			</defs>
			<clipPath id="SVGID_00000140702896728970052420000002518979637723610256_">
				<use xlink:href="#SVGID_00000083780251686509732670000011218698350930864063_"  style="overflow:visible;"/>
			</clipPath>
			<path style="clip-path:url(#SVGID_00000140702896728970052420000002518979637723610256_);fill:#FFFFFF;" d="M1860.3,322.7
				c-2.6,1.1-2.3,3.7-2.3,3.7c4-0.3,4.8-2,4.8-2c2.3,0.6,0.9,3.7,0.6,4h0.6c0.9,0,2.6-0.9,4.3-3.1c0,0.6,0.6,4.3,6.3,4
				c0,0-3.7-1.7-2.8-4v-0.3c2.3,2.3,5.4-0.6,5.4-0.6c-3.1,0-3.4-1.7-3.4-2.6c3.7,2.3,5.7-1.4,5.1-2c0,0-6.5,2.6-1.1-9.1
				c0.6-1.4,2.6-3.7,0.6-5.7c-2-2-2.8-5.4-0.6-7.1c0,0-2.6-1.1-6,1.1c-1.7,1.1-3.1,0.6-3.1,0.6s-2.8-1.4-5.4-0.3
				c-2,0.9-2.6,2-2.8,2.6c-1.4-0.6-4,1.1-4.3,1.1c-0.3,0,0,1.1-0.3,1.7c-0.3,0.6-0.6,2.6,2,2.6c2.6-0.3,4.3-0.9,4.3-0.9
				s0.6,0.6,0.9,2c0.3,1.7,1.1,4.3-2.3,4.5l0.9,0.9c0.9,0.6,3.7,0.6,4-1.1c0.6-1.4,1.4-1.7,1.4-1.7s1.4,4-4.3,4.5
				c-5.7,0.6-9.1,2.6-10.2,6.8C1859.1,320.7,1860.3,322.7,1860.3,322.7z M1865.7,303.1c-1.1,0.9-2.3,0.6-3.7-0.9
				c1.4-1.7,3.4-2.3,6.3-0.3C1868.2,301.9,1866.8,302.2,1865.7,303.1z"/>
		</g>
		<g>
			<defs>
				<rect id="SVGID_00000080206541978236242470000007630571127375920289_" x="1633.3" y="31.2" width="452.1" height="514.7"/>
			</defs>
			<clipPath id="SVGID_00000106850921818975703110000010660753430669554357_">
				<use xlink:href="#SVGID_00000080206541978236242470000007630571127375920289_"  style="overflow:visible;"/>
			</clipPath>
			<path style="clip-path:url(#SVGID_00000106850921818975703110000010660753430669554357_);fill:#FFFFFF;" d="M1804.8,264.1
				l-9.1-15.4l-9.4,15.6l9.4,17.6L1804.8,264.1z"/>
		</g>
		<g>
			<defs>
				<rect id="SVGID_00000072255262185810536200000012956760913579805871_" x="1633.3" y="31.2" width="452.1" height="514.7"/>
			</defs>
			<clipPath id="SVGID_00000163770404767691055440000011740105028077941174_">
				<use xlink:href="#SVGID_00000072255262185810536200000012956760913579805871_"  style="overflow:visible;"/>
			</clipPath>
			<path style="clip-path:url(#SVGID_00000163770404767691055440000011740105028077941174_);fill:#FFFFFF;" d="M1936.7,264.1
				l-9.4-15.4l-9.4,15.6l9.7,17.6L1936.7,264.1z"/>
		</g>
		<g>
			<defs>
				<rect id="SVGID_00000146466263578820178070000002885434041872632192_" x="1633.3" y="31.2" width="452.1" height="514.7"/>
			</defs>
			<clipPath id="SVGID_00000058588048938837087950000004758864008636952972_">
				<use xlink:href="#SVGID_00000146466263578820178070000002885434041872632192_"  style="overflow:visible;"/>
			</clipPath>
			<path style="clip-path:url(#SVGID_00000058588048938837087950000004758864008636952972_);fill:#FFFFFF;" d="M1859.7,417.4h1.1
				c53.5-10.5,95.8-58.6,96.4-109.5v-126H1912c2.8-1.1,5.1-4,5.1-7.4c0-4.3-3.4-8-8-8h-11.1c-4.5-0.6-5.4-5.1-5.4-5.1
				c-5.4,5.7-10.8-3.1-10.8-3.1l-9.4,3.1l-2.3-4.3c1.1-2.3,2.6-4.5,4-5.7c2.6-2.3,3.4-2.6,3.4-2.6c-1.1-2.6-1.7-4.8-1.7-5.7
				c0.3-0.3,2.3-1.1,4.3-2c0.9-0.3,1.7-0.6,2.6-0.9h1.4l-1.1-1.1c0.3,0,0.9,0.6,1.1,0.6c0.6,0.3,1.1,0.6,1.7,0.6s1.4,0,1.1-0.6
				c0.3,0,0.9,0.3,1.1,0.3h1.1c0.3-0.3,0.6-0.3,0.9-0.6c0.3-0.3,0.6-0.3,0.9-0.6c0-0.3,0.3-0.3,0.3-0.6c0-0.3,0-0.6-0.3-0.6
				c-0.6-0.6-1.1-0.6-1.7-0.9l-2-0.6c-0.6-0.3-0.9-0.3-1.4-0.6c-1.4-0.6,0,0,0.6,0h1.4c0.6,0,0.9-0.3,1.4-0.3l1.4-0.6
				c0,0-1.4,0.6-4.5-1.7c-1.1-0.9-1.7-2-2.6-2.8c-1.7-2-3.4-4-5.4-5.7c-2-1.7-4-3.4-6.3-4.5c-2-1.1-4.3-2-6.8-2h-0.3
				c0-0.3-0.6-4.8,2-10.5c1.4-3.1,1.7-6.3,0.3-8.8c-1.1-2-2.8-3.1-4.8-3.7c-0.3,0-3.7-0.6-7.7,2.3c-1.1,0.6-2.3,1.1-3.4,1.7
				c3.4-4,10.8-8,12.2-8.2v-0.3c-0.3,0-5.1,0.3-8.2,2.3c0.6-1.1,1.1-3.1,0.6-6.3v-0.3h-0.3c0,0-7.4,1.7-7.4,11.9c0,0,0,1.4-0.6,3.1
				c-0.9,0.6-1.1,1.1-1.1,1.1c0.3-0.3,0.6-0.3,0.9-0.3c-0.3,0.6-0.6,1.4-1.1,2c-1.7,2.3-3.1,6.3-3.1,9.7v0.3l0.3-0.3
				c0,0,2.8-2,3.4-4.5c0.3-1.1,1.1-2,1.4-2.6c0.3,1.1,0.6,3.7,0.6,4.3v0.3h0.3c0.6-0.6,2.8-3.7,0.6-8c-0.3-0.6-0.3-1.4-0.3-2.3
				c3.7-0.9,6.3,0.6,7.4,1.1c0.6,0.6,1.1,1.1,1.4,2c0.6,1.7,0.3,3.7-0.9,5.7c-0.9,2-2,3.4-2.8,4.8c-2.3,3.7-4,6.3-3.4,11.9
				c0.9,6.5,5.1,9.7,7.7,10.8c1.4,1.4,2.3,3.7,2.8,4.8c0.9,1.7,0,1.4,0,1.4c-4.8,0.3-6.5-2.3-10-3.7c-0.9-0.3-1.7-0.6-2.6-0.6
				c-2-0.9-4.8-0.9-7.4,0c-4.8,1.4-8,5.4-6.8,8.8c0.3,1.1,1.1,2.3,2.6,2.8c1.1,0.6,2.6,0.9,4.3,0.9c1.1,0,2.6-0.3,4-0.6
				c4-1.4,6.8-4.3,7.1-7.1c1.7,0.6,6.5,4.3,10.2,5.7c4,1.7,5.4-2.8,5.4-2.8c1.1,2-1.7,8.5-3.4,12.2l-1.7,1.1l-0.9-4.3l-4,5.4
				c-1.4-0.6-5.7-5.7-5.7-5.7c-0.6,5.4-2.3,6.8-2.8,7.1l-9.4-6.3c0,4.3-4.3,6.8-6.5,6.8l-6.3-3.1c0.6,4.5-3.1,5.4-4.3,5.4h-10.8
				c-4.3,0-8,3.4-8,8c0,3.4,2,6.3,5.1,7.4h-46.3v126C1763.9,358.8,1806.2,406.8,1859.7,417.4L1859.7,417.4z M1902.6,170h0.3
				c5.1-1.1,8.5,0.6,8.5,0.6c1.7,0.9,2.3,2,2,3.1c-0.3,2.3-3.4,4.8-3.7,3.4c-0.6-3.1-4-4.5-4-4.5S1901.2,170.3,1902.6,170z
				 M1910.3,203.5c0-0.3,0.3-0.9,0.3-1.1c-1.7-3.1-3.1-5.7-3.7-6.5c-0.3-0.3-0.3-0.3-0.6-0.6c-0.9-1.1-1.4-1.7-0.9-2
				c0.3-0.3,0.9,0,1.4,0c0,0,2,1.1,4.3,5.1c0.3,0.3,0.3,0.6,0.6,1.1c1.4-3.1,3.1-5.1,5.1-5.1c2,0,3.7,2,5.1,5.1
				c0.3-0.6,0.6-1.1,0.9-1.4c2.3-4,4.3-5.1,4.3-5.1c0.3-0.3,0.9-0.6,1.4,0c0.3,0.6,0,0.9-0.9,2l-0.6,0.6c-0.9,0.9-2.3,3.4-4,6.8
				c0.3,0.3,0.3,0.3,0.6,0.9c9.1-1.7,16.2-1.4,16.8,0.9c0.6,1.7-4.5,4.3-9.1,6.8c4.5,2.6,9.7,5.1,9.1,6.8c-0.9,2.6-7.4,2.8-16.5,1.1
				l-0.3,2v0.6l0.6,0.9c0,0,2.6,4.5,4.3,6.3c0.6,0.6,0.3,0.9,0.3,0.9c0,0.3-0.3,0.3-0.6,0.3c-0.3,0-0.9-0.3-1.7-0.6
				c-0.6-0.3-1.7-2-3.4-4.8c-0.3,0.6-0.3,1.4-0.6,2c-1.4,3.7-3.1,5.7-5.4,5.7s-4.5-2.8-5.7-7.4c-1.4,2.6-2.6,4.3-3.1,4.5
				c-0.9,0.6-1.4,0.6-1.7,0.6c-0.3,0-0.3,0-0.6-0.3c0,0-0.3-0.6,0.3-0.9c1.7-2,4.3-6.3,4.3-6.5c0,0,0.3-0.3,0.3-0.9
				c0,0-0.3-2-0.3-2.6c-8.8,1.7-15.6,1.4-16.2-1.1c-0.6-1.7,4-4.5,8.8-7.1c-1.4-0.6-2.6-1.4-3.7-2c-3.1-1.7-5.4-3.4-5.1-4.5
				C1894.1,202.1,1900.9,201.8,1910.3,203.5z M1858.3,98c0,0,1.1-1.7,4.3,0C1862.5,98,1861.4,100.3,1858.3,98z M1860,121.1
				c0,10.5,9.7,14.2,10,14.5c-0.3-0.3-0.6-0.9-0.6-1.1c1.1,0.6,2.3,1.1,3.4,1.4c0.6,0.3,1.1,0.3,1.7,0.6h0.3
				c-0.3-0.3-0.6-0.9-0.6-1.1c0.9,0.6,1.7,0.9,2.6,0.9c0.3,0,0.9,0,1.1-0.3l0.6-0.3c0.3,0,0.6-0.3,0.9-0.3c0,0.3-0.3,0.6-0.3,0.9
				l-0.6,0.6c-0.6,0.3-1.1,0.6-1.7,0.6c-0.3,0-0.6,0-0.9-0.3c-0.3,0.3-0.9,0.3-1.4,0.3s-1.4,0-2-0.3c-0.6-0.3-0.9-0.3-1.4-0.6
				C1868.2,136.7,1857.1,132.7,1860,121.1L1860,121.1z M1864.5,166.8c8.5-3.1,19.1,1.4,19.1,1.4c3.4,1.4,5.4,2.8,7.1,4.3
				c0.6,0.6,0.9,0.9,1.1,1.1c1.1,1.1,3.1,2.8,4.8,3.1c1.4,0.3-1.1,3.1-5.1,1.1c-0.3-0.3-0.9-0.6-1.4-1.1c-4-3.1-7.4-3.1-7.4-3.1
				c-3.7-0.3-2.8,2-2.8,2c2,4-3.1,2.8-5.7,0c-4-4.3-7.7-5.7-10-6.8C1861.7,168,1863.4,167.1,1864.5,166.8z M1865.9,226.6
				c0.3,0.3,1.1,2-0.3,5.4c0,0-4.5,2.6-11.1,0.3c0-0.3,0-4.8-0.3-5.7c-0.3-0.9-2.8-2.6-2.8-2.6c0-0.3-2.6-15.9-0.6-22.2
				c0,0,0-5.1,1.7-5.7c1.1-0.3,0.9,5.4,0.9,5.4v6.5c-2.3,1.7-0.6,2-0.6,2c7.1-1.1,10.8-1.4,12.5-1.1h0.6c1.1,0.3,1.1,0.9,1.1,0.9
				s0.3,1.4-4.8,2.3c0,0-2.8,0.6-3.4,1.7c-0.6,1.1-0.9,4.8,0.6,7.1c0,0,0.9-0.3,0.6-1.4c-0.3-1.1,0-4,0.9-4.5
				c0.9-0.9,8.2-1.7,8.2-3.7c0,0-0.9-3.4,0.9-7.1c1.4-2.6,3.1,0.9,2.8,5.4c0,0-0.3,7.1-0.3,8.5c0,1.4-0.9,6-5.7,6.8
				c0,0-1.7,0.6-2,1.4C1864.5,226.3,1865.7,226.3,1865.9,226.6L1865.9,226.6z M1858.3,204.4c0,1.4,0,2.3-0.3,2.8
				c-1.1,0-2,0.3-2.8,0.3c-0.6-2.6-0.6-5.7-0.6-5.7l0.3-5.4c0-0.3,0-3.4,1.7-3.4c1.4,0,1.4,3.7,1.4,3.7S1858,200.7,1858.3,204.4z
				 M1864.8,199.5c0-2.6,0-6,1.7-6c1.1,0,1.1,2.3,1.1,3.7v6c-0.6,0.9-0.9,3.4-0.9,4c-0.6-0.3-1.1-0.3-2-0.3
				C1864.5,206.4,1864.8,202.1,1864.8,199.5L1864.8,199.5z M1861.1,191h0.3c2.3,0.6,2,13.9,1.4,15.6c-0.9,0-1.7,0-2.6,0.3
				c-0.3-0.6-0.3-1.1-0.3-2c0-1.4,0-10.2,0.3-12.2C1860,191.3,1860.8,191,1861.1,191L1861.1,191z M1833.8,168
				c7.7-2.8,17.1,1.4,17.1,1.4c7.7,3.4,8.8,7.1,8.8,7.1s1.1,4-3.1,0.9c-3.4-2.6-6-2-6-2c-2.6,0-3.1,6.3-8.5,0.9
				c-3.7-3.7-7.1-5.1-9.1-6.3C1831,168.8,1832.7,168.6,1833.8,168z M1812.2,170.5c3.4-2.3,7.7-0.9,9.4,1.7c3.7,5.4,8.5,6.3,6.3,6.5
				c-1.4,0.3-5.7-1.1-7.7-2.8c-2.6-2.3-6.5-0.6-3.7,1.7c0.3,0.3-0.3,0.6-0.9,0.6C1810.2,178.2,1808.5,173.1,1812.2,170.5
				L1812.2,170.5z M1782.9,204.7c0.9-2.6,7.7-2.8,17.1-0.9c0-0.3,0.3-0.9,0.3-1.1c-1.7-3.1-3.1-5.7-3.7-6.5l-0.6-0.6
				c-0.9-1.1-1.4-1.7-0.9-2c0.3-0.3,0.9,0,1.4,0c0,0,2,1.1,4.3,5.1c0.3,0.3,0.3,0.6,0.6,1.1c1.4-3.1,3.1-5.1,5.1-5.1
				c2,0,3.7,2,5.1,5.1c0.3-0.6,0.6-1.1,0.9-1.4c2.3-4,4.3-5.1,4.3-5.1c0.3-0.3,0.9-0.6,1.4,0c0.3,0.6,0,0.9-0.9,2
				c-0.3,0.3-0.3,0.3-0.6,0.6c-0.9,0.9-2.3,3.4-4,6.8c0.3,0.3,0.3,0.3,0.6,0.9c9.1-1.7,16.2-1.4,16.8,0.9c0.6,1.7-4.5,4.3-9.1,6.8
				c4.5,2.6,9.7,5.1,9.1,6.8c-0.9,2.6-7.4,2.8-16.5,1.1l-0.3,2v0.6l0.6,0.9c0,0,2.6,4.5,4.3,6.3c0.6,0.6,0.3,0.9,0.3,0.9
				c0,0.3-0.3,0.3-0.6,0.3c-0.3,0-0.9-0.3-1.7-0.6c-0.6-0.3-1.7-2-3.4-4.8c-0.3,0.6-0.3,1.4-0.6,2c-1.4,3.7-3.1,5.7-5.4,5.7
				s-4.5-2.8-5.7-7.4c-1.4,2.6-2.6,4.3-3.1,4.5c-0.9,0.6-1.4,0.6-1.7,0.6c-0.3,0-0.3,0-0.6-0.3c0,0-0.3-0.6,0.3-0.9
				c1.7-2,4.3-6.3,4.3-6.5c0,0,0.3-0.3,0.3-0.9c0,0-0.3-2-0.3-2.6c-8.8,1.7-15.6,1.4-16.2-1.1c-0.6-1.7,4-4.5,8.8-7.1
				c-1.4-0.6-2.6-1.4-3.7-2C1784.9,207.5,1782.3,205.8,1782.9,204.7L1782.9,204.7z M1772.1,324.7c-0.3-0.9-0.3-2-0.6-2.8
				c0-0.6,0-0.9-0.3-1.4c-0.3-1.1-0.3-2.3-0.6-3.4v-0.9c0-1.1-0.3-2.6-0.3-3.7v-0.3c0-1.4,0-2.8-0.3-4.3v-67.7h180.3v72.5
				c0,1.1-0.3,2.3-0.3,3.4c0,0.6,0,0.9-0.3,1.4c0,0.9-0.3,1.7-0.3,2.3c0,0.9-0.3,1.7-0.6,2.8c0,0.6-0.3,0.9-0.3,1.4
				c-0.3,1.4-0.6,3.1-1.1,4.5h-4.8v-13.9h-12.8v-11.4h-12.2V290h-11.1V278h-11.9v-10.2h-12.5l-0.3-13.4h-12.5l-7.7-10.2l-6.5,10.2
				h-13.9v12.5h-14.8v11.9h-12.8v11.4h-12.5v12.8h-12.8v11.1h-9.1v11.7h-6.3C1772.4,325.5,1772.4,325.2,1772.1,324.7L1772.1,324.7z
				 M1790,364.2c-0.3-0.3-0.3-0.6-0.6-0.9c-0.6-0.9-1.1-1.7-1.7-2.3c0,0,0-0.3-0.3-0.3c-1.7-2.6-3.4-5.4-4.8-8
				c0-0.3-0.3-0.3-0.3-0.6c-1.4-2.8-2.8-5.7-4.3-8.8h11.7v-12.5h11.9v-12.8h13.6v-12.8h12.5v-12.5h13.4V280h12.8v-11.9h14.2v12.5
				h11.4v12.5h12.2v12.5h12.5v12.2h12.2v13.1h15.6v14.5h10c-0.6,0.9-0.9,2-1.4,2.8v0.3c-1.4,2.8-2.8,5.7-4.5,8.2c0,0,0,0.3-0.3,0.3
				c-0.6,0.9-1.1,1.7-1.7,2.6c-1.7,2.6-3.7,5.4-5.4,7.7c-0.3,0.3-0.3,0.3-0.6,0.6l-5.7,6.8c-0.3,0.3-0.3,0.6-0.6,0.6
				c-0.6,0.6-1.1,1.4-1.7,2c-0.3,0.3-0.6,0.6-0.9,0.9c-2,2-4,3.7-6,5.7c-0.6,0.3-0.9,0.9-1.4,1.1c-0.6,0.6-1.1,0.9-1.7,1.4
				c-0.6,0.3-1.1,0.9-1.4,1.1c-0.9,0.6-1.4,1.1-2.3,1.7c-0.9,0.6-1.4,1.1-2.3,1.7c-0.6,0.3-1.1,0.9-1.4,1.1c-0.6,0.6-1.4,0.9-2,1.4
				c-0.6,0.3-1.1,0.6-1.4,0.9c-0.9,0.6-2,1.1-2.8,1.7c-0.6,0.3-0.9,0.6-1.4,0.9c-0.9,0.6-1.7,1.1-2.8,1.4c-0.6,0.3-0.9,0.6-1.4,0.9
				c-0.9,0.6-1.7,0.9-2.6,1.4c-0.3,0.3-0.9,0.3-1.1,0.6c-1.1,0.6-2.6,1.1-3.7,1.7c-0.3,0.3-0.6,0.3-0.9,0.3c-0.9,0.3-2,0.9-2.8,1.1
				c-0.3,0.3-0.9,0.3-1.1,0.6c-1.1,0.3-2,0.9-3.1,1.1c-0.3,0-0.6,0.3-0.9,0.3c-1.4,0.6-2.6,0.9-4,1.4c-0.3,0-0.9,0.3-1.1,0.3
				c-1.1,0.3-2,0.6-3.1,0.9c-0.3,0-0.9,0.3-1.1,0.3c-1.4,0.3-2.8,0.6-4.3,0.9c-1.4-0.3-2.8-0.6-4.3-0.9c-0.3,0-0.9-0.3-1.1-0.3
				c-1.1-0.3-2-0.6-3.1-0.9c-0.3,0-0.9-0.3-1.1-0.3c-1.4-0.3-2.6-0.9-4-1.4c-0.3,0-0.3,0-0.6-0.3c-1.1-0.3-2.3-0.9-3.4-1.4
				c-0.3-0.3-0.9-0.3-1.1-0.6c-0.9-0.3-2-0.9-2.8-1.1c-0.3-0.3-0.9-0.3-1.1-0.6c-1.1-0.6-2.6-1.1-3.7-1.7c-0.3-0.3-0.6-0.3-0.9-0.6
				c-0.9-0.6-2-0.9-2.8-1.4c-0.6-0.3-0.9-0.6-1.4-0.9c-0.9-0.6-1.7-0.9-2.3-1.4c-0.6-0.3-0.9-0.6-1.4-0.9c-1.1-0.6-2.3-1.4-3.4-2
				c-0.6-0.3-0.9-0.6-1.4-0.9c-0.6-0.6-1.4-0.9-2-1.4c-1.6-1.4-3.3-2.3-4.8-3.7C1806,380,1795.9,372.4,1790,364.2L1790,364.2z"/>
		</g>
		<g>
			<defs>
				<rect id="SVGID_00000138534186468174292020000015157209763260642435_" x="1633.3" y="31.2" width="452.1" height="514.7"/>
			</defs>
			<clipPath id="SVGID_00000176761978202823119400000015816903083543721626_">
				<use xlink:href="#SVGID_00000138534186468174292020000015157209763260642435_"  style="overflow:visible;"/>
			</clipPath>
			<path style="clip-path:url(#SVGID_00000176761978202823119400000015816903083543721626_);fill:#FFFFFF;" d="M1810.8,220.3
				c0-0.6,0.3-1.4,0.3-1.4c-1.7-0.3-3.1-0.9-4.8-1.1c-1.7,0.6-3.4,0.9-5.1,1.1c0,0,0,0.9,0.3,1.4
				C1802,220.6,1805.7,221.7,1810.8,220.3z"/>
		</g>
		<g>
			<defs>
				<rect id="SVGID_00000141427942033855713100000009171277806416579763_" x="1633.3" y="31.2" width="452.1" height="514.7"/>
			</defs>
			<clipPath id="SVGID_00000032639363116925401230000006791724657532945588_">
				<use xlink:href="#SVGID_00000141427942033855713100000009171277806416579763_"  style="overflow:visible;"/>
			</clipPath>
			<path style="clip-path:url(#SVGID_00000032639363116925401230000006791724657532945588_);fill:#FFFFFF;" d="M1809.6,202.1
				c0-0.3,0-0.6-0.3-0.6c-0.9-2.8-2.3-4-3.4-4s-2.6,1.1-3.4,4c0,0.3-0.3,0.6-0.3,0.9C1805.4,201,1807.9,201.5,1809.6,202.1z"/>
		</g>
		<g>
			<defs>
				<rect id="SVGID_00000173860917167855230650000007069801249786126267_" x="1633.3" y="31.2" width="452.1" height="514.7"/>
			</defs>
			<clipPath id="SVGID_00000098203516405144938140000011061775834341313687_">
				<use xlink:href="#SVGID_00000173860917167855230650000007069801249786126267_"  style="overflow:visible;"/>
			</clipPath>
			<path style="clip-path:url(#SVGID_00000098203516405144938140000011061775834341313687_);fill:#FFFFFF;" d="M1801.4,221.7
				c0.3,1.7,0.3,1.7,0.9,2.6c0.6,0.3,3.4,1.1,7.7,0c0.3-0.6,0.6-1.7,0.6-2.6c-1.7,0.6-3.4,0.6-4.8,0.6
				C1803.7,222.3,1802.2,222,1801.4,221.7L1801.4,221.7z"/>
		</g>
		<g>
			<defs>
				<rect id="SVGID_00000047058095116983662640000016495249697177021331_" x="1633.3" y="31.2" width="452.1" height="514.7"/>
			</defs>
			<clipPath id="SVGID_00000132078855913810566470000006401115918733648549_">
				<use xlink:href="#SVGID_00000047058095116983662640000016495249697177021331_"  style="overflow:visible;"/>
			</clipPath>
			<path style="clip-path:url(#SVGID_00000132078855913810566470000006401115918733648549_);fill:#FFFFFF;" d="M1913.1,226
				c0.3,0.9,0.9,1.7,1.1,2c2,0.6,2.3,0.6,4.5,0c0.6-0.6,0.6-1.1,1.1-2.3c-1.4,0.3-2.3,0.3-3.4,0.3
				C1915.1,226.3,1913.7,226.3,1913.1,226L1913.1,226z"/>
		</g>
		<g>
			<defs>
				<rect id="SVGID_00000001643988490803629780000008320114693626497175_" x="1633.3" y="31.2" width="452.1" height="514.7"/>
			</defs>
			<clipPath id="SVGID_00000075159461644540205300000018379331185137493688_">
				<use xlink:href="#SVGID_00000001643988490803629780000008320114693626497175_"  style="overflow:visible;"/>
			</clipPath>
			<path style="clip-path:url(#SVGID_00000075159461644540205300000018379331185137493688_);fill:#FFFFFF;" d="M1802.8,226
				c0.3,0.9,0.9,1.7,1.1,2c2,0.6,2.3,0.6,4.5,0c0.6-0.6,0.6-1.1,1.1-2.3c-1.4,0.3-2.3,0.3-3.4,0.3
				C1804.8,226.3,1803.4,226.3,1802.8,226L1802.8,226z"/>
		</g>
		<g>
			<defs>
				<rect id="SVGID_00000093858012739044851930000009615718915947777980_" x="1633.3" y="31.2" width="452.1" height="514.7"/>
			</defs>
			<clipPath id="SVGID_00000137134554293661764270000015899985486637051792_">
				<use xlink:href="#SVGID_00000093858012739044851930000009615718915947777980_"  style="overflow:visible;"/>
			</clipPath>
			<path style="clip-path:url(#SVGID_00000137134554293661764270000015899985486637051792_);fill:#FFFFFF;" d="M1921.1,220.3
				c0-0.6,0.3-1.4,0.3-1.4c-1.7-0.3-3.1-0.9-4.8-1.1c-1.7,0.6-3.4,0.9-5.1,1.1c0,0,0,0.9,0.3,1.4
				C1912.3,220.6,1916,221.7,1921.1,220.3z"/>
		</g>
		<g>
			<defs>
				<rect id="SVGID_00000041996183336965637980000002968225063915989925_" x="1633.3" y="31.2" width="452.1" height="514.7"/>
			</defs>
			<clipPath id="SVGID_00000128446370157263711950000011191227341663504022_">
				<use xlink:href="#SVGID_00000041996183336965637980000002968225063915989925_"  style="overflow:visible;"/>
			</clipPath>
			<path style="clip-path:url(#SVGID_00000128446370157263711950000011191227341663504022_);fill:#FFFFFF;" d="M1911.7,221.7
				c0.3,1.7,0.3,1.7,0.9,2.6c0.6,0.3,3.4,1.1,7.7,0c0.3-0.6,0.6-1.7,0.6-2.6c-1.7,0.6-3.4,0.6-4.8,0.6
				C1914.3,222.3,1912.9,222,1911.7,221.7L1911.7,221.7z"/>
		</g>
		<g>
			<defs>
				<rect id="SVGID_00000006708343378398832750000012505006428787037113_" x="1633.3" y="31.2" width="452.1" height="514.7"/>
			</defs>
			<clipPath id="SVGID_00000171682055393716253710000009028777986608472508_">
				<use xlink:href="#SVGID_00000006708343378398832750000012505006428787037113_"  style="overflow:visible;"/>
			</clipPath>
			<path style="clip-path:url(#SVGID_00000171682055393716253710000009028777986608472508_);fill:#FFFFFF;" d="M1920,202.1
				c0-0.3,0-0.6-0.3-0.6c-0.9-2.8-2.3-4-3.4-4s-2.6,1.1-3.4,4c0,0.3-0.3,0.6-0.3,0.9C1915.7,201,1918.6,201.5,1920,202.1L1920,202.1
				z"/>
		</g>
	</g>
</g>
</svg>
