<?xml version="1.0" encoding="utf-8"?>
<!-- Generator: Adobe Illustrator 27.4.0, SVG Export Plug-In . SVG Version: 6.00 Build 0)  -->
<svg version="1.1" id="Layer_1" xmlns="http://www.w3.org/2000/svg" xmlns:xlink="http://www.w3.org/1999/xlink" x="0px" y="0px" viewBox="0 0 370.82581 523.91028" style="enable-background:new 0 0 370.82581 523.91028;" xml:space="preserve" class="h5acv055f53f89f00" >
<style type="text/css">.h5acv055f53f89f00 .st0{fill:#FFFFFF;} .h5acv055f53f89f00 .st1{fill:#95BFE5;} .h5acv055f53f89f00 .st2{fill:#670E36;} .h5acv055f53f89f00 .st3{fill:#FFE505;} </style>
<g>
	<path class="st0" d="M0,0v396.50943c0,60.88303,71.76379,80.81796,124.16675,95.37378
		c10.49182,2.91559,20.40173,5.66821,28.95227,8.49115c0.07776,0.02588,8.12439,2.7749,14.88184,7.22052
		c6.10901,4.01953,12.36987,10.82504,12.4292,10.88803l4.97168,5.42737l4.99036-5.42365
		c0.06287-0.06671,6.32385-6.87222,12.43286-10.89175c6.75366-4.44562,14.80029-7.19464,14.8374-7.20569
		c8.59119-2.83777,18.50488-5.59039,28.99292-8.50232c52.40308-14.55948,124.17053-34.49442,124.17053-95.37744V0H0z"/>
	<path class="st1" d="M357.32959,396.50943c0,50.62839-63.36523,68.22946-114.28638,82.37399
		c-10.651,2.95999-20.71289,5.75333-29.64502,8.70236c-0.39636,0.13324-9.73596,3.30457-17.99377,8.73566
		c-3.67505,2.42297-7.25366,5.50891-9.99524,8.07251c-2.73779-2.5636-6.31653-5.64954-9.99524-8.07251
		c-8.25049-5.43109-17.59363-8.60242-18.02344-8.74677c-8.89868-2.93793-18.96069-5.73126-29.61536-8.69125
		c-50.91736-14.14453-114.28259-31.74933-114.28259-82.37399V13.49404h343.83704V396.50943z"/>
	<polygon class="st0" points="56.13733,165.00476 67.09583,159.161 78.04688,165.00476 75.95007,152.60806 84.81909,143.84055 
		72.56775,142.03603 67.09583,130.76335 61.61658,142.03603 49.3689,143.84055 58.23425,152.60806 	"/>
	<path class="st2" d="M185.50183,32.83694c-3.36768,0.23381-6.84631,0.35014-10.78809,0.35014
		c-4.41235,0-8.81726-0.11634-14.27051-0.35014c-1.38928,0.5817-1.38928,3.01601-0.46313,3.94557l3.71216,0.81238
		c2.78589,0.69576,3.71204,1.15778,3.71204,1.97202c0,0.6939-0.34814,1.97202-1.15955,4.17486
		c-1.39294,3.94438-6.38318,16.93792-9.28027,24.245l-4.40857,10.9037c-1.39294,3.48135-3.24902,7.42348-4.17517,9.39703
		l-3.82703-9.74485l-10.21008-26.09888c-2.78601-6.96119-4.64209-11.83321-4.64209-12.76052
		c0-1.04472,0.81506-1.74048,2.90088-2.20577l3.47864-0.69497c0.7002-1.04364,0.81506-3.24755-0.11487-3.94557
		c-7.07593,0.23381-12.06238,0.35014-17.39722,0.35014c-6.03491,0-9.86194-0.23341-15.77832-0.35014
		c-1.04468,0.5817-1.39294,2.67039-0.4668,3.94557l4.64197,1.16027c3.71216,0.92617,4.29382,1.15998,8.69861,12.29517
		L134.4585,97.4514c1.62256,3.94551,3.59729,10.09273,4.87537,13.22502c0.69275,0.58055,1.73743,0.92844,3.13037,0.92844
		c1.74121,0,3.13049-0.34789,4.05676-0.92844c2.67102-6.49617,5.68677-15.65934,11.60315-29.69646l8.46887-20.06767
		c3.94556-9.39804,6.84253-15.89207,9.39514-19.72119c1.50781-2.43845,3.48242-3.24834,6.72778-3.82991l3.01917-0.57869
		C186.54285,36.08675,186.43176,33.30155,185.50183,32.83694"/>
	<path class="st2" d="M236.77112,33.18668h-25.95508c-5.5719,0-11.37341-0.11634-16.35999-0.34975
		c-1.27808,0.46501-1.27808,3.36575-0.2334,4.06152l2.31921,0.34601c5.22363,0.81425,5.92004,1.85789,5.92004,12.64746v43.15274
		c0,10.78737-0.69641,11.59946-5.92004,12.4115l-3.82703,0.58163c-0.92615,0.69577-0.92615,3.36389,0,4.0596
		c6.96118-0.23335,12.7627-0.34782,18.1012-0.34782c5.56445,0,11.24744,0.11447,18.44202,0.34782
		c0.81128-0.69571,0.81128-3.36383,0-4.0596l-4.29382-0.58163c-5.21985-0.69576-5.91638-1.62413-5.91638-12.4115V77.3834
		c0-3.13161,0.11865-3.48129,3.24902-3.48129h10.52881c6.14978,0,7.42419,0.93058,8.58374,6.49696l0.578,2.78666
		c0.81494,1.04359,3.71204,0.92618,4.40857-0.11633c-0.22974-3.4813-0.3446-7.77249-0.3446-12.06696
		c0-4.40747,0.11487-8.69793,0.3446-12.41145c-0.69653-1.04404-3.59363-1.15925-4.40857-0.11561l-0.578,2.78333
		c-1.15955,5.68413-2.43396,6.49617-8.58374,6.49617h-10.52881c-3.13037,0-3.24902-0.34602-3.24902-3.48016V43.27827
		c0-4.52562,0-4.75536,3.83069-4.75536h10.64355c5.91272,0,9.39514,1.39153,11.36609,3.82698
		c1.16321,1.50819,2.08948,4.2934,3.36755,9.04982c1.38928,0.92765,3.94177,0.81136,4.40491-0.46416
		c-0.22974-7.77136-0.22974-16.12548-0.22974-18.09864C250.80823,33.07035,244.19165,33.18668,236.77112,33.18668"/>
	<path class="st2" d="M333.80469,88.28705c-3.13049,7.88809-9.62476,17.98155-23.66187,17.98155
		c-13.92224,0-27.25928-12.41376-27.25928-35.49658c0-23.08587,13.80383-34.10477,26.67761-34.10477
		c11.25122,0,18.67908,5.79934,21.80957,16.5867c0.81128,1.04585,3.94543,0.58169,4.40869-0.81017
		c-1.0448-6.72958-1.39307-16.00914-1.39307-18.09858c-3.47876-0.2308-12.0625-3.01601-23.89539-3.01601
		c-12.0625,0-23.89526,3.4813-32.13086,10.32536c-8.00586,6.61143-14.03711,16.58856-14.03711,30.73976
		c0,14.38494,6.37952,24.01419,14.72998,30.3941c8.23547,6.14948,19.83496,8.81538,31.20459,8.81538
		c9.05066,0,17.28613-2.55177,23.54712-4.29152c1.62634-2.66779,3.59729-9.62931,4.40857-18.21085
		C337.52051,87.70768,334.73462,87.35986,333.80469,88.28705"/>
	<path class="st2" d="M106.3175,105.34023c-4.29004-0.69611-5.33484-3.36389-7.77246-10.32314L82.77039,49.54224
		c-2.90076-8.23592-4.2937-12.52824-5.22351-15.89207c-0.46313-1.74155-1.15588-2.32098-2.66382-2.32098
		c-0.21484,0-3.83423,4.75456-8.71338,6.5384l-2.8822,7.69985c-0.3927,1.08915-0.84473,2.27547-1.34485,3.59136l-1.41895,3.78768
		c-0.00745,0.02742-0.01843,0.05037-0.02588,0.07665L49.93945,81.32665c-3.13049,8.35418-5.33484,13.91971-7.30945,18.56207
		c-1.97095,4.5238-4.29004,5.45152-7.07227,5.79939l-3.13416,0.34969c-0.8114,0.92651-0.92993,3.36389,0.34827,4.05772
		c5.33472,0,8.00208-0.34782,11.94763-0.34782c4.8717,0.11821,9.04688,0.11821,13.11084,0.34782
		c1.15967-0.57936,0.92627-3.24748,0.22974-4.05772l-3.48242-0.58124c-3.24524-0.58049-4.75317-1.27666-4.75317-1.97235
		c0-0.92737,0.11499-1.85796,0.8114-4.17599l4.52344-13.45736c0.69653-2.20283,1.04468-2.31911,3.83069-2.31911H72.7937
		c4.0603,0,4.98657,0.23149,5.56812,2.08944l3.13049,9.9752c1.39307,4.29233,2.20435,7.07571,2.20435,7.88782
		c0,0.69569-0.46313,1.50809-3.13049,1.97235L76.854,106.0378c-1.27808,0.92651-1.04468,3.36389,0.22974,4.05772
		c5.3385-0.22961,9.86194-0.34782,15.65967-0.34782c6.03503,0,12.2998,0.11821,17.86414,0.34782
		c1.04468-0.69383,0.81506-3.48016,0.11853-4.05772L106.3175,105.34023z M72.21204,77.3834H61.30908
		c-2.90076,0-3.47876-0.34788-2.43762-3.48129l2.90076-8.69788c1.74121-5.33704,4.06042-11.6024,4.98645-14.26826
		c1.0448,2.43505,3.13416,8.69861,4.75684,13.68697l3.01562,9.39658C75.46106,77.03551,74.88306,77.3834,72.21204,77.3834"/>
	<path class="st3" d="M147.97681,167.79924c-2.04492,2.045-1.7782,4.59679-3.61206,6.43138
		c-0.73352,0.73132-1.80786,1.30849-3.16382,1.30849c-2.6748,0-4.46777-2.17728-4.46777-4.47011
		c0-2.29691,2.60803-4.32669,9.85083-4.32669c0.84827,0,1.8634,0.03928,2.83398,0.10413
		C148.99939,166.97092,148.47705,167.30171,147.97681,167.79924 M325.85815,221.99202c-2.04871,0-3.18604,0.34082-3.18604,0.34082
		s13.69995-13.45035,13.69995-34.46669c0-9.55887-2.26355-13.23801-2.64514-13.23801c-0.71875,0-0.72986,5.69006-5.13098,10.08939
		c-3.18604,3.18672-8.19104,3.51352-10.97717,6.30098c2.68982-5.76491,0.75586-13.57889,0.37793-13.57889
		s-0.17041,4.11516-5.34961,9.2925c-3.30078,3.30019-10.96216,5.69008-17.21936,11.94876
		c2.65259-6.10686,0.34082-12.55565-0.22974-12.55565c-0.56677,0-0.03711,3.6796-3.60083,7.24574
		c-3.31958,3.31827-9.7323,4.98798-14.53003,9.78629c-6.64612,6.64548-5.46069,16.72679-5.46069,20.34991
		c0,0.32607,0.01477,0.67429,0.04077,1.03737c-0.91504,0.66689-1.85974,1.41148-2.80811,2.23759
		c-7.53174,6.5833-11.5105,15.26341-11.5105,25.10307c0,18.74953,12.14392,31.43074,22.86157,42.61888
		c4.73462,4.94946,9.20996,9.61737,12.45898,14.51135c3.34534,5.03839,4.90137,9.60992,4.90137,14.38159
		c0,4.63095-1.54858,9.10251-4.24561,12.26636c-3.03052,3.55646-7.27612,5.36438-12.6145,5.36438
		c-9.20996,0-15.98218-3.4455-23.15076-7.08707c-3.66748-1.86349-7.33899-3.8381-11.29187-5.3645
		c-2.04492-20.25354-16.59705-32.47534-16.59705-51.43604c0-10.31387,4.58643-16.04877,2.86743-23.28401
		c3.3009,3.29713,9.01721,4.46413,10.89551,4.46413c1.62646,0,2.6637-0.58536,3.20081-1.02618
		c0.11121-0.09259,0.10742-0.26303-0.01111-0.34821c-0.94836-0.68542-4.6123-3.67509-4.6123-9.12096
		c0-6.26102,2.33398-11.0401,2.33398-17.24176s-3.44177-9.92853-4.09741-10.58432c2.81555,2.81934,7.79468,4.49753,10.24341,4.49753
		c2.16736,0,3.3269-0.33342,4.01978-0.86688c0.12585-0.09637,0.11475-0.28897-0.02234-0.37054
		c-1.19653-0.73347-5.99048-3.96773-5.99048-8.94688c0-5.69029,1.59302-6.77176,1.59302-10.7543
		c0-3.98294-1.8783-6.88486-1.8783-6.88486s2.6748,1.59311,5.8053,1.59311c3.52307,0,5.53479-0.8718,6.81665-1.95615
		c0.15564-0.13036,0.07031-0.38118-0.1333-0.39638c-8.88403-0.67355-7.66882-20.88084-16.04517-28.31546
		c0,0,0.8855,0.19905,2.21912,0.19905c2.85999,0,6.42407-2.47592,7.67236-4.80911c0.07788-0.14749-0.01843-0.32753-0.18518-0.33568
		c-16.03394-0.8195-21.1427-36.34125-57.30066-29.19267c1.88953-2.66998,5.34229-4.89395,6.5907-5.64444
		c0.16675-0.10118,0.14453-0.34789-0.03699-0.41866c-1.62634-0.6272-5.07544-1.95908-13.16272-1.95908
		c-8.25049,0-15.90808,4.39934-20.24622,10.07011c1.95239-3.90396-0.43726-8.89386-2.63416-11.32449
		c-0.12219-0.13455-0.34827-0.07852-0.38904,0.09813c-0.24072,1.03177-1.14465,3.16162-2.49316,4.51306
		c-6.5166,6.51404-18.20862,10.69624-18.20862,24.23874c0,0-3.81213,2.44664-8.99133,5.97429
		c-5.17542,3.52754-7.96509,9.07504-7.96509,10.80952c-1.9635,1.03879-10.1842,7.06152-16.74524,13.61519
		c-0.15186,0.15297-0.17419,0.39044-0.05188,0.5705c0.71875,1.07512,1.2262,2.45952,1.48926,3.27603
		c0.1001,0.31233,0.48914,0.41464,0.72986,0.19113c0.8855-0.8242,2.66003-2.40912,3.45276-2.65993
		c-1.47815,1.47964-1.95972,3.24342-1.95972,5.48666c0,4.91953,10.95105,11.85017,11.63635,11.16454
		c0.47424-0.47241-1.28918-5.51889,0.36682-7.17752c2.45251-2.4536,11.15112-2.76932,13.84448-2.76932
		s4.08264,1.03444,4.08264,2.88638c0,4.63309-2.63416,13.21988-10.99561,13.21988c-3.37866,0-5.58301-3.2657-6.13501-2.71667
		c-0.54834,0.55014-0.11841,5.38661,0.98547,7.03743c0,0-0.94092,1.09662-0.94092,3.42313
		c0,5.98312,9.89148,13.64441,10.90283,12.63306c0.67798-0.67796-2.04126-7.4353-0.31116-7.4353
		c0.93359,0,3.58984,3.87141,6.63147,3.87141c0.14062,0,0.2074-0.04449,0.24438-0.07779
		c0.48901-0.49277-1.92639-3.89362-0.62976-5.19034c3.33423-3.33421,11.99585-9.85379,14.21497-10.56798
		c4.60132-1.47853,7.02405,1.8671,7.02405,6.37424c0,10.03236-10.62878,12.07368-19.32373,20.77234
		c-8.69861,8.69495-10.41016,21.06123-21.35022,21.06123c-1.42627,0,8.09119-2.63777,10.80298-12.12926
		c-28.56323,0.21494-33.40894-15.74126-56.27441-18.79762c-0.04822-0.35568-0.22595-0.70395-0.50012-0.9892
		c-0.6001-0.61493-8.6134-7.64648-8.6134-23.49373c0-3.18599-2.16724-5.63225-5.42737-5.63225l0,0
		c-1.00403-2.23024-3.74927-6.75218-9.46558-6.75218c-5.42371,0-6.8092,2.52251-6.48694,2.84517
		c0.32239,0.32239,2.64148-0.54529,5.47192,2.28362c1.61523,1.616,2.27466,3.48729,2.54138,4.79503
		c-0.66687,0.81612-1.07068,1.78825-1.07068,2.91562c0,0-2.81555-0.53912-5.53857,2.01973
		c-1.18542-0.68864-3.18225-1.46925-6.14612-1.46925c-7.83533,0-9.46167,7.07452-9.1394,7.3972
		c0.32227,0.32159,1.70422-1.25218,4.13074-1.25218c2.7489,0,5.63489,2.17943,7.16492,3.53607
		c-0.17419,1.81158,0.18152,3.52318,1.38928,4.7346c0,0-3.76025,1.14105-4.40125,6.4314
		c-0.16675,0.03708-0.34827,0.08151-0.54822,0.13708c-10.41028,2.91928-8.43201,11.03259-8.0022,11.03259
		c0.42969,0,0.96692-3.4899,5.74597-3.4899c1.66345,0,3.00818,0.19644,4.05298,0.45206
		c1.84119,3.56763,5.19397,4.43817,7.59094,4.43817c2.1709,0,4.17517-0.47043,5.93481-0.47043
		c2.37854,0,3.83069,1.43738,3.83069,4.77902c0,4.89764-4.70483,3.42688-6.81287,5.53491
		c-1.42261,1.42624-1.64124,2.73029-1.64124,4.66415c0,0.07779,0,0.16299,0.00745,0.24823
		c-0.64099,0.19632-1.3374,0.32227-2.05615,0.32227c-3.24536,0-5.09387-2.93042-5.52002-2.50436
		c-0.57056,0.57056,1.36707,9.90266,7.96509,9.90266c2.31177,0,3.89734-0.62973,4.98291-1.44485
		c0.54456,0.12234,1.14099,0.19266,1.78931,0.19266c6.65735,0,8.16895-8.02434,16.45264-8.02434
		c8.20959,0,24.16199,11.42531,26.41455,25.68471c0.02954,0.1741,0.2334,0.25555,0.37048,0.14444
		c3.62317-2.94525,3.41565-7.39453,3.41565-7.39453c6.71655,5.49033,9.55066,8.01324,15.20044,13.60733
		c0,0-32.86816,25.255-34.5835,26.25894c-1.47815,0.87057-2.17834,1.24472-4.00098,1.24472
		c-4.6272,0-6.08691-7.76868-13.44446-7.76868c-1.42627,0-2.45984,0.42599-3.36755,1.08914
		c-0.72974-0.15192-1.68188-0.25189-2.9303-0.25189c-8.68762,0-10.28064,11.68097-9.44702,11.68097
		c0.83728,0,1.44482-2.99713,5.57922-2.99713c0.52979,0,1.07812,0.06665,1.62268,0.1778
		c0.01111,2.23758,0.86682,4.33817,2.31909,5.46066c0,0-2.35986,0.87808-3.71204,3.66394
		c-10.35095,0.34094-10.11755,12.51077-9.14697,12.51077c0.72241,0,1.14111-5.08276,7.0946-5.08276
		c0.45935,0,0.98914,0.1778,1.52625,0.44461c1.05957,4.52335,4.17517,7.03149,7.854,7.03149
		c-0.91138,1.70413-0.76318,4.43076,0.22595,6.80923c-2.40063,5.01245,1.87463,11.90314,2.98975,11.90314
		c0.82617,0-0.18896-4.3974,1.71155-7.28708c0.40015,0.09634,0.82239,0.15195,1.25964,0.15195
		c5.3866,0,7.65393-4.52731,7.65393-4.52731s0.31482,4.79764,5.08289,5.28674c1.00757,4.24557,3.74536,7.86139,4.63818,7.86139
		c0.61865,0-0.578-5.80542,1.18542-9.50629c6.78345-6.78329,1.45972-15.59686,8.50977-22.64691
		c8.12073-8.11697,28.08899-15.37082,44.49719-16.03763c5.93115,6.68701,14.16296,16.77487,17.953,19.39038
		c0,0-0.16675,0.19638-0.39648,0.42233c-10.11743,10.11752-28.95947,1.25217-38.85864,11.15125
		c-3.92688,3.92691-4.46033,7.5502-10.00269,7.5502c-1.9115,0-3.66394-0.96326-4.45667-1.7005
		c-0.12231-0.11487-0.32227-0.05936-0.37048,0.10367c-0.35925,1.16699-0.6261,5.10516,2.36731,8.10223
		c3.41565,3.41199,7.63904,2.78598,8.75049,2.19684c-2.73401,3.69-8.72827,3.50095-12.20691,1.48196
		c-0.17419-0.10379-0.38538,0.05923-0.3335,0.25189c2.76746,10.55084,13.6925,8.55786,13.6925,8.55786
		c2.27844,11.33264,13.48889,16.04865,13.48889,23.62866c0,2.11157-0.88916,4.5307-2.66736,6.30899
		c-4.2605,4.26038-13.66675,7.07227-23.91016,7.07227c-16.50073,0-16.72681-11.70676-25.7218-11.70676
		c-1.17065,0-2.30798,0.14066-3.39343,0.41107c-1.28918-1.48535-4.1012-3.17117-7.63916-3.17117
		c-5.49036,0-8.67639,6.22015-7.93542,6.96112c0.45935,0.4632,2.04871-1.5004,4.51978-1.5004
		c1.21143,0,2.73401,1.05225,3.36755,2.69702c-0.43713,0.55206-0.82996,1.14108-1.1781,1.75601
		c-0.93726-0.24817-2.08582-0.38892-3.47131-0.38892c-10.33984,0-10.15466,11.94397-9.07654,11.94397
		c0.6261,0,1.98572-4.43079,6.99072-3.87509c-0.9928,1.84488-1.55591,3.9566-1.55591,6.20148
		c0,0.33353,0.01111,0.66693,0.03699,0.99673c-2.34875,1.36697-4.2085,3.95276-4.2085,6.88696
		c0,4.31973,0.82239,6.52029,1.47449,6.52029c0.74829,0,1.45593-4.99017,5.24585-6.63516
		c1.71887,2.33398,4.18994,4.0752,7.05371,4.86807c-0.34448,1.4892-0.67053,3.74539-0.67053,6.95364
		c0,3.99744,1.24854,9.36172,2.08569,9.36172c0.76697,0,1.26709-6.19788,3.96033-8.60217
		c1.14844,1.10388,2.50073,2.00046,3.98999,2.63028c1.43738,0.65201,3.13794,1.0336,5.1311,1.0336
		c0.12219,0,0.24438,0,0.36292-0.00363c13.80017-0.21866,22.60254-12.86652,32.97192-12.86652
		c5.79041,0,5.89417,5.4162,3.78247,7.75027c15.68213,0,20.16467-11.93658,29.72656-11.93658
		c4.8606,0,9.20984,2.57852,13.64807,2.54153c2.87854-0.02225,6.51294-0.96698,8.54675-5.14957
		c0.07422-0.15195-0.03699-0.33353-0.2074-0.32968c-7.32788,0.07767-10.42139-3.38611-10.99561-5.54971
		c13.1073,5.30133,16.94897-2.91565,17.7085-5.07181c0.06665-0.1889-0.11853-0.36304-0.30005-0.28897
		c-0.52246,0.21494-1.44482,0.51511-2.5155,0.51511c-7.07605,0-14.71887-7.1539-14.71887-17.05273
		c0-9.37302,6.50928-14.67432,12.69238-16.38602c4.88647-13.82968,11.75867-16.61182,9.10242-25.24756
		c0,0-0.03333-0.07043,0.02222-0.08514c0.01489-0.00372,0.02966,0.00735,0.04077,0.01843
		c0.75208,0.91882,2.14502,4.67157,2.14502,6.73151c0,9.11728-8.75781,14.36319-8.75781,28.81512
		c0,16.32303,12.70703,15.67825,12.70703,26.58865c0,4.37149-1.65601,6.84634-2.29688,7.63913
		c-0.10742,0.13702-0.02966,0.33713,0.14075,0.36304c1.55969,0.24091,7.49829,0.42599,13.26282-9.06912
		c7.57983,3.92697,5.54602,10.52518,4.96436,12.0256c-0.05933,0.14798,0.05554,0.311,0.21484,0.30365
		c9.87683-0.3075,13.06274-13.7149,13.06274-13.7149c8.72461-0.95206,15.60059,2.05249,15.60059,5.72009
		c0,9.44333-17.64551,27.15552-30.57129,27.15552c-4.80505,0-6.47949-5.0087-10.6991-5.0087
		c-3.03418,0-4.53833,1.46704-5.46082,3.33792c-1.68933-0.72604-3.41565-1.11136-5.06433-1.11136
		c-4.10474,0-7.71692,2.30786-8.96912,7.37231c-5.54578,1.83008-6.69434,10.43973-6.13489,10.99924
		c0.43335,0.43335,3.14526-4.13083,7.70215-3.03415c0.80017,1.29657,1.72253,2.34506,2.45239,3.07114
		c-0.90393,0.48172-1.91907,1.13373-2.97119,2.18201c-5.44592,5.44977-4.07507,11.54398-3.54907,12.07013
		c0.56311,0.56305,1.55225-2.11917,3.06384-3.63449c1.19287-1.18903,2.93774-2.45609,5.17908-2.28943
		c1.86353,3.52686,5.87207,4.42352,8.43567,4.42352c-0.31482,3.16745-0.27405,8.50223,0.51489,9.28766
		c0.578,0.58157,3.04907-4.56046,6.79443-7.25757c1.96362,1.22983,4.45312,2.36359,6.95752,2.36359
		c7.20935,0,13.61841-3.37503,18.81616-8.57266c7.57605-7.57242,12.7738-19.72012,19.1792-19.72012
		c4.03821,0,3.24902,3.67136,3.12671,4.11963c10.3584,0,5.94983-12.65158,25.64404-32.34943
		c2.41174-2.40814,5.21252-4.50491,5.58667-6.89453c0.02966-0.19266-0.18164-0.3334-0.3446-0.22601
		c-1.72998,1.10403-6.14966,1.44479-8.12805-0.53702c0,0,15.94507-7.92822,16.38953-19.77576
		c0.00745-0.19263-0.21484-0.30762-0.3667-0.18903c-4.30115,3.39359-12.2699,2.60815-12.2699,2.60815
		c3.7157-2.99344,6.46094-11.49194,2.61914-19.52747c-0.08521-0.18146-0.34082-0.1741-0.41858,0.00735
		c-3.7085,8.76169-11.24011,11.76248-18.10498,11.76248c-9.82849,0-18.15295-7.90958-18.15295-18.71616
		c0-9.24319,2.99341-13.40353,4.21594-21.65778c2.09692,0.91153,4.25293,2.00436,6.54993,3.17499
		c7.67615,3.90118,16.37109,8.32074,28.30762,8.32074c4.44556,0,8.57275-0.85571,12.2699-2.54504
		c3.47876-1.59299,6.50928-3.88626,9.00623-6.81665c4.49011-5.26813,6.96484-12.24774,6.96484-19.64612
		c0-15.33377-10.4325-26.22556-20.52417-36.76175c-4.99011-5.21246-10.15454-10.60275-13.87402-16.39328
		c-3.9751-6.18677-5.82385-12.01801-5.82385-18.3568c0-6.4314,3.56018-13.12576,8.43933-17.50842
		c0,0,10.86963,6.04977,23.34705,6.04977s19.95728-9.16171,19.95728-9.16171c5.74963-5.74597,11.89197-4.83466,12.51819-5.46072
		C333.59717,225.17795,330.34448,221.99202,325.85815,221.99202"/>
</g>
</svg>
