<svg width="47" height="54" viewBox="0 0 47 54" fill="none" xmlns="http://www.w3.org/2000/svg">
<g clip-path="url(#clip0_310_2)">
<path d="M23.1016 53.9258C16.9406 52.7749 11.1829 49.6228 6.88863 45.0501C2.50611 40.3833 0.0597216 34.6663 0.000109611 28.952L0 0H47L46.9999 28.9444C46.9403 34.6635 44.4938 40.3833 40.1113 45.0501C35.8169 49.6228 30.0592 52.775 23.8988 53.9257L23.4999 54L23.1016 53.9258Z" fill="#5F0041"/>
<path d="M23.6942 15.7038H23.7097C23.7097 15.7038 23.7032 15.7033 23.6942 15.7038Z" fill="white"/>
<path d="M1.44828 1.44824L1.44834 28.9367C1.50415 34.2868 3.81116 39.6571 7.94436 44.0583C12.0295 48.4084 17.5068 51.407 23.367 52.5017L23.4999 52.5265L23.6329 52.5017C29.4932 51.407 34.9703 48.4084 39.0556 44.0583C43.1887 39.6571 45.4958 34.2868 45.5517 28.9291V1.44824H1.44828ZM44.1034 28.9216C43.9966 39.1541 34.9577 48.8509 23.4999 51.0527C12.0421 48.8509 3.00338 39.1541 2.8966 28.9291V2.89668H44.1034V28.9216Z" fill="white"/>
<path d="M10.6068 37.9939C10.7518 37.9759 10.8655 37.9192 10.9294 37.7569C10.9947 37.5923 10.9994 37.3173 10.5769 37.1495L9.69777 36.8003L9.0602 38.4106L9.97063 38.7723C10.254 38.8848 10.5987 38.8285 10.7264 38.506C10.82 38.2693 10.7309 38.1006 10.6068 37.9939ZM10.2507 38.2624C10.2014 38.3864 10.1001 38.3799 9.99651 38.3389L9.70667 38.2237L9.82539 37.9238L10.1356 38.0469C10.2527 38.0934 10.288 38.1677 10.2507 38.2624ZM10.426 37.6615C10.3851 37.765 10.3083 37.7684 10.205 37.7274L9.94426 37.6239L10.0406 37.3802L10.3013 37.484C10.4024 37.5238 10.4585 37.5801 10.426 37.6615Z" fill="white"/>
<path d="M11.805 37.6725L11.3227 37.4478L10.8734 38.4108C10.6701 38.8462 10.8094 39.1657 11.2872 39.3884C11.7651 39.6115 12.0974 39.5119 12.3005 39.0765L12.7498 38.1133L12.2676 37.8883L11.8682 38.7437C11.7935 38.9043 11.7 39.1044 11.472 38.9982C11.2374 38.8887 11.3311 38.6886 11.4058 38.5279L11.805 37.6725Z" fill="white"/>
<path d="M12.585 40.0003L12.8869 39.4773L13.1319 39.6184C13.314 39.7235 13.2406 39.88 13.1708 40.0303C13.1323 40.1116 13.0956 40.1942 13.0753 40.2829L13.536 40.5489C13.5339 40.4553 13.6348 40.2755 13.671 40.1983C13.762 40.0017 13.7647 39.8184 13.667 39.6974C13.8525 39.729 14.0182 39.6062 14.1078 39.4505C14.2712 39.167 14.129 38.8916 13.8669 38.7406L12.9896 38.2344L12.1244 39.7345L12.585 40.0003ZM13.2444 38.8572L13.4599 38.9817C13.6359 39.0831 13.6569 39.1682 13.6024 39.2625C13.5247 39.3971 13.3991 39.3441 13.3131 39.2947L13.0722 39.1557L13.2444 38.8572Z" fill="white"/>
<path d="M13.9583 40.8814L14.5551 40.1465L14.5589 40.1498L14.373 41.2186L14.7746 41.5455L15.8676 40.2005L15.4772 39.8828L14.8926 40.6025L14.8885 40.5995L15.0831 39.5622L14.6605 39.2188L13.5679 40.5637L13.9583 40.8814Z" fill="white"/>
<path d="M15.9685 42.488L16.2402 42.1367L15.6351 41.6687L16.4232 40.6497L16.002 40.3237L14.9417 41.6939L15.9685 42.488Z" fill="white"/>
<path d="M17.3159 43.4113L17.5644 43.0434L16.7994 42.5257L16.9201 42.3468L17.5953 42.8034L17.8265 42.4616L17.1515 42.0052L17.2722 41.8263L18.0154 42.3288L18.1629 42.1108L18.1633 43.1628L17.8535 43.7208L18.319 43.9788L18.6286 43.4209L19.7009 42.764L19.191 42.4812L18.6191 42.894L18.677 42.1963L18.261 41.9658L18.2641 41.9611L17.0804 41.1602L16.1101 42.5953L17.3159 43.4113Z" fill="white"/>
<path d="M20.1102 44.7796L20.3322 44.1577L20.9819 44.3891L21.1205 44.0005L20.4708 43.7688L20.5436 43.5653L21.3002 43.835L21.4497 43.4166L20.1912 42.9683L19.6086 44.6007L20.1102 44.7796Z" fill="white"/>
<path d="M21.2074 44.2618C21.1053 44.7809 21.3763 45.2205 21.8914 45.3222C22.4065 45.424 22.8243 45.1207 22.9265 44.6016C23.0287 44.0825 22.7577 43.6429 22.2426 43.541C21.7273 43.4394 21.3097 43.7427 21.2074 44.2618ZM21.7298 44.3651C21.8045 43.9866 22.026 43.9386 22.1588 43.9649C22.2917 43.9912 22.4787 44.1196 22.404 44.4983C22.3295 44.8768 22.108 44.9247 21.9749 44.8985C21.8419 44.8722 21.6552 44.7438 21.7298 44.3651Z" fill="white"/>
<path d="M23.8756 45.5347C24.4012 45.5446 24.7588 45.1728 24.7687 44.6435C24.7788 44.1145 24.4349 43.7293 23.9097 43.7194C23.3847 43.7095 23.0265 44.0816 23.0166 44.6106C23.0069 45.1396 23.3507 45.5248 23.8756 45.5347ZM23.9017 44.1514C24.0372 44.1542 24.2435 44.2478 24.2364 44.6336C24.229 45.0195 24.0192 45.1052 23.8837 45.1027C23.7484 45.1002 23.5418 45.0063 23.5492 44.6207C23.5563 44.2346 23.7664 44.1489 23.9017 44.1514Z" fill="white"/>
<path d="M25.2468 44.1337L25.4587 45.4038L25.9843 45.3167L25.7722 44.0468L26.2499 43.9675L26.177 43.5298L24.6961 43.7753L24.7692 44.2128L25.2468 44.1337Z" fill="white"/>
<path d="M27.7356 44.8122C28.0227 44.7094 28.2444 44.4392 28.1273 44.1126C28.0411 43.8731 27.8627 43.8055 27.6988 43.8074C27.796 43.6981 27.8435 43.5804 27.7843 43.416C27.725 43.2496 27.5468 43.0401 27.119 43.1936L26.2289 43.5123L26.814 45.1427L27.7356 44.8122ZM27.6093 44.2442C27.6543 44.3698 27.5736 44.4323 27.4691 44.4696L27.1752 44.575L27.0662 44.2712L27.3804 44.1587C27.4989 44.1163 27.5745 44.1485 27.6093 44.2442ZM27.1333 43.6264C27.2351 43.5898 27.3142 43.5949 27.3437 43.6772C27.3813 43.7823 27.3264 43.8355 27.2215 43.8731L26.9574 43.9678L26.8691 43.7212L27.1333 43.6264Z" fill="white"/>
<path d="M28.7783 44.3585L28.7313 44.1036L29.217 43.8477L29.3964 44.0326L29.8844 43.7756L28.5206 42.5361L28.0605 42.7786L28.3053 44.6077L28.7783 44.3585ZM28.5639 43.1686L28.9498 43.5688L28.661 43.7209L28.5598 43.1709L28.5639 43.1686Z" fill="white"/>
<path d="M31.0486 42.9896L30.8035 42.6194L30.1661 43.0419L29.454 41.9673L29.01 42.2617L29.9677 43.7069L31.0486 42.9896Z" fill="white"/>
<path d="M32.2192 42.1103L31.9523 41.7553L31.3416 42.2145L30.5684 41.1846L30.1428 41.5043L31.183 42.8894L32.2192 42.1103Z" fill="white"/>
<path d="M33.5233 41.1274C33.9192 40.8128 33.9097 40.3462 33.6923 40.0729L33.2831 40.3981C33.3597 40.5447 33.3832 40.6872 33.243 40.7987C33.0478 40.9536 32.8345 40.8135 32.6895 40.6311C32.5448 40.449 32.4562 40.2096 32.6515 40.0544C32.8237 39.9175 32.9807 40.0374 33.0275 40.0807L33.433 39.7584C33.1269 39.4473 32.767 39.4145 32.394 39.7077C31.9772 40.039 31.9332 40.5355 32.2725 40.9626C32.5913 41.363 33.0851 41.4753 33.5233 41.1274Z" fill="white"/>
<path d="M35.2198 39.7523L34.9508 39.3992L34.3431 39.863L33.5623 38.8384L33.1393 39.1611L34.1894 40.5388L35.2198 39.7523Z" fill="white"/>
<path d="M35.9527 39.3328C36.4055 39.0625 36.5097 38.7322 36.2637 38.3195L35.7187 37.4067L35.262 37.6797L35.7457 38.4901C35.8363 38.6422 35.9495 38.8317 35.7335 38.9608C35.5115 39.0934 35.398 38.9036 35.3072 38.7517L34.8236 37.9413L34.3669 38.214L34.9114 39.1265C35.1576 39.5389 35.5002 39.603 35.9527 39.3328Z" fill="white"/>
<path d="M37.5996 38.5388C37.8868 38.4355 38.1082 38.1649 37.9911 37.8385C37.9051 37.5988 37.7267 37.5315 37.563 37.5335C37.6598 37.4241 37.7075 37.3063 37.6485 37.1419C37.5888 36.9752 37.4108 36.766 36.9829 36.9199L36.0926 37.2403L36.6777 38.8705L37.5996 38.5388ZM37.473 37.9708C37.5182 38.0962 37.4378 38.1587 37.3329 38.1965L37.0394 38.3021L36.9304 37.9985L37.2444 37.8855C37.3629 37.8429 37.4385 37.8747 37.473 37.9708ZM36.9968 37.3533C37.0996 37.3164 37.1782 37.3215 37.2079 37.4038C37.2455 37.5087 37.1899 37.5621 37.0855 37.5999L36.8216 37.6949L36.7331 37.4483L36.9968 37.3533Z" fill="white"/>
<path d="M40.2173 34.7006C40.1898 34.6673 40.1565 34.6354 40.119 34.6044C40.1088 34.5955 40.1029 34.5905 40.1029 34.5905C41.0556 32.9405 40.7777 31.3792 40.7637 31.3045L40.7595 31.3049C40.7407 31.178 40.6689 30.8915 40.3934 30.6499C40.0326 30.3334 39.4677 30.2131 38.7146 30.2916C37.8868 30.3782 37.3001 30.6761 37.0539 31.1219C37.053 31.1236 37.0519 31.1252 37.051 31.1269C37.0436 31.1399 37.035 31.157 37.0265 31.1738C36.9599 31.3059 36.873 31.5502 36.9123 31.8878C36.9424 32.1472 37.0333 32.4648 37.1138 32.7111C36.6488 32.7679 36.1955 32.851 35.7899 33.0027C35.388 33.153 35.1531 33.3587 35.0917 33.6139C35.0731 33.6913 35.0728 33.7648 35.0829 33.8318L35.0781 33.8318C35.0771 33.8462 34.9942 35.1872 35.1399 36.4695C33.1418 37.3439 32.0129 38.4351 31.9992 38.4488C27.6255 42.4969 24.1458 42.62 23.7431 42.62C23.7418 42.62 23.7405 42.62 23.7392 42.62L23.7012 42.6201C23.6688 42.6196 20.0227 42.668 15.446 38.432C15.4302 38.4183 14.3421 37.4934 12.4483 36.6309C12.6236 35.2979 12.5368 33.6745 12.5182 33.5972C12.4568 33.342 12.2218 33.1363 11.8198 32.9859C11.4144 32.8342 10.9611 32.7511 10.4961 32.6943C10.5766 32.4479 10.6674 32.1303 10.6975 31.871C10.7368 31.5341 10.6503 31.29 10.5837 31.1577C10.5749 31.1402 10.5659 31.1224 10.5582 31.1089C10.5577 31.108 10.5571 31.1071 10.5566 31.1061C10.3106 30.6597 9.72359 30.3614 8.89516 30.2748C8.14225 30.1962 7.57745 30.3165 7.21655 30.6329C6.94209 30.8736 6.86974 31.159 6.85062 31.2867L6.84657 31.2863C6.83244 31.3571 6.5617 32.8197 7.6276 34.4924C7.6276 34.4924 7.60623 34.5033 7.57081 34.528C7.55656 34.5379 7.53935 34.551 7.521 34.5656C7.47252 34.6024 7.4291 34.6403 7.39571 34.6806C7.29104 34.7904 7.16938 34.9543 7.07155 35.189C6.84153 35.6851 6.73362 36.7628 7.70238 39.0272L7.73126 39.0944L7.80186 39.1135C7.8292 39.1209 10.5731 39.8782 13.4734 42.1405C15.5346 43.7484 17.9879 45.4861 20.6216 46.2604L20.8275 46.3239C21.1859 46.4212 21.5563 46.5009 21.9276 46.5605L22.1822 46.5986L22.1968 46.6005C22.2426 46.6067 22.2884 46.6127 22.3427 46.6193C22.3859 46.6245 22.4292 46.6297 22.4718 46.6342C22.8803 46.6792 23.2959 46.7017 23.713 46.7017C23.9262 46.7017 24.1399 46.6958 24.353 46.684C24.9019 46.6615 25.4646 46.589 26.0242 46.469C26.4301 46.3855 26.7162 46.3013 26.8476 46.2596C29.2659 45.547 31.8 44.0867 33.9831 42.1475C36.8587 39.5931 39.604 39.1343 39.6314 39.13L39.7186 39.1162L39.7494 39.0334C40.5317 36.9258 40.6356 35.8452 40.5273 35.2918C40.5057 35.0465 40.3355 34.8264 40.2173 34.7006ZM37.3422 31.2261C37.554 30.8917 38.0482 30.6647 38.746 30.5918C38.8818 30.5776 39.0107 30.5705 39.1327 30.5705C39.5968 30.5705 39.9579 30.6727 40.1889 30.8719C40.4157 31.0675 40.4557 31.297 40.4628 31.3613C40.4619 31.4054 40.4595 31.4481 40.4549 31.489C40.4535 31.5019 40.4519 31.5146 40.4502 31.5274C40.3676 32.1003 39.9034 32.3462 39.1477 32.4849L38.9297 31.4689L38.7753 31.5119C37.6271 31.832 37.369 31.6439 37.3173 31.5785C37.222 31.4584 37.3429 31.2298 37.3442 31.2274L37.3422 31.2261ZM37.2976 31.9215C37.5796 32.0392 38.0422 32.0145 38.7017 31.8442L38.8493 32.5327C38.591 32.5687 38.3063 32.5973 37.9959 32.6245C37.9835 32.6256 37.9719 32.6267 37.9595 32.6278C37.8966 32.6332 37.8333 32.6389 37.7702 32.6445C37.6932 32.6513 37.6164 32.6585 37.5393 32.6659C37.4998 32.6696 37.4602 32.6733 37.4207 32.6772C37.4052 32.6311 37.3891 32.5811 37.3729 32.5295C37.3396 32.4234 37.3066 32.3091 37.2782 32.1951C37.2514 32.0872 37.2287 31.9802 37.2156 31.8829C37.2404 31.8978 37.2691 31.9096 37.2976 31.9215ZM35.3854 33.6826C35.4226 33.5338 35.5989 33.3963 35.8956 33.2854C36.2915 33.1373 36.7465 33.0581 37.2153 33.0033C37.2667 32.9973 37.3182 32.9917 37.3699 32.9862C37.547 32.9675 37.7251 32.9512 37.9025 32.9358C37.9112 32.935 37.9199 32.9342 37.9286 32.9335C37.9476 32.9318 37.9667 32.9301 37.9856 32.9285C38.0271 32.9249 38.0687 32.9212 38.1102 32.9176C38.175 32.9119 38.2396 32.9061 38.3043 32.9001C38.6161 32.8711 38.9241 32.8366 39.2116 32.7826C39.4593 32.7361 39.6916 32.6752 39.8971 32.59C40.0449 32.5287 40.1791 32.4552 40.2952 32.3656C40.372 32.3064 40.4411 32.2403 40.5011 32.1661C40.4984 32.2217 40.4943 32.2804 40.4893 32.3404C40.4423 32.9097 40.284 33.6648 39.8417 34.4367C39.7333 34.3874 39.6083 34.3418 39.4624 34.3003C39.0068 34.1709 38.2255 34.1457 37.47 34.1213C36.9252 34.1037 36.3618 34.0855 35.9521 34.0284C35.5804 33.9765 35.4501 33.9084 35.4043 33.8689C35.3828 33.8161 35.3685 33.7506 35.3854 33.6826ZM35.3629 34.2439C35.3634 34.2265 35.3638 34.2082 35.3643 34.1917C35.5954 34.2928 35.9602 34.3448 36.4356 34.3773C36.6494 34.3919 36.8858 34.4026 37.1426 34.412C37.2454 34.4158 37.351 34.4194 37.4603 34.4229C38.1976 34.4467 38.96 34.4713 39.3799 34.5905C39.5028 34.6255 39.6012 34.6608 39.6817 34.6952C39.735 34.718 39.7806 34.7406 39.8187 34.7619C39.9753 34.8497 39.9683 34.9085 39.9683 34.9085C39.9747 34.983 39.8998 35.0723 39.7186 35.1657C39.6222 35.2154 39.4952 35.2661 39.3337 35.3165C39.0745 35.3974 38.7274 35.4773 38.2718 35.5495C37.201 35.7192 36.2494 36.0116 35.4301 36.3468C35.3447 35.5355 35.3495 34.7128 35.3629 34.2439ZM10.3942 31.8661C10.3811 31.9634 10.3584 32.0704 10.3316 32.1783C10.3033 32.2923 10.2703 32.4067 10.237 32.5127C10.2208 32.5642 10.2047 32.6143 10.1893 32.6604C10.1497 32.6564 10.1101 32.6528 10.0706 32.649C9.99355 32.6417 9.91667 32.6344 9.83976 32.6276C9.77654 32.622 9.71326 32.6164 9.65032 32.6109C9.63791 32.6099 9.62634 32.6087 9.614 32.6076C9.30359 32.5805 9.01887 32.5518 8.76054 32.5159L8.90813 31.8273C9.5677 31.9975 10.0304 32.0223 10.3123 31.9046C10.3408 31.8927 10.3694 31.8809 10.3942 31.8661ZM7.42104 30.855C7.71275 30.6037 8.21144 30.5069 8.86381 30.5749C9.56191 30.6479 10.0563 30.8751 10.2679 31.2098L10.2659 31.2112C10.2924 31.2587 10.3748 31.4569 10.2929 31.5611C10.2413 31.6268 9.98375 31.8158 8.83447 31.495L8.68006 31.452L8.46213 32.4681C7.70579 32.3293 7.24126 32.0832 7.15933 31.5089C7.15766 31.4955 7.15619 31.482 7.15477 31.4685C7.15043 31.4287 7.14796 31.3873 7.14713 31.3444C7.15416 31.2802 7.19418 31.0507 7.42104 30.855ZM7.15362 32.3756C7.14392 32.306 7.13553 32.2382 7.12956 32.1742C7.18391 32.2377 7.24596 32.2943 7.31314 32.3464C7.43178 32.4383 7.56834 32.5143 7.72009 32.5766C7.92374 32.6602 8.15365 32.72 8.39825 32.7659C8.68575 32.8198 8.99373 32.8543 9.3056 32.8832C9.37024 32.8892 9.43493 32.8951 9.4997 32.9007C9.54124 32.9044 9.58278 32.908 9.62427 32.9116C9.6431 32.9133 9.66208 32.915 9.68093 32.9166L9.70414 32.9217C9.70523 32.9208 9.70639 32.9199 9.70748 32.919C9.88482 32.9344 10.0629 32.9507 10.24 32.9694C10.2917 32.9749 10.3433 32.9805 10.3946 32.9865C10.8633 33.0413 11.3182 33.1205 11.7141 33.2686C12.0109 33.3796 12.1873 33.5169 12.2243 33.6659C12.2413 33.7339 12.227 33.7993 12.2055 33.8521C12.1596 33.8917 12.0293 33.9596 11.6579 34.0115C11.2482 34.0687 10.6849 34.0868 10.14 34.1045C9.38454 34.1289 8.60322 34.1541 8.14755 34.2836C8.05924 34.3087 7.98042 34.3357 7.9059 34.3636C7.42805 33.6201 7.22903 32.9167 7.15362 32.3756ZM7.62106 34.9422L7.62553 34.8753C7.6547 34.839 7.70599 34.7932 7.7955 34.7429C7.83398 34.7213 7.8801 34.6988 7.93408 34.676C7.97724 34.6577 8.02589 34.6392 8.08046 34.6206C8.12634 34.605 8.17524 34.5894 8.23006 34.5738C8.65001 34.4545 9.41247 34.4299 10.1498 34.406C10.3121 34.4008 10.4668 34.3954 10.6147 34.3895C10.8565 34.3797 11.079 34.3683 11.2796 34.3528C11.7038 34.3198 12.0318 34.2683 12.2456 34.1749C12.2461 34.1916 12.2466 34.2101 12.2471 34.2278C12.2614 34.7301 12.2659 35.6378 12.1601 36.5029C11.3091 36.1346 10.3115 35.7869 9.18629 35.538C8.87197 35.4685 8.62163 35.4033 8.42084 35.3434C8.34982 35.3222 8.28492 35.3016 8.22597 35.2818C7.62235 35.0787 7.62054 34.9495 7.62106 34.9422ZM39.4963 38.8478C38.9904 38.9456 36.4723 39.5329 33.7827 41.9219C31.6322 43.8322 29.139 45.2699 26.7592 45.971C26.6305 46.0119 26.3559 46.0927 25.9622 46.1736C25.418 46.2905 24.8724 46.3607 24.3385 46.3826C23.7229 46.4168 23.1057 46.4003 22.5041 46.3342C22.4626 46.3298 22.421 46.3249 22.371 46.3187C22.3264 46.3133 22.2819 46.3075 22.2374 46.3015L22.2239 46.2997L21.9763 46.2626C21.6875 46.2163 21.3999 46.1576 21.1185 46.0878L21.1153 46.087L20.9099 46.0285C18.2484 45.3008 15.751 43.5344 13.6589 41.9026C10.9705 39.8055 8.40803 38.9791 7.9519 38.8428C6.98588 36.5581 7.18982 35.6104 7.38509 35.2554C7.39724 35.2334 7.40936 35.2134 7.42116 35.1957C7.47381 35.2528 7.55189 35.3117 7.66343 35.3724C7.73648 35.4122 7.82377 35.4528 7.9288 35.4943C8.19785 35.6007 8.58026 35.713 9.12123 35.8327C9.80566 35.9841 10.4414 36.1728 11.025 36.38C11.2579 36.4627 11.4828 36.5482 11.6986 36.6358C11.8911 36.7139 12.0764 36.7934 12.2548 36.8736C14.1464 37.724 15.2321 38.6458 15.2451 38.6569C19.9153 42.9798 23.5577 42.9269 23.7055 42.9217H23.7388C23.7402 42.9217 23.7415 42.9217 23.743 42.9217C24.1584 42.9217 27.7464 42.7962 32.2074 38.6671C32.2227 38.6519 33.2869 37.6232 35.1799 36.78C35.227 36.7591 35.2753 36.7384 35.3235 36.7177C35.4864 36.6475 35.6548 36.5789 35.8292 36.5126C36.5619 36.2337 37.3944 35.9941 38.319 35.8475C38.9559 35.7466 39.3889 35.6327 39.6826 35.5144C39.789 35.4715 39.8772 35.428 39.9498 35.3844C40.0636 35.3158 40.1404 35.2467 40.1895 35.1787C40.201 35.2071 40.2116 35.2403 40.221 35.2776C40.3283 35.7012 40.2771 36.7222 39.4963 38.8478Z" fill="white"/>
<path d="M23.4677 35.2069C23.6698 34.8598 23.3325 34.5559 23.3491 34.6116C23.3799 34.7149 23.1769 34.7443 23.1769 34.7443C22.9819 34.7833 22.566 34.6533 22.566 34.6533C21.1752 34.3868 21.6277 36.1443 21.7148 36.5294C21.7676 36.7623 21.6138 37.2588 20.8372 37.1817C20.2205 37.1204 20.2133 37.4416 20.2133 37.4416C20.5058 37.2207 20.6747 37.3831 20.6747 37.3831C20.3433 37.4091 20.2718 37.7731 20.2718 37.7731C20.5858 37.4975 20.8762 37.6886 20.8762 37.6886C20.6292 37.7601 20.6292 38.0851 20.6292 38.0851C20.8142 37.8314 21.0134 37.9603 21.0134 37.9603C21.0134 37.9603 21.4059 38.1096 21.4936 37.7211C21.5224 37.5935 21.7601 37.7796 21.7601 37.7796C21.7146 37.6106 21.7796 37.4546 21.8251 37.3961C21.8706 37.3376 22.111 37.5716 22.111 37.5716C22.228 37.4481 22.1825 37.2987 22.1825 37.2467C22.1825 37.1946 22.0732 36.9551 22.15 36.8502C22.3431 36.5865 22.579 37.0517 22.579 37.0517C22.6505 36.6942 22.2836 36.0397 22.2552 36.0066C22.097 35.822 22.0443 35.3651 22.7284 35.9142C22.9921 36.1258 23.2979 36.0124 23.2979 36.0124C23.1807 35.6434 23.4677 35.2069 23.4677 35.2069Z" fill="white"/>
<path d="M22.5782 31.3607C22.5782 31.3607 22.7042 31.505 22.5726 31.7371C22.5726 31.7371 22.9451 31.8219 23.1412 31.6324C23.1412 31.6324 23.0487 31.8729 23.2 32.1559C23.2 32.1559 23.4857 32.0059 23.5529 31.7937C23.5529 31.7937 23.6678 31.8248 23.777 32.0398C23.8862 32.2549 23.9819 32.2996 23.9819 32.2996C23.9819 32.2996 23.9909 31.9944 24.1943 31.9182C24.1943 31.9182 24.4632 32.2464 24.7853 32.1219C24.7853 32.1219 24.2055 31.8163 24.7769 31.6691C24.7769 31.6691 24.38 31.5494 24.3968 31.3626C24.3968 31.3626 24.1691 31.7031 23.707 31.6182C23.707 31.6182 23.8264 31.4625 23.782 31.2627C23.782 31.2627 23.3905 31.4852 23.0824 31.3409C23.0824 31.3409 23.0673 30.9897 23.3159 30.8743C23.3159 30.8743 22.7965 30.8255 22.651 30.9843C22.651 30.9843 22.5661 30.7529 22.7016 30.5835C22.7016 30.5835 22.233 30.7545 22.0873 31.5157C22.0873 31.5157 22.4325 31.5475 22.5782 31.3607Z" fill="white"/>
<path d="M19.4447 33.2388C19.4447 33.2388 19.0068 33.5991 19.3626 33.9667C19.3626 33.9667 19.391 33.4957 19.6949 33.6288C19.6949 33.6288 19.2083 33.9718 19.694 34.2662C19.694 34.2662 19.6761 33.7959 20.0303 33.8827C20.2649 33.9402 20.4114 33.6482 20.4114 33.6482C20.4114 33.6482 20.6735 33.4912 20.8099 33.7267C20.9604 33.9863 21.1955 34.0167 21.2296 34.0542C21.2296 34.0542 21.0556 33.8222 21.2296 33.7403C21.2296 33.7403 21.4687 33.9841 21.6765 34.0065C21.6765 34.0065 21.4584 33.762 21.6697 33.7164C21.6697 33.7164 21.7823 33.713 21.8164 33.8393C21.8564 33.9872 22.23 34.0455 22.2702 34.0474C22.2702 34.0474 22.0431 33.8713 22.1807 33.6623C22.1851 33.6557 22.1893 33.6489 22.1933 33.6421C22.3244 33.4522 22.4596 33.5117 22.4596 33.5117C22.9387 33.3698 22.9179 32.8895 22.9038 32.764C22.9198 32.7717 22.96 32.7935 22.9737 32.824C23.0396 32.9705 23.0841 33.3702 22.5249 33.6858C22.5249 33.6858 22.5609 34.1407 23.2855 34.4537C23.2855 34.4537 23.1811 33.8682 23.6275 34.703C23.6275 34.703 23.7782 35.0044 23.6101 35.3291C23.442 35.6537 23.2739 36.1755 23.8767 36.5465C24.4796 36.9175 24.8622 37.3291 24.5781 38.419C24.5781 38.419 24.381 38.8074 24.0216 38.6915C23.6623 38.5756 23.4912 38.4375 23.1661 38.8593C23.1661 38.8593 23.5316 38.6804 23.7577 38.9354C23.7577 38.9354 23.3029 38.8074 23.1463 39.3698C23.1463 39.3698 23.5753 39.1205 23.784 39.2944C23.784 39.2944 23.5173 39.3698 23.5347 39.6886C23.5347 39.6886 23.7723 39.489 23.9832 39.5798C24.3039 39.7179 24.3695 39.5031 24.4738 39.3524C24.5781 39.2017 24.7831 39.4237 25.0962 39.3367C25.0962 39.3367 24.6539 39.0028 24.9087 38.8329C25.0554 38.7351 25.351 38.9354 25.4945 38.7802C25.4945 38.7802 24.938 38.5693 25.1958 38.1885C25.3074 38.0235 25.5559 38.2323 25.6643 38.1152C25.6643 38.1152 25.2724 38.0011 25.3433 37.6306C25.3872 37.4011 25.4592 37.4509 25.5288 37.4857C25.5984 37.5205 25.7433 37.5494 25.8302 37.4915C25.8302 37.4915 25.6784 37.4616 25.6494 37.2818C25.6204 37.1021 25.6345 36.8305 25.4312 36.6916C25.2989 36.6013 25.2129 36.5973 25.21 36.274C25.2067 35.9056 25.3665 35.8509 25.465 35.8451C25.5636 35.8393 25.7817 35.8202 25.923 35.7175C25.923 35.7175 26.7577 35.2074 26.3056 34.1697C25.8534 33.1319 25.6335 33.0687 25.6973 32.2454C25.7611 31.4222 25.9574 31.0384 26.1454 30.7428C26.2838 30.5254 26.5664 30.3725 26.7577 30.3377C26.7577 30.3377 27.2331 30.2333 27.1577 30.8014C27.1577 30.8014 27.1693 30.9522 26.8737 31.1957C26.578 31.4391 26.5027 31.7 26.5027 31.7C26.5027 31.7 26.8099 31.4739 26.8852 31.5435C26.9606 31.6131 26.9142 31.7116 26.7925 31.845C26.6708 31.9783 26.5143 32.2797 26.549 32.5464C26.549 32.5464 26.6592 32.3957 26.7577 32.3957C26.7577 32.3957 26.699 32.8979 26.9955 33.0956C26.9955 33.0956 26.8889 32.518 27.1141 32.1993C27.2712 31.977 27.662 31.242 27.4417 30.7319C27.4417 30.7319 27.4359 30.071 27.0244 30.0014C27.0244 30.0014 27.0997 30.1174 27.0533 30.1C27.007 30.0826 25.7632 29.9783 25.4864 31.9818C25.4713 32.0913 25.4361 32.3609 25.4361 32.3609C25.4361 32.3609 25.4139 32.8715 25.0998 32.4884C25.0998 32.4884 25.0651 32.8885 25.465 33.1667C25.865 33.445 25.0825 33.4102 24.9259 33.1493C24.9259 33.1493 24.9202 33.474 25.3259 33.6479C25.7317 33.8218 25.6795 34.0421 25.0071 33.8798C25.0071 33.8798 25.2042 34.1754 25.7491 34.1754C26.294 34.1754 26.3334 35.0018 26.1317 35.1958C25.8621 35.455 25.6969 35.4161 25.5462 35.3871C25.3955 35.3581 25.31 35.3971 25.31 35.3971C25.31 35.3971 25.007 35.096 24.9439 34.7886C24.9003 34.5764 24.4564 34.1928 24.4564 34.1928C24.4564 34.1928 24.2072 33.8798 24.2941 33.2537C24.381 32.6276 24.4216 32.4421 24.3984 32.3203C24.3984 32.3203 24.2428 32.2926 24.184 32.1928C24.184 32.1928 24.0738 32.4479 24.0912 32.6044C24.0912 32.6044 23.7666 32.5348 23.6564 32.2797C23.5463 32.0247 23.4652 32.0942 23.4652 32.0942C23.4652 32.0942 23.2855 32.3609 23.0536 32.4073C23.0536 32.4073 22.9506 32.3666 22.955 32.1117C22.9563 32.0386 22.9553 31.9879 22.9526 31.9532C22.9639 31.9271 22.9683 31.8981 22.964 31.8659C22.964 31.8659 22.613 31.9493 22.3812 31.8797C22.3812 31.8797 22.4391 31.7116 22.3928 31.6362C22.3928 31.6362 22.2189 31.729 21.9058 31.6768C21.9058 31.6768 21.8363 31.3812 22.1145 30.9406C22.1145 30.9406 22.1377 30.8072 21.9928 30.5406C21.8479 30.2739 21.5849 29.7124 21.8047 29.3314C21.9509 29.0779 21.8897 28.7442 21.6926 28.6051C21.4955 28.4659 21.366 28.4637 21.0752 28.5808C21.0752 28.5808 21.4635 28.5436 21.4635 28.8683C21.4635 28.8683 21.0491 28.4539 20.7177 28.8829C20.7177 28.8829 21.1873 28.8315 21.0955 29.206C21.0955 29.206 20.7439 28.7306 20.4106 29.2924C20.4106 29.2924 20.9004 29.2178 20.8715 29.6408C20.8524 29.9209 21.216 30.0304 21.216 30.0304C21.216 30.0304 21.3253 30.8492 20.8442 30.8376C20.8442 30.8376 21.1175 31.0217 21.2566 31.0043C21.2566 31.0043 21.2934 31.3343 21.0189 31.3638C21.0189 31.3638 21.165 31.5352 21.3899 31.5087C21.3899 31.5087 21.4167 31.602 21.2906 31.6803C21.1392 31.7742 21.1344 32.0207 21.1402 32.067C21.1402 32.067 21.2856 31.9435 21.5522 32.0594C21.8189 32.1754 22.1319 32.0826 22.1783 32.0537C22.1783 32.0537 22.2559 32.0155 22.2982 32.0278C22.2795 32.0539 22.2319 32.1201 22.168 32.2068L22.1678 32.2066C22.1678 32.2066 22.1676 32.2071 22.1671 32.208C22.0731 32.3355 21.9442 32.5071 21.8204 32.661C21.474 33.0003 20.8652 33.3447 19.9788 32.9596C19.7504 32.8604 19.3769 32.8409 19.2299 32.9874C19.083 33.134 19.0225 33.3371 19.162 33.5538C19.162 33.5538 19.1695 33.191 19.4447 33.2388Z" fill="white"/>
<path d="M23.5863 30.799C23.3161 30.9244 23.3448 31.2028 23.3448 31.2028C23.7807 31.1836 23.8977 30.9753 23.8977 30.9753C24.1414 31.0483 23.9962 31.3869 23.9754 31.4324C23.9726 31.4357 23.9711 31.4375 23.9711 31.4375C23.9711 31.4375 23.9718 31.4374 23.9732 31.4371C23.9731 31.4373 23.9731 31.4375 23.9731 31.4375C23.9973 31.4342 24.0203 31.43 24.042 31.425C24.1336 31.4101 24.3337 31.3454 24.5192 31.0682C24.5218 31.0675 24.5244 31.0669 24.5268 31.0665C24.5328 31.1338 24.5956 31.5562 25.2363 31.5124C25.2363 31.5124 24.8209 31.3316 24.9117 31.0562C24.9147 31.0473 24.9178 31.0387 24.9211 31.0305C25.1613 31.2757 25.5268 30.9625 25.5268 30.9625C25.1936 30.9597 25.1338 30.7647 25.1563 30.6822C25.5611 30.9218 25.7754 30.5283 25.7259 30.4616C25.7259 30.4616 25.0113 30.7575 25.5854 29.4467C25.6483 29.303 25.8572 29.0493 25.654 28.8102C25.4508 28.5711 25.3432 28.2125 25.6062 28.0332C25.6062 28.0332 25.3366 27.9002 24.9488 28.1587C24.7553 28.2877 24.6107 28.2217 24.6107 28.2217C24.6107 28.2217 24.2824 28.0765 24.0105 28.1946C23.7832 28.2933 23.7103 28.4098 23.6869 28.4723C23.5134 28.4236 23.2532 28.5934 23.2178 28.5985C23.176 28.6045 23.2115 28.7125 23.1936 28.7782C23.1757 28.844 23.1261 29.0732 23.401 29.0493C23.6759 29.0254 23.8611 28.9477 23.8611 28.9477C23.8611 28.9477 23.9388 28.9955 23.9567 29.1808C23.9747 29.366 24.0942 29.6649 23.6878 29.6888C23.6878 29.6888 23.6828 29.7018 23.7784 29.7795C23.874 29.8572 24.1838 29.8382 24.2317 29.6649C24.2795 29.4915 24.405 29.4736 24.405 29.4736C24.405 29.4736 24.5544 29.9159 23.9448 29.9876C23.3352 30.0593 22.9418 30.2746 22.8103 30.7348C23.4639 30.5914 23.5863 30.799 23.5863 30.799ZM24.1896 28.6226C24.0569 28.7116 23.9345 28.6912 23.7809 28.5332C23.781 28.533 23.7811 28.5329 23.7812 28.5328C23.9298 28.3289 24.1599 28.2663 24.4886 28.4934C24.4886 28.4934 24.3302 28.5283 24.1896 28.6226Z" fill="white"/>
<path d="M17.433 24.2976L16.3951 22.583L15.3573 24.3136L16.4134 26.2732L17.433 24.2976Z" fill="white"/>
<path d="M32.1143 24.2976L31.0765 22.583L30.0386 24.3136L31.0947 26.2732L32.1143 24.2976Z" fill="white"/>
<path d="M23.5458 41.38L23.6213 41.3948L23.6969 41.38C29.6636 40.2008 34.3814 34.8411 34.4372 29.1745V15.1432H29.4131C29.743 15.0167 29.9776 14.6979 29.9776 14.3235C29.9776 13.8383 29.5843 13.4449 29.0991 13.4449H27.8489C27.3457 13.3838 27.2378 12.8864 27.2378 12.8864C26.6338 13.519 26.0339 12.5476 26.0339 12.5476L24.9769 12.9027L24.7307 12.4264C24.8545 12.1881 25.0135 11.9218 25.1618 11.7937C25.4384 11.5546 25.5272 11.5068 25.5272 11.5068C25.3913 11.2094 25.3521 10.956 25.3423 10.8745C25.3747 10.8569 25.5902 10.7414 25.8138 10.6536C25.9191 10.6184 26.0177 10.5884 26.0913 10.567C26.1385 10.5576 26.182 10.5527 26.2182 10.555L26.2655 10.5578L26.1482 10.4271C26.1743 10.4409 26.256 10.4886 26.2829 10.5009C26.3484 10.5261 26.4159 10.5496 26.4878 10.5557C26.547 10.5611 26.6387 10.5627 26.6238 10.49C26.6503 10.497 26.7113 10.5203 26.7389 10.5247C26.7767 10.5278 26.8176 10.529 26.858 10.5095C26.8915 10.492 26.923 10.474 26.9543 10.4532C26.9853 10.4322 27.016 10.4096 27.0412 10.3772C27.0532 10.361 27.0648 10.3409 27.0659 10.3162C27.0673 10.2913 27.0552 10.2683 27.041 10.2531C26.9813 10.1945 26.9093 10.1753 26.8412 10.1492L26.6337 10.0824C26.5795 10.0647 26.5256 10.046 26.4729 10.0247C26.3266 9.96497 26.4839 10.0196 26.5301 10.0239C26.5791 10.0292 26.6259 10.0283 26.6747 10.0199C26.7239 10.0109 26.7707 9.99813 26.8183 9.97564L26.9735 9.90249C26.9735 9.90249 26.8012 9.96503 26.4674 9.71213C26.3533 9.62572 26.2693 9.50409 26.1714 9.39831C25.9742 9.18667 25.789 8.96826 25.5783 8.76172C25.3676 8.55819 25.1294 8.38028 24.8679 8.24672C24.6361 8.12679 24.3812 8.0366 24.1212 8.02217C24.1113 8.02023 24.1014 8.0183 24.0942 8.01697C24.0882 7.97924 24.0175 7.48009 24.3154 6.85471C24.4794 6.51081 24.4934 6.15814 24.3541 5.88714C24.2429 5.67078 24.0482 5.52786 23.806 5.48472C23.7886 5.48153 23.3934 5.4174 22.9392 5.72235C22.8019 5.78075 22.6807 5.84461 22.5747 5.90818C22.9599 5.46703 23.79 5.03331 23.9348 5.00344L23.9303 4.96761C23.9064 4.96867 23.3752 4.99431 23.0252 5.22445C23.0785 5.1123 23.1556 4.87443 23.0935 4.51196L23.0903 4.49316L23.0717 4.49735C23.0636 4.49923 22.2493 4.69514 22.2425 5.8262C22.2425 5.8288 22.2412 6.00041 22.1851 6.18985C22.0953 6.26862 22.0492 6.32139 22.0492 6.32139C22.0858 6.30403 22.1215 6.2887 22.1566 6.27476C22.129 6.34675 22.0925 6.41811 22.0442 6.48082C21.8492 6.73389 21.6975 7.19354 21.6835 7.57375L21.6821 7.61076L21.7121 7.58907C21.7252 7.57958 22.0349 7.35344 22.1031 7.08127C22.1369 6.94612 22.2171 6.85041 22.2564 6.8098C22.2846 6.94577 22.3334 7.22454 22.3047 7.29161C22.2959 7.31183 22.3023 7.32203 22.309 7.32703C22.3256 7.33876 22.3444 7.3222 22.3516 7.31595C22.4228 7.25437 22.6568 6.9054 22.4114 6.44304C22.3735 6.37162 22.3691 6.29041 22.3956 6.20156C22.8169 6.11036 23.0987 6.25862 23.2103 6.34011C23.2694 6.39006 23.3305 6.45932 23.3681 6.55449C23.4387 6.73301 23.4102 6.95055 23.2832 7.20109C23.174 7.41662 23.0616 7.59178 22.9623 7.74637C22.7015 8.15274 22.513 8.44631 22.5922 9.079C22.6844 9.81615 23.1491 10.1619 23.4426 10.2837C23.5926 10.4492 23.6998 10.7019 23.7655 10.8261C23.8587 11.0021 23.7604 10.971 23.7604 10.971C23.2064 11.0176 23.0407 10.7122 22.6524 10.5724C22.5439 10.5333 22.4525 10.521 22.3764 10.5229C22.1441 10.4299 21.8415 10.4278 21.5475 10.5213C21.0096 10.6925 20.6658 11.1282 20.7814 11.4929C20.8236 11.6259 20.922 11.7357 21.0663 11.8103C21.1977 11.8783 21.3583 11.9126 21.5303 11.9126C21.6714 11.9126 21.82 11.8895 21.9661 11.8428C22.4218 11.698 22.7368 11.3633 22.7526 11.0429C22.9475 11.0965 23.4951 11.5091 23.8898 11.6856C24.3298 11.8823 24.4903 11.3697 24.4903 11.3697C24.6089 11.6068 24.3139 12.3121 24.122 12.722L23.9403 12.8619L23.8465 12.3925L23.4016 12.9843C23.2384 12.9068 22.7772 12.3476 22.7772 12.3476C22.7253 12.9353 22.5392 13.107 22.4652 13.1527L21.4231 12.4558C21.4357 12.9179 20.9335 13.2023 20.6919 13.212L19.9981 12.8496C20.0771 13.369 19.6624 13.4372 19.508 13.4449H18.269C17.7838 13.4449 17.3905 13.8382 17.3905 14.3234C17.3905 14.6979 17.6251 15.0167 17.955 15.1432H12.8054V29.1784C12.8613 34.8411 17.579 40.2008 23.5458 41.38ZM28.305 13.8036C28.3193 13.7999 28.3328 13.7974 28.3469 13.7941C28.9195 13.6599 29.2844 13.8558 29.2844 13.8558C29.4736 13.9497 29.5286 14.0795 29.5151 14.2061C29.4864 14.4746 29.1482 14.7289 29.1184 14.5978C29.0405 14.2553 28.6825 14.0945 28.6825 14.0945C28.6825 14.0945 28.1637 13.8402 28.305 13.8036ZM29.1623 17.5495C29.1717 17.5095 29.1816 17.4702 29.192 17.4318C29.0016 17.0794 28.8476 16.8083 28.7679 16.7059C28.7503 16.6834 28.7314 16.66 28.7129 16.637C28.6067 16.5055 28.5629 16.4511 28.6044 16.4019C28.6432 16.3561 28.7076 16.3922 28.7502 16.4162C28.7605 16.4219 28.9649 16.5404 29.2205 16.996C29.2396 17.0302 29.2643 17.0751 29.2934 17.1284C29.4406 16.7667 29.6371 16.5689 29.8517 16.5689C30.0711 16.5689 30.2717 16.776 30.42 17.1535C30.455 17.089 30.4844 17.0354 30.5065 16.996C30.7621 16.5404 30.9666 16.4219 30.9768 16.4162C31.0194 16.3922 31.0838 16.3561 31.1226 16.4019C31.1642 16.4511 31.1202 16.5055 31.0142 16.637C30.9956 16.66 30.9767 16.6834 30.9591 16.7059C30.8771 16.8111 30.7167 17.0947 30.5189 17.4615C30.5484 17.5011 30.5524 17.5065 30.5819 17.5461C31.5999 17.3457 32.3763 17.3761 32.4571 17.6559C32.5141 17.8532 31.9518 18.1402 31.4293 18.4225C31.427 18.4237 31.427 18.427 31.4293 18.4283C31.9518 18.7104 32.5141 18.9836 32.4571 19.1809C32.3777 19.456 31.6257 19.4899 30.6327 19.3005C30.6309 19.3002 30.6291 19.3013 30.6288 19.3032L30.5914 19.5232C30.591 19.5257 30.5842 19.5739 30.5842 19.5739C30.5842 19.5739 30.6446 19.6801 30.6454 19.6817C30.6477 19.6859 30.9181 20.1818 31.1087 20.3935C31.1568 20.4477 31.1333 20.4862 31.125 20.4967C31.112 20.5131 31.0958 20.5208 31.0745 20.5208C31.0348 20.5208 30.9771 20.4939 30.8883 20.4455C30.8222 20.4094 30.6953 20.2183 30.5103 19.8946C30.4893 19.971 30.4663 20.0441 30.4413 20.113C30.2912 20.5263 30.0818 20.7539 29.8517 20.7539C29.5863 20.7539 29.3529 20.451 29.2049 19.9379C29.2033 19.9323 29.1956 19.9315 29.1927 19.9366C29.0207 20.2349 28.9019 20.411 28.8387 20.4455C28.7499 20.4939 28.6922 20.5208 28.6525 20.5208C28.6312 20.5208 28.615 20.5131 28.6021 20.4967C28.5937 20.4862 28.5701 20.4477 28.6181 20.3938C28.8089 20.1818 29.0793 19.6859 29.082 19.6809C29.0833 19.6785 29.0987 19.6491 29.1253 19.5983C29.1245 19.5942 29.0881 19.3633 29.0809 19.306C29.0807 19.3041 29.079 19.3035 29.0771 19.3038C28.0926 19.4896 27.3489 19.4544 27.2699 19.1809C27.2129 18.9836 27.727 18.6861 28.2491 18.4037C28.2514 18.4025 28.2513 18.3992 28.2491 18.3979C28.1058 18.3206 27.9633 18.2447 27.8329 18.1712C27.488 17.9767 27.2285 17.7991 27.2699 17.6559C27.3511 17.3745 28.1358 17.3454 29.1623 17.5495ZM23.3695 5.78931C23.3695 5.78931 23.5056 5.59954 23.8604 5.78567C23.8604 5.78567 23.7099 6.05574 23.3695 5.78931ZM23.5562 8.36065L23.5564 8.36067C23.5433 9.53269 24.645 9.95025 24.6693 9.96182C24.6378 9.92168 24.6123 9.87686 24.5991 9.82675C24.7332 9.89942 24.8461 9.9588 24.9692 9.99823C25.0297 10.0192 25.0919 10.0362 25.1574 10.0489C25.1711 10.0521 25.1857 10.0542 25.1997 10.0568C25.162 10.0176 25.1349 9.97036 25.1267 9.91742C25.2338 9.97644 25.3199 10.0169 25.4049 10.0133C25.4473 10.0132 25.4913 10.0039 25.5395 9.98924L25.6143 9.963C25.6399 9.95241 25.6658 9.94111 25.6971 9.93313C25.6865 9.96216 25.6707 9.98789 25.6545 10.0143C25.6345 10.0367 25.6148 10.0614 25.5894 10.08C25.54 10.1196 25.4746 10.1437 25.4053 10.1461C25.3689 10.1461 25.333 10.1386 25.3 10.1256C25.2536 10.1467 25.204 10.1608 25.1527 10.165C25.0753 10.1756 24.9962 10.1624 24.9214 10.1391C24.8695 10.1211 24.822 10.0937 24.7777 10.062C24.4769 10.0857 23.2391 9.65619 23.5562 8.36065ZM24.0703 13.4516C25.0144 13.1149 26.1807 13.6132 26.1807 13.6132C26.551 13.7733 26.7972 13.9444 26.9596 14.0934C26.9596 14.0933 26.9597 14.0933 26.9597 14.0933C26.9597 14.0933 26.9601 14.0937 26.9605 14.0942C27.0143 14.1436 27.0589 14.1905 27.0957 14.2338C27.2289 14.3613 27.4382 14.5352 27.6252 14.5754C27.7684 14.6062 27.5117 14.9336 27.0595 14.7179C27.0595 14.7179 27.058 14.7167 27.0556 14.7147C27.0092 14.6901 26.9535 14.6534 26.8867 14.6013C26.4295 14.2445 26.0719 14.26 26.0719 14.26C25.6583 14.2284 25.7466 14.4746 25.7466 14.4746C25.97 14.9247 25.3938 14.7903 25.1039 14.4746C24.6618 13.9933 24.2408 13.8492 23.9915 13.7082C23.7421 13.5673 23.9369 13.4992 24.0703 13.4516ZM24.2375 20.1058C24.2824 20.1432 24.3767 20.33 24.2202 20.6924C24.2199 20.693 24.2201 20.6932 24.2194 20.6936C24.2068 20.701 23.7218 20.9823 22.9906 20.7353C22.9893 20.7349 22.9884 20.7346 22.9883 20.7333C22.9875 20.7036 22.9727 20.1852 22.9472 20.087C22.9216 19.9883 22.6387 19.8109 22.6258 19.8029C22.625 19.8024 22.6254 19.803 22.6253 19.8021C22.6196 19.7683 22.3296 18.0222 22.5518 17.3399C22.5519 17.3396 22.5519 17.3398 22.5519 17.3395C22.5518 17.3333 22.5462 16.764 22.7451 16.7109C22.8573 16.681 22.8268 17.2984 22.8267 17.2999C22.8267 17.2998 22.8267 17.2999 22.8267 17.2999C22.8268 17.3016 22.8402 18.0057 22.8309 18.0223C22.8306 18.0229 22.8303 18.0229 22.8298 18.0233C22.5829 18.2274 22.7676 18.2455 22.7676 18.2455C23.5742 18.1044 23.963 18.0988 24.1495 18.1307C24.1686 18.1331 24.1873 18.1371 24.2053 18.1429C24.3424 18.1803 24.317 18.2418 24.317 18.2418C24.317 18.2418 24.3357 18.4139 23.7931 18.4813C23.7931 18.4813 23.4806 18.54 23.4263 18.6572C23.3742 18.7696 23.329 19.1813 23.4824 19.4582C23.4824 19.4582 23.5872 19.4358 23.5423 19.3048C23.4974 19.1738 23.5507 18.8527 23.6358 18.7845C23.7424 18.6992 24.5434 18.5915 24.5577 18.3605C24.5577 18.36 24.5578 18.3601 24.5577 18.3596C24.5555 18.352 24.4495 17.9697 24.6464 17.5755C24.795 17.278 24.995 17.6597 24.9575 18.1874C24.9575 18.1874 24.9305 18.9694 24.9184 19.1273C24.9056 19.2932 24.8212 19.8076 24.2983 19.8887C24.2983 19.8887 24.0953 19.9448 24.0691 20.0609C24.0691 20.0609 24.1926 20.0683 24.2375 20.1058ZM23.3641 17.6318C23.3696 17.7809 23.355 17.8803 23.3383 17.9437C23.3379 17.9449 23.3368 17.9457 23.3355 17.9459C23.2194 17.9596 23.1138 17.9746 23.0314 17.9873C23.0297 17.9876 23.0283 17.9865 23.0279 17.9849C22.9608 17.6993 22.9734 17.3549 22.9734 17.3549L23.0002 16.7538C23.0079 16.7221 23.0043 16.3724 23.1966 16.3786C23.3668 16.3841 23.3703 16.7756 23.3703 16.7756C23.3703 16.7756 23.3494 17.2321 23.3641 17.6318ZM24.0906 17.099C24.0791 16.8143 24.0923 16.4411 24.2793 16.4326C24.4091 16.4267 24.404 16.7007 24.4108 16.8552C24.4186 17.0341 24.4199 17.5009 24.4199 17.5117C24.4199 17.5122 24.4197 17.512 24.4194 17.5125C24.352 17.6015 24.3373 17.8992 24.3215 17.96C24.3211 17.9618 24.3196 17.9623 24.3178 17.9617C24.2634 17.9432 24.1753 17.924 24.0981 17.9173C24.0969 17.9172 24.0959 17.9168 24.0954 17.9157C24.0696 17.8556 24.102 17.3813 24.0906 17.099ZM23.7081 15.704H23.6942C23.7022 15.7036 23.7081 15.704 23.7081 15.704ZM23.6774 16.1495H23.6896H23.7173C23.9856 16.1973 23.9281 17.6935 23.8686 17.905C23.8682 17.9064 23.8671 17.907 23.8657 17.907C23.7713 17.9092 23.6727 17.9153 23.5757 17.9237C23.5743 17.9239 23.573 17.9232 23.5725 17.9218C23.5534 17.8708 23.5312 17.7952 23.5255 17.709C23.514 17.535 23.5304 16.5573 23.5523 16.3485C23.5707 16.1721 23.6479 16.1511 23.6774 16.1495ZM20.6416 13.5864C21.4961 13.2842 22.5515 13.7315 22.5515 13.7315C23.4059 14.0978 23.5301 14.529 23.5301 14.529C23.5301 14.529 23.6675 14.9572 23.1905 14.6186C22.8073 14.3466 22.5322 14.4045 22.5322 14.4045C22.2379 14.4093 22.1752 15.0993 21.577 14.5049C21.1593 14.0897 20.7959 13.9433 20.5703 13.8168C20.3446 13.6903 20.5209 13.6291 20.6416 13.5864ZM18.232 13.8804C18.6036 13.6353 19.0812 13.7955 19.2638 14.065C19.6771 14.6748 20.2029 14.752 19.9467 14.7911C19.7992 14.8136 19.3141 14.6687 19.083 14.4632C18.8083 14.2189 18.3673 14.3907 18.668 14.6579C18.701 14.6873 18.6447 14.7242 18.569 14.7242C18.0251 14.7242 17.8365 14.1412 18.232 13.8804ZM14.9695 17.6559C15.0507 17.3745 15.8354 17.3454 16.8619 17.5495C16.8713 17.5095 16.8812 17.4702 16.8917 17.4318C16.7013 17.0794 16.5473 16.8083 16.4675 16.7059C16.45 16.6834 16.431 16.66 16.4125 16.637C16.3064 16.5055 16.2625 16.4511 16.304 16.4019C16.3428 16.3561 16.4072 16.3922 16.4498 16.4162C16.4601 16.4219 16.6646 16.5404 16.9201 16.996C16.9392 17.0302 16.964 17.0751 16.993 17.1284C17.1402 16.7667 17.3368 16.5689 17.5513 16.5689C17.7707 16.5689 17.9713 16.776 18.1196 17.1535C18.1547 17.089 18.1841 17.0354 18.2062 16.996C18.4617 16.5404 18.6662 16.4219 18.6764 16.4162C18.7191 16.3922 18.7834 16.3561 18.8222 16.4019C18.8638 16.4511 18.8199 16.5055 18.7138 16.637C18.6952 16.66 18.6763 16.6834 18.6587 16.7059C18.5768 16.8111 18.4163 17.0947 18.2185 17.4615C18.2481 17.5011 18.252 17.5065 18.2816 17.5461C19.2996 17.3457 20.076 17.3761 20.1567 17.6559C20.2137 17.8532 19.6514 18.1402 19.1289 18.4225C19.1266 18.4237 19.1266 18.427 19.1289 18.4283C19.6514 18.7104 20.2137 18.9836 20.1567 19.1809C20.0773 19.456 19.3253 19.4899 18.3323 19.3005C18.3305 19.3002 18.3287 19.3013 18.3284 19.3032L18.291 19.5232C18.2906 19.5257 18.2839 19.5739 18.2839 19.5739C18.2839 19.5739 18.3442 19.6801 18.345 19.6817C18.3473 19.6859 18.6177 20.1818 18.8083 20.3935C18.8565 20.4477 18.833 20.4862 18.8246 20.4967C18.8116 20.5131 18.7954 20.5208 18.7741 20.5208C18.7344 20.5208 18.6767 20.4939 18.5879 20.4455C18.5218 20.4094 18.3949 20.2183 18.2099 19.8946C18.1889 19.971 18.1659 20.0441 18.1409 20.113C17.9908 20.5263 17.7815 20.7539 17.5513 20.7539C17.2859 20.7539 17.0525 20.451 16.9045 19.9379C16.9029 19.9323 16.8952 19.9315 16.8923 19.9366C16.7203 20.2349 16.6015 20.411 16.5383 20.4455C16.4495 20.4939 16.3919 20.5208 16.3521 20.5208C16.3308 20.5208 16.3146 20.5131 16.3017 20.4967C16.2933 20.4862 16.2698 20.4477 16.3177 20.3938C16.5085 20.1818 16.7789 19.6859 16.7816 19.6809C16.7829 19.6785 16.7983 19.6491 16.8249 19.5983C16.8242 19.5942 16.7877 19.3633 16.7805 19.306C16.7803 19.3041 16.7786 19.3035 16.7767 19.3038C15.7922 19.4896 15.0485 19.4544 14.9695 19.1809C14.9125 18.9836 15.4266 18.6861 15.9487 18.4037C15.951 18.4025 15.951 18.3992 15.9487 18.3979C15.8055 18.3206 15.6629 18.2447 15.5325 18.1712C15.1876 17.9767 14.9281 17.7991 14.9695 17.6559ZM13.7827 31.032C13.7609 30.9237 13.7402 30.8151 13.7219 30.7062C13.7138 30.658 13.7066 30.6097 13.6993 30.5614C13.6803 30.4375 13.6628 30.3135 13.6484 30.1891C13.6451 30.1597 13.6425 30.1303 13.6394 30.1009C13.6244 29.9607 13.6118 29.8202 13.603 29.6793C13.6022 29.6668 13.6018 29.6544 13.6011 29.6419C13.5919 29.4864 13.586 29.3306 13.5845 29.1745V21.6236H33.6581V29.1706C33.6567 29.316 33.6508 29.4612 33.6427 29.6061C33.6409 29.6392 33.6393 29.6723 33.6371 29.7053C33.6285 29.8352 33.6174 29.9647 33.6036 30.094C33.5981 30.1467 33.5916 30.1992 33.5852 30.2517C33.5745 30.3391 33.5625 30.4263 33.5495 30.5134C33.5344 30.6155 33.5174 30.7173 33.4992 30.8189C33.4902 30.8691 33.481 30.9193 33.4712 30.9694C33.4376 31.1408 33.4004 31.3115 33.3584 31.4813C33.3582 31.482 33.358 31.4826 33.3579 31.4833H32.8196V29.9444H31.3902V28.6717H30.0382V27.1861H28.8183V25.8549H27.4891V24.71H26.087L26.0688 23.2244H24.6212L23.7563 22.0902L23.0235 23.2244H21.4621V24.6301H19.8006V25.9614H18.3712V27.2393H16.9692V28.6717H15.5398V29.8965H14.5247V31.1957H13.8178C13.806 31.1412 13.7936 31.0867 13.7827 31.032ZM16.4445 36.3397C16.4194 36.3106 16.395 36.281 16.3702 36.2517C16.1558 35.9981 15.9517 35.7372 15.7588 35.4695C15.7391 35.4421 15.7193 35.4147 15.6998 35.3871C15.6374 35.2991 15.5759 35.2106 15.516 35.1211C15.5084 35.1098 15.5011 35.0984 15.4936 35.087C15.2983 34.7937 15.1163 34.4931 14.9482 34.1864C14.9362 34.1645 14.9243 34.1427 14.9125 34.1208C14.7411 33.8033 14.5842 33.4795 14.4437 33.1501C14.4437 33.15 14.4437 33.15 14.4437 33.15H15.7447V31.7442H17.0739V30.3118H18.5806V28.8794H19.9827V27.4949H21.4621V26.0625H22.8915V24.7366H24.1387H24.4756V26.1158H25.7502V27.5216H27.1021V28.906H28.5042V30.2586H29.8789V31.7176H31.6223V33.331H32.7189C32.7189 33.3311 32.7189 33.3311 32.7189 33.3311C32.6705 33.4394 32.6203 33.547 32.5685 33.6541C32.5649 33.6614 32.5613 33.6686 32.5578 33.6759C32.4034 33.9931 32.2341 34.3044 32.051 34.609C32.0445 34.6197 32.0382 34.6304 32.0317 34.6412C31.9708 34.7417 31.9087 34.8415 31.8447 34.9405C31.8437 34.942 31.8427 34.9435 31.8417 34.9451C31.6495 35.2426 31.4435 35.5327 31.2253 35.815C31.2083 35.8371 31.1911 35.8591 31.1739 35.8811L30.5263 36.6443C30.5033 36.6693 30.4807 36.6946 30.4576 36.7195C30.3904 36.7916 30.3223 36.8628 30.2534 36.9335C30.2203 36.9674 30.1868 37.0011 30.1533 37.0347C29.9379 37.2513 29.7142 37.4607 29.4832 37.6627C29.4349 37.7049 29.3866 37.747 29.3376 37.7886C29.2744 37.8422 29.2109 37.8954 29.1466 37.9479C29.0891 37.9949 29.0309 38.0409 28.9726 38.0869C28.8909 38.1514 28.8086 38.2153 28.7253 38.2779C28.6414 38.341 28.5571 38.4036 28.4716 38.4648C28.4147 38.5055 28.357 38.5452 28.2994 38.585C28.2281 38.6343 28.1564 38.6829 28.0841 38.7309C28.0283 38.7679 27.9726 38.8049 27.9162 38.8411C27.8137 38.9068 27.7102 38.971 27.6058 39.034C27.554 39.0651 27.502 39.0957 27.4498 39.1262C27.3501 39.1844 27.2496 39.2416 27.1483 39.2972C27.097 39.3254 27.0454 39.3529 26.9938 39.3803C26.9001 39.4301 26.8057 39.4786 26.7108 39.5261C26.6656 39.5487 26.6208 39.5718 26.5753 39.5939C26.44 39.6596 26.3035 39.7233 26.1656 39.7843C26.1297 39.8002 26.0933 39.8151 26.0573 39.8306C25.9474 39.8781 25.8368 39.9241 25.7255 39.9685C25.6784 39.9873 25.6313 40.0058 25.584 40.024C25.4658 40.0695 25.3469 40.1132 25.2271 40.1551C25.1974 40.1655 25.1681 40.1767 25.1383 40.1868C24.9908 40.2373 24.8421 40.2846 24.6924 40.3296C24.6524 40.3416 24.612 40.3528 24.5719 40.3644C24.4553 40.3981 24.3381 40.4302 24.2203 40.4605C24.1759 40.472 24.1315 40.4835 24.0869 40.4945C23.9326 40.5324 23.7776 40.5683 23.6213 40.6002C23.4646 40.5682 23.3092 40.5322 23.1544 40.4942C23.1088 40.483 23.0635 40.471 23.018 40.4593C22.9029 40.4296 22.7883 40.3983 22.6743 40.3653C22.6303 40.3526 22.5863 40.3403 22.5425 40.3271C22.3919 40.2818 22.242 40.2343 22.0936 40.1834C22.0758 40.1773 22.0583 40.1705 22.0405 40.1643C21.909 40.1185 21.7785 40.0704 21.6489 40.0204C21.6016 40.0022 21.5546 39.9833 21.5076 39.9645C21.402 39.9224 21.2973 39.8788 21.1931 39.8338C21.1489 39.8148 21.1045 39.7962 21.0605 39.7767C20.9213 39.7148 20.7832 39.6509 20.6466 39.5843C20.6121 39.5674 20.5782 39.5495 20.5439 39.5323C20.4387 39.4799 20.3343 39.4263 20.2308 39.371C20.179 39.3434 20.1275 39.3152 20.076 39.2868C19.9862 39.2374 19.8972 39.1867 19.8087 39.1352C19.7603 39.1071 19.7116 39.0794 19.6636 39.0506C19.5395 38.9762 19.4166 38.9 19.2952 38.8217C19.2459 38.7899 19.1976 38.7568 19.1488 38.7244C19.0701 38.6721 18.9919 38.6194 18.9145 38.5656C18.8567 38.5255 18.7995 38.4849 18.7424 38.4438C18.673 38.3939 18.6043 38.343 18.5359 38.2917C18.4803 38.2501 18.4243 38.2089 18.3693 38.1664C18.2627 38.0839 18.1575 37.9998 18.0537 37.9142C17.993 37.8642 17.9336 37.8129 17.8739 37.7619C17.8198 37.7157 17.7659 37.6695 17.7127 37.6225C17.6498 37.5671 17.5875 37.5112 17.5258 37.4546C17.4788 37.4115 17.4325 37.3678 17.3862 37.324C17.2491 37.1948 17.1149 37.063 16.9838 36.9284C16.9675 36.9116 16.9507 36.8954 16.9345 36.8785C16.8681 36.8095 16.8033 36.7393 16.7385 36.6689C16.7046 36.6322 16.6707 36.5954 16.6373 36.5583C16.5722 36.486 16.5078 36.4133 16.4445 36.3397Z" fill="white"/>
<path d="M18.0822 19.4069C18.0958 19.3448 18.1129 19.24 18.1125 19.2434C17.9342 19.206 17.7487 19.1611 17.5585 19.1089C17.3606 19.1633 17.1676 19.2096 16.9827 19.2479C16.9823 19.248 16.9955 19.3411 17.0089 19.4084C17.1034 19.442 17.505 19.5655 18.0822 19.4069Z" fill="white"/>
<path d="M17.9499 17.3791C17.9427 17.3544 17.9354 17.3301 17.9277 17.3064C17.8229 16.9803 17.6889 16.8604 17.5555 16.8604C17.422 16.8604 17.2826 16.9803 17.1778 17.3064C17.1683 17.336 17.1593 17.3668 17.1505 17.398C17.4756 17.2461 17.7793 17.3143 17.9499 17.3791Z" fill="white"/>
<path d="M17.0417 19.5813C17.0862 19.7831 17.0862 19.7623 17.1219 19.8724C17.1908 19.8973 17.5107 19.9953 17.9718 19.867C17.9932 19.7904 18.0314 19.6624 18.0499 19.5781C17.8445 19.628 17.6613 19.6457 17.5056 19.6457C17.3024 19.6457 17.1413 19.6079 17.0417 19.5813Z" fill="white"/>
<path d="M29.4821 20.0462C29.517 20.1413 29.5727 20.2422 29.6073 20.2835C29.8135 20.3491 29.8744 20.3512 30.1112 20.2804C30.1592 20.2056 30.1838 20.1497 30.2224 20.0391C30.0633 20.0773 29.9739 20.086 29.853 20.086C29.7035 20.086 29.5604 20.066 29.4821 20.0462Z" fill="white"/>
<path d="M17.1817 20.0462C17.2166 20.1413 17.2723 20.2422 17.307 20.2835C17.5131 20.3491 17.574 20.3512 17.8108 20.2804C17.8588 20.2056 17.8834 20.1497 17.922 20.0391C17.7629 20.0773 17.6735 20.086 17.5526 20.086C17.4031 20.086 17.26 20.066 17.1817 20.0462Z" fill="white"/>
<path d="M30.3826 19.4069C30.3962 19.3448 30.4133 19.24 30.4129 19.2434C30.2346 19.206 30.0491 19.1611 29.8589 19.1089C29.6609 19.1633 29.468 19.2096 29.2831 19.2479C29.2827 19.248 29.2958 19.3411 29.3093 19.4084C29.4038 19.442 29.8054 19.5655 30.3826 19.4069Z" fill="white"/>
<path d="M29.3421 19.5813C29.3865 19.7831 29.3866 19.7623 29.4222 19.8724C29.4912 19.8973 29.8111 19.9953 30.2721 19.867C30.2936 19.7904 30.3318 19.6624 30.3503 19.5781C30.1449 19.628 29.9617 19.6457 29.806 19.6457C29.6028 19.6457 29.4417 19.6079 29.3421 19.5813Z" fill="white"/>
<path d="M30.2502 17.3791C30.2431 17.3544 30.2357 17.3301 30.2281 17.3064C30.1233 16.9803 29.9893 16.8604 29.8558 16.8604C29.7224 16.8604 29.583 16.9803 29.4782 17.3064C29.4687 17.336 29.4597 17.3668 29.4508 17.398C29.776 17.2461 30.0797 17.3143 30.2502 17.3791Z" fill="white"/>
</g>
<defs>
<clipPath id="clip0_310_2">
<rect width="47" height="54" fill="white"/>
</clipPath>
</defs>
</svg>
