<?xml version="1.0" encoding="utf-8"?>
<!-- Generator: Adobe Illustrator 23.0.1, SVG Export Plug-In . SVG Version: 6.00 Build 0)  -->
<svg version="1.1" id="Layer_1" xmlns="http://www.w3.org/2000/svg" xmlns:xlink="http://www.w3.org/1999/xlink" x="0px" y="0px" viewBox="0 0 143.83275 142.50047" style="enable-background:new 0 0 143.83275 142.50047;" xml:space="preserve" class="hd8a3+6e1ab2582b" >
<style type="text/css">.hd8a3+6e1ab2582b .st0{fill:#FF0000;} </style>
<g>
	<path class="st0" d="M68.83316,142.50023c-37.95507,0-68.8335-30.87841-68.8335-68.833
		c0-37.95508,30.87842-68.8335,68.8335-68.8335c6.56689,0,13.06396,0.92432,19.31006,2.74658
		c2.12109,0.61865,3.33887,2.83936,2.71973,4.95996C90.2438,14.66186,88.0231,15.8811,85.90298,15.26
		c-5.51855-1.60986-11.26172-2.42627-17.06982-2.42627c-33.54394,0-60.83349,27.28955-60.83349,60.8335
		c0,33.54346,27.28955,60.833,60.83349,60.833c33.54346,0,60.8335-27.28954,60.8335-60.833
		c0-5.0835-0.62793-10.13428-1.86621-15.0127c-0.54395-2.1416,0.75195-4.31787,2.89258-4.86133
		c2.1377-0.54688,4.31738,0.75098,4.86133,2.89258c1.40137,5.52148,2.1123,11.23486,2.1123,16.98145
		C137.66666,111.62182,106.78775,142.50023,68.83316,142.50023z"/>
	<path class="st0" d="M121.16666,45.33373c-2.20898,0-4-1.79102-4-4V4.00024c0-2.20898,1.79102-4,4-4s4,1.79102,4,4v37.3335
		C125.16666,43.54272,123.37564,45.33373,121.16666,45.33373z"/>
	<path class="st0" d="M139.83267,26.66723h-37.33301c-2.20898,0-4-1.79102-4-4s1.79102-4,4-4h37.33301c2.20898,0,4,1.79102,4,4
		S142.04166,26.66723,139.83267,26.66723z"/>
	<g>
		<path d="M41.48111,98.06225V62.30053c-6.65479,5.10938-11.13477,7.66309-13.43994,7.66309
			c-1.10059,0-2.07666-0.43848-2.92773-1.31641c-0.85156-0.87695-1.27734-1.89258-1.27734-3.04492
			c0-1.33691,0.41895-2.31934,1.25781-2.94824c0.83789-0.62793,2.31836-1.44043,4.44043-2.43652
			c3.16992-1.49316,5.70459-3.06445,7.60449-4.71484c1.89893-1.65137,3.58203-3.49805,5.0498-5.54199
			c1.4668-2.04297,2.42285-3.30078,2.86865-3.77246c0.44531-0.47168,1.2832-0.70703,2.51514-0.70703
			c1.38818,0,2.50146,0.53711,3.34033,1.61133c0.83789,1.07422,1.25732,2.55469,1.25732,4.44043v44.99707
			c0,5.26563-1.79443,7.89844-5.38379,7.89844c-1.59814,0-2.88232-0.53711-3.85107-1.61133
			C41.96549,101.74291,41.48111,100.15893,41.48111,98.06225z"/>
		<path d="M65.53775,60.45385c0-2.61914,0.71338-5.08887,2.1416-7.4082c1.42773-2.31836,3.52344-4.1709,6.28809-5.56055
			c2.76367-1.3877,5.99316-2.08301,9.6875-2.08301c3.11719,0,5.85547,0.40723,8.21289,1.21875
			c2.3584,0.8125,4.32324,1.93262,5.89453,3.36035c1.57227,1.42773,2.7373,3.03906,3.49805,4.83301
			c0.75977,1.79492,1.13965,3.70117,1.13965,5.71777c0,2.56836-0.66211,4.86035-1.98438,6.87793
			c-1.32324,2.01758-3.29492,3.66797-5.91504,4.95117c2.22656,0.86426,4.07324,1.99805,5.54102,3.39941
			c1.4668,1.40137,2.57422,3.02637,3.32129,4.87305c0.74609,1.84668,1.12012,3.89746,1.12012,6.15039
			c0,3.30078-0.7998,6.29395-2.39746,8.97949c-1.59863,2.68555-3.94336,4.78809-7.03418,6.30762
			c-3.0918,1.51855-6.73438,2.2793-10.92578,2.2793c-4.34863,0-8.06934-0.76074-11.16064-2.2793
			c-3.09131-1.51953-5.42285-3.60938-6.99512-6.26855c-1.57178-2.65918-2.35791-5.63965-2.35791-8.94043
			c0-7.04688,3.32714-11.88086,9.98242-14.50098C68.22281,69.84643,65.53775,65.8767,65.53775,60.45385z M93.71451,86.46947
			c0-2.04395-0.41895-3.8252-1.25684-5.34473c-0.83887-1.51953-2.01758-2.68555-3.53711-3.49805
			c-1.51953-0.81152-3.22266-1.21777-5.1084-1.21777c-2.67285,0-4.91309,0.89063-6.7207,2.67188
			c-1.80762,1.78223-2.71094,4.27051-2.71094,7.4668c0,2.04395,0.4248,3.8457,1.27637,5.40332
			c0.85156,1.55957,2.01074,2.76465,3.47852,3.61621c1.4668,0.85156,3.10449,1.27637,4.91211,1.27637
			c1.83398,0,3.48438-0.43164,4.95117-1.29688c1.46777-0.86426,2.62012-2.08203,3.45898-3.6543
			C93.29556,90.32006,93.71451,88.51244,93.71451,86.46947z M83.89029,52.90893c-2.46289,0-4.44727,0.76563-5.9541,2.29883
			c-1.50684,1.53223-2.25879,3.50391-2.25879,5.91406c0,2.22754,0.77246,4.08105,2.31836,5.56055
			c1.54492,1.48047,3.53711,2.2207,5.97363,2.2207c1.23047,0,2.35059-0.19629,3.35938-0.58984
			c1.00879-0.39258,1.87305-0.93652,2.59375-1.63086c0.7207-0.69336,1.27734-1.51855,1.66992-2.47559
			c0.39355-0.95605,0.58984-2.01074,0.58984-3.16309c0-1.5459-0.34766-2.93457-1.04102-4.16602
			c-0.69531-1.23145-1.6709-2.20117-2.92773-2.9082C86.95572,53.26244,85.51431,52.90893,83.89029,52.90893z"/>
	</g>
</g>
</svg>
