<?xml version="1.0" encoding="utf-8"?>
<!-- Generator: Adobe Illustrator 23.0.1, SVG Export Plug-In . SVG Version: 6.00 Build 0)  -->
<svg version="1.1" id="Layer_1" xmlns="http://www.w3.org/2000/svg" xmlns:xlink="http://www.w3.org/1999/xlink" x="0px" y="0px" viewBox="0 0 197.3622 135.3685" style="enable-background:new 0 0 197.3622 135.3685;" xml:space="preserve" class="hmeaace6begflbe9rbbw718a19" >
<style type="text/css">.hmeaace6begflbe9rbbw718a19 .st0{fill:#231F20;} </style>
<g>
	<g>
		<path class="st0" d="M19.22344,68.19095h13.71552v19.67336h-4.4977v-6.12582c-1.23681,2.02226-1.79795,2.75233-2.92309,3.70854
			c-2.58527,2.24932-5.73355,3.42888-9.10521,3.42888c-9.21782,0-16.41338-8.99445-16.41338-20.57234
			c0-11.69236,7.13925-20.79847,16.30171-20.79847c3.76577,0,8.20529,1.06883,11.80307,6.85868v-6.12768h4.15897v12.59129h-4.32786
			c-0.56119-2.19205-1.23589-3.59684-2.24839-4.83363c-2.24837-2.75509-5.28223-4.32879-8.43052-4.32879
			c-4.89089,0-11.91663,4.16083-11.91663,16.41248c0,9.50022,5.11519,16.58229,11.97202,16.58229
			c5.00348,0,9.72452-4.10359,10.84778-9.38763c0.16985-0.78547,0.22429-1.57277,0.28152-3.20275h-9.21782V68.19095
			L19.22344,68.19095z"/>
		<path class="st0" d="M66.72101,87.86431h-8.54496v-5.34035c-2.41545,3.76761-5.67633,5.90339-10.1168,5.90339
			c-5.62097,0-9.72453-3.87933-9.72453-9.10614c0-5.73357,5.05885-8.6022,16.97453-9.72547
			c0.39507-0.0563,1.63094-0.16796,2.81142-0.2815v-3.09106c0-3.42705-2.64157-5.56558-6.80147-5.56558
			c-4.38509,0-6.35194,1.46202-7.25093,5.34039H39.5152c0.67376-3.03386,1.57367-4.60939,3.37257-6.18213
			c2.02504-1.68631,4.83457-2.5853,8.09362-2.5853c6.18399,0,11.46807,2.8668,11.46807,10.45369v16.63953h4.27155V87.86431
			L66.72101,87.86431z M58.12067,72.4053l-2.75419,0.33781c-9.21875,1.12421-12.3098,2.81049-12.3098,6.63255
			c0,3.1483,2.7542,5.73357,6.23842,5.73357c5.34039,0,8.82557-5.05798,8.82557-7.81303V72.4053L58.12067,72.4053z"/>
		<path class="st0" d="M79.22649,63.29916c1.34938-2.07857,4.04726-6.23846,9.55563-6.23846
			c3.99094,0,6.29564,2.08136,7.02666,6.2957c1.18048-2.02226,1.74256-2.75326,2.86677-3.70855
			c1.96686-1.74352,4.10266-2.58715,6.46363-2.58715c4.60936,0,7.30724,2.97941,7.30724,8.20625v19.05681h4.15992v3.54056h-8.48778
			V66.84248c0-4.2171-1.40479-6.12766-4.32879-6.12766c-5.22684,0-7.981,6.29565-7.981,8.31974v15.28919h4.32788v3.54056H91.4809
			V66.1659c0-3.7648-1.40568-5.45108-4.32879-5.45108c-4.66473,0-7.98103,5.78982-7.98103,8.54496v15.06397h4.27158v3.54056
			H70.45724v-3.54056h4.38509v-23.1604h-4.38509v-3.59684h8.76926V63.29916L79.22649,63.29916z"/>
		<path class="st0" d="M121.10307,46.4926h8.43146v17.48308c1.12421-2.13575,4.60938-6.68883,9.89253-6.68883
			c6.80147,0,11.9729,6.91405,11.9729,15.79499c0,8.2616-5.50835,15.17475-12.08458,15.17475
			c-5.34036,0-7.92566-3.54056-9.78085-6.06954v5.67726h-8.60034v-3.54056h4.27248V50.03592h-4.10359V46.4926L121.10307,46.4926z
			 M129.53453,75.10407c0,5.00255,4.04727,9.44395,8.65663,9.44395c5.17146,0,8.48686-4.66656,8.48686-11.91567
			c0-6.97036-3.3154-11.74957-8.31793-11.74957c-4.38507,0-8.82556,4.89089-8.82556,9.16245V75.10407L129.53453,75.10407z"/>
		<polygon class="st0" points="154.82335,46.4926 163.42366,46.4926 163.42366,84.32375 167.47092,84.32375 167.47092,87.86431 
			154.76791,87.86431 154.76791,84.32375 159.09579,84.32375 159.09579,50.03592 154.82335,50.03592 154.82335,46.4926 		"/>
		<path class="st0" d="M196.68883,79.54547c-0.61838,2.07948-1.29309,3.31629-2.41728,4.60754
			c-2.4173,2.81232-5.73354,4.32878-9.50021,4.32878c-8.20625,0-13.93889-6.40733-13.93889-15.62514
			c0-8.88097,5.73264-15.68331,13.20879-15.68331c7.53244,0,13.32138,5.84708,13.32138,16.4143h-21.86543
			c0.39319,4.43954,1.4057,6.91405,3.48518,8.93632c1.57367,1.5183,3.42886,2.24929,5.67726,2.24929
			c3.48517,0,5.62096-1.57553,7.13834-5.22778H196.68883L196.68883,79.54547z M192.36098,70.26952
			c-0.33781-3.76488-1.18143-5.84435-2.92308-7.5306c-1.34938-1.23682-3.03569-1.85613-5.00348-1.85613
			c-3.65317,0-6.68886,2.47361-8.03732,6.46546c-0.22523,0.72919-0.50673,1.8543-0.61842,2.92127H192.36098L192.36098,70.26952z"/>
	</g>
	<g>
		<path class="st0" d="M14.05196,95.06626h9.49935l10.90407,33.16366h2.98031v6.46457h-9.10613l-2.58527-8.60034H11.80358
			l-2.5862,8.60034h-9.21779v-6.46457h3.03566L14.05196,95.06626L14.05196,95.06626z M18.82931,102.48518L13.5462,120.0237H24.0008
			L18.82931,102.48518L18.82931,102.48518z"/>
		<polygon class="st0" points="37.2105,104.62189 49.23972,104.62189 49.23972,110.46807 46.20403,110.46807 50.363,128.17361 
			55.31016,104.62189 63.06692,104.62189 68.06947,127.89211 72.06047,110.46807 69.1374,110.46807 69.1374,104.62189 
			81.22286,104.62189 81.22286,110.46807 78.63672,110.46807 72.17213,134.69449 64.19107,134.69449 59.18856,113.78343 
			54.46656,134.69449 46.37294,134.69449 39.73946,110.46807 37.2105,110.46807 37.2105,104.62189 		"/>
		<path class="st0" d="M109.66454,128.8474h2.5862v5.84709h-9.33133v-3.54056c-3.09106,3.09106-5.39571,4.15804-9.10521,4.15804
			c-6.0151,0-10.62443-4.04729-10.62443-9.38581c0-8.82646,9.94971-9.78175,19.56165-10.68073
			c-0.05622-4.60936-1.18049-5.78988-5.56555-5.78988c-3.091,0-5.22687,1.74352-5.39576,4.55309l-7.30724-0.2252
			c0.39316-6.01417,5.22777-9.89256,12.36617-9.89256c8.31878,0,12.8155,3.76669,12.8155,10.62353V128.8474L109.66454,128.8474z
			 M102.63881,120.47319c-7.08292,0.67379-11.69135,1.2931-11.69135,5.45296c0,2.47175,1.96686,4.10174,4.94621,4.10174
			c3.82206,0,6.74514-2.86678,6.74514-6.63163V120.47319L102.63881,120.47319z"/>
		<path class="st0" d="M127.76431,109.28758c1.96771-3.82208,4.15979-5.39671,7.53145-5.39671
			c1.0125,0,1.91148,0.11264,3.37354,0.39411v7.0267c-1.34944-0.2806-2.41731-0.39411-3.65407-0.39411
			c-3.93474,0-7.25092,2.80956-7.25092,6.23936v11.69047h3.59773v5.84709h-13.88354v-5.84709h2.92218v-18.37933h-2.8668v-5.84618
			h10.23042V109.28758L127.76431,109.28758z"/>
		<path class="st0" d="M168.90985,124.80105c-1.34938,6.51994-6.80147,10.56722-14.10872,10.56722
			c-8.43138,0-14.61453-6.57532-14.61453-15.79499c0-9.10521,6.23943-15.85037,14.67087-15.85037
			c4.77733,0,8.9926,2.24931,11.5788,6.12769c2.75418,4.21527,2.86679,8.20439,2.97935,11.241h-21.69745
			c0.73099,7.81303,5.84621,8.20529,7.25096,8.20529c2.9794,0,4.94716-1.40478,6.12675-4.49584H168.90985L168.90985,124.80105z
			 M161.2085,115.9192c-0.50487-3.82208-2.81047-5.90063-6.35103-5.90063c-3.26091,0-5.78987,2.19209-6.74519,5.90063H161.2085
			L161.2085,115.9192z"/>
	</g>
	<g>
		<path class="st0" d="M0.11217,0.00023h15.12031c6.74607,0,9.27412,0.2243,11.1856,1.0688
			c2.6425,1.12331,6.07048,4.32789,6.07048,9.55473c0,3.99098-1.29313,5.95784-5.11519,8.03733
			c4.49678,1.85703,6.57718,4.6666,6.57718,9.89344c0,6.63438-5.11606,11.07392-12.76021,11.07392H-0.00041v-6.46456h3.09197v-26.7
			H0.11217V0.00023L0.11217,0.00023z M11.18612,6.46389v9.61191h7.81211c3.3726,0,5.67819-2.07854,5.67819-5.05885
			c0-2.6416-2.5862-4.55305-6.23934-4.55305H11.18612L11.18612,6.46389z M11.18612,22.31517v10.84872h8.31883
			c3.54056,0,6.29564-2.30376,6.29564-5.34035c0-3.31629-2.81139-5.50837-7.08387-5.50837H11.18612L11.18612,22.31517z"/>
		<path class="st0" d="M67.13082,29.73502c-1.34847,6.51994-6.80144,10.56722-14.10871,10.56722
			c-8.43143,0-14.61449-6.57532-14.61449-15.79499c0-9.10521,6.23936-15.85037,14.67173-15.85037
			c4.77735,0,8.99168,2.24932,11.57881,6.12768c2.75326,4.21527,2.86585,8.20439,2.97845,11.24101H45.9401
			c0.73098,7.81304,5.84616,8.2053,7.25,8.2053c2.98031,0,4.94718-1.40478,6.12861-4.49585H67.13082L67.13082,29.73502z
			 M59.42945,20.85318c-0.50485-3.82209-2.80955-5.90063-6.35011-5.90063c-3.26183,0-5.78986,2.19208-6.74606,5.90063H59.42945
			L59.42945,20.85318z"/>
	</g>
</g>
</svg>
