<?xml version="1.0" encoding="utf-8"?>
<!-- Generator: Adobe Illustrator 23.0.1, SVG Export Plug-In . SVG Version: 6.00 Build 0)  -->
<svg version="1.1" id="Layer_1" xmlns="http://www.w3.org/2000/svg" xmlns:xlink="http://www.w3.org/1999/xlink" x="0px" y="0px" viewBox="0 0 131.707 146.466" style="enable-background:new 0 0 131.707 146.466;" xml:space="preserve" class="hg44a2605r04m6e5a2ca" >
<style type="text/css">.hg44a2605r04m6e5a2ca .st0{fill:#231F20;} </style>
<g>
	<g>
		<path d="M20.63999,135.8331c-0.2847,6.44341-4.5899,10.6328-10.3487,10.6328c-3.0214,0-5.6162-1.168-7.6684-3.4765
			c-1.7105-1.9102-2.6231-4.3907-2.6231-7.1846c0-2.8223,1.083-5.41699,3.1646-7.4688c1.9668-1.96871,4.3901-2.9375,7.355-2.9375
			c4.1338,0,7.3271,2.0254,8.8945,5.5303h-3.6196c-1.3404-1.709-3.2227-2.5928-5.503-2.5928c-1.9101,0-3.6777,0.73929-5.0175,2.1084
			c-1.4253,1.4532-2.2232,3.4502-2.2232,5.3887c0,2.1377,0.7407,4.07619,2.0523,5.4453c1.3969,1.45309,3.3066,2.2803,5.1884,2.2803
			c3.0503,0,5.4449-1.62601,6.9849-4.875h-9.1797v-2.8506H20.63999z"/>
		<path d="M23.79529,146.0675h-3.108l7.9253-20.26961h2.8516l7.9248,20.26961h-3.2212l-2.2236-5.90041h-7.8682L23.79529,146.0675z
			 M30.03889,129.61829l-2.9087,7.69621h5.7593L30.03889,129.61829z"/>
		<path d="M40.49449,146.0675V125.7979h4.3613l5.873,15.6797l5.8726-15.6797h4.3052v20.26961h-2.7652l0.1993-17.5899l-6.585,17.5899
			h-2.0815l-6.5567-17.5899l0.1992,17.5899H40.49449z"/>
		<path d="M73.81189,146.4659c-2.99519,0-5.5318-1.1113-7.52689-3.2207c-1.9102-2.02339-2.8799-4.53319-2.8799-7.52539
			c0-2.7939,1.05519-5.36031,3.0791-7.3271c1.9961-1.9688,4.5054-2.9942,7.3843-2.9942c4.7324,0,8.7793,3.1084,10.0918,8.09669
			h-5.3594c-1.083-1.99609-2.709-3.0508-4.7041-3.0508c-3.0224,0-5.3882,2.33688-5.3882,5.3037
			c0,3.2207,2.5093,5.70119,5.3033,5.70119c1.9091,0,3.59171-1.02638,4.6748-2.90819h5.3886
			C82.53449,143.47279,78.68589,146.4659,73.81189,146.4659z"/>
		<path d="M88.88409,146.0675h-5.417l7.7823-20.26961h4.0488l7.7822,20.26961h-5.4736l-0.9981-2.93651h-6.6982L88.88409,146.0675z
			 M93.27279,132.44051l-2.0234,6.49899h4.0205L93.27279,132.44051z"/>
		<path d="M103.47199,146.0675V125.7979h6.72749c2.1377,0,3.7637,0.1426,5.1329,1.11139c1.7959,1.25391,2.7363,3.164,2.7363,5.67281
			c0,3.27931-1.7109,5.7305-4.5899,6.52831l4.96,6.95711h-6.1299l-3.8769-6.52831v6.52831H103.47199z M109.40169,135.1485
			c2.4521,0,3.6484-0.6279,3.6484-2.4521c0-1.6826-1.0537-2.3652-3.249-2.3652h-1.36909v4.81731H109.40169z"/>
		<path d="M120.68589,146.0675V125.7979h11.0039v4.47661h-6.044v3.27739h6.044v4.50391h-6.044v3.5361h6.044v4.4756H120.68589z"/>
	</g>
	<g>
		<path class="st0" d="M128.09799,70.1256c-0.544-0.30711-1.1436-0.5147-1.7871-0.604c-0.1514-0.0254-0.3018-0.0308-0.4551-0.0459
			c-0.082-0.0039-0.1602-0.02441-0.2432-0.02441h-0.2295c-0.20409-0.00488-0.4082-0.01518-0.6103,0h-39.6358
			c-2.8046,0-5.0791,2.27341-5.0791,5.07711c0,2.8047,2.2745,5.0791,5.0791,5.0791h15.3995
			c0.5078,0.0039,0.9189,0.417,0.9189,0.92579c0,0.29391-0.1553,0.53611-0.3701,0.70512
			c-8.4434,4.5097-19.3037,7.2431-31.1856,7.2431c-2.89159,0-5.7187-0.1689-8.4711-0.4775v11.52929
			c2.3979,0.17581,4.831,0.27541,7.3022,0.27541c16.5371,0,31.5811-4.043,42.8574-10.64841l0.0029,0.01562
			c0.1397-0.0733,0.29691-0.1153,0.4649-0.1153c0.5518,0,0.999,0.4473,0.999,0.9991c0,0.10059-0.0185,0.1972-0.04881,0.291
			l-2.3496,6.3799c-1.2363,3.3564,0.48041,7.0781,3.83791,8.3144c0.7383,0.2735,1.49409,0.4014,2.2383,0.4014
			c2.6357,0,5.1113-1.62011,6.0761-4.2383l8.49999-23.0713C132.4632,75.003,131.02278,71.57629,128.09799,70.1256z"/>
		<path class="st0" d="M69.89969,26.5611c11.9756-0.0005,22.9385,2.7574,31.4102,7.3306c0,0,5.3799,3.8721,7.9395,0.1553
			c2.9375-4.2652-2.9278-6.9195-2.9278-6.9195c-10.5127-4.9433-23.51559-7.8667-37.5908-7.86621
			c-2.4712,0-4.9043,0.09961-7.3022,0.27541v7.5029C64.18099,26.7315,67.00809,26.5611,69.89969,26.5611z"/>
		<g>
			<path d="M9.03739,0.0001c-4.9448,0-8.956,4.0103-8.956,8.9561v97.7216c0,4.9473,4.0112,8.9551,8.956,8.9551h52.3912V99.53329
				c-31.5225-2.30369-56.0064-19.32809-56.0064-39.998c0-20.67088,24.4839-37.69439,56.0064-39.99858V0.0001H9.03739z"/>
			<path d="M21.28739,57.5221c0,15.2563,17.334,27.92719,40.1412,30.4819V27.0396
				C38.62139,29.5938,21.28739,42.2638,21.28739,57.5221z"/>
		</g>
	</g>
</g>
</svg>
