<?xml version="1.0" encoding="utf-8"?>
<!-- Generator: Adobe Illustrator 23.0.1, SVG Export Plug-In . SVG Version: 6.00 Build 0)  -->
<svg version="1.1" id="Layer_1" xmlns="http://www.w3.org/2000/svg" xmlns:xlink="http://www.w3.org/1999/xlink" x="0px" y="0px" viewBox="0 0 127.559 127.574" style="enable-background:new 0 0 127.559 127.574;" xml:space="preserve" class="ho8i1d87cn00ct25B8ie" >
<style type="text/css">.ho8i1d87cn00ct25B8ie .st0{fill:#F7931A;} .ho8i1d87cn00ct25B8ie .st1{fill:#FFFFFF;} </style>
<g>
	<path class="st0" d="M125.6504,79.21532c-8.52025,34.17468-43.13087,54.96821-77.30534,46.44994
		c-34.16093-8.52025-54.95844-43.13286-46.4344-77.30156c8.51447-34.17847,43.12509-54.97398,77.29-46.45473
		C113.37513,10.42843,134.16866,45.04483,125.6504,79.21532z"/>
	<path class="st1" d="M96.10387,55.09682c1.39565-9.31852-5.70014-14.32838-15.40341-17.67099l3.14828-12.62283l-7.68344-1.915
		l-3.06488,12.29038c-2.01983-0.50315-4.09505-0.97763-6.15318-1.44796l3.08392-12.37267l-7.67905-1.915l-3.14827,12.61954
		c-1.6736-0.38147-3.31504-0.75768-4.90722-1.15294l0.00854-0.03961L43.7085,28.22375l-2.04544,8.20716
		c0,0,5.70234,1.30592,5.58043,1.38712c3.11412,0.77694,3.67615,2.83617,3.58226,4.46907l-3.58642,14.38069
		c0.21579,0.05559,0.49374,0.13678,0.79927,0.2565c-0.2565-0.06303-0.53007-0.13372-0.81218-0.20091l-5.02475,20.14605
		c-0.38037,0.9446-1.34641,2.36169-3.5201,1.82506c0.07485,0.11118-5.58678-1.39565-5.58678-1.39565l-3.81512,8.79939
		l10.00047,2.49407c1.85941,0.46597,3.6825,0.95315,5.47778,1.41275l-3.18022,12.76815l7.6749,1.915l3.14827-12.63552
		c2.09665,0.57056,4.13137,1.09429,6.1232,1.59219l-3.13754,12.5714l7.68365,1.915l3.18023-12.74232
		c13.10146,2.47922,22.95661,1.47882,27.10287-10.37012c3.34261-9.54088-0.16677-15.04646-7.05946-18.63703
		C91.31439,65.22118,95.09515,61.91905,96.10387,55.09682z M78.54821,79.71413c-2.37438,9.54066-18.44028,4.38569-23.65105,3.09049
		l4.2211-16.9155C64.32685,67.18958,81.02962,69.76509,78.54821,79.71413z M80.925,54.95895
		c-2.16713,8.68054-15.5402,4.27035-19.87664,3.18897l3.82563-15.34257C69.21043,43.88672,83.18186,45.90437,80.925,54.95895z"/>
</g>
</svg>
