<?xml version="1.0" encoding="utf-8"?>
<!-- Generator: Adobe Illustrator 22.0.1, SVG Export Plug-In . SVG Version: 6.00 Build 0)  -->
<svg version="1.1" id="Layer_1" xmlns="http://www.w3.org/2000/svg" xmlns:xlink="http://www.w3.org/1999/xlink" x="0px" y="0px"
	 viewBox="0 0 235.3 100" style="enable-background:new 0 0 235.3 100;" xml:space="preserve">
<style type="text/css">
	.st0{fill:#741113;}
	.st1{fill:url(#SVGID_1_);}
	.st2{fill:url(#SVGID_2_);}
	.st3{fill:#9E1D22;}
</style>
<g>
	<path class="st0" d="M68.3,89.2h-3.6V87c-1,0.9-2.1,1.6-3.3,2.1c-1.1,0.5-2.4,0.8-3.7,0.8c-2.6,0-4.6-1-6.1-3
		c-1.5-2-2.3-4.7-2.3-8.3c0-1.8,0.3-3.5,0.8-4.9c0.5-1.4,1.2-2.7,2.1-3.7c0.9-1,1.9-1.7,3.1-2.2c1.2-0.5,2.4-0.8,3.6-0.8
		c1.1,0,2.1,0.1,3,0.4c0.9,0.2,1.8,0.6,2.8,1.1v-9.4h3.6V89.2z M64.7,83.9V71.5c-1-0.4-1.9-0.7-2.6-0.9c-0.8-0.2-1.6-0.3-2.5-0.3
		c-2,0-3.6,0.7-4.8,2.1c-1.1,1.4-1.7,3.4-1.7,6c0,2.6,0.4,4.5,1.3,5.9c0.9,1.3,2.3,2,4.2,2c1,0,2.1-0.2,3.1-0.7
		C62.8,85.2,63.8,84.6,64.7,83.9z"/>
	<path class="st0" d="M86.4,71.6h-0.2c-0.5-0.1-1.1-0.2-1.6-0.3c-0.5-0.1-1.1-0.1-1.8-0.1c-1.1,0-2.2,0.2-3.3,0.7
		c-1,0.5-2.1,1.1-3,1.9v15.3h-3.6V67.6h3.6v3.2c1.4-1.2,2.7-2,3.8-2.5c1.1-0.5,2.2-0.7,3.4-0.7c0.6,0,1.1,0,1.4,0
		c0.3,0,0.7,0.1,1.3,0.2V71.6z"/>
	<path class="st0" d="M103.3,89.2h-3.6v-2.3c-0.3,0.2-0.8,0.5-1.3,0.9c-0.5,0.4-1.1,0.7-1.6,0.9c-0.6,0.3-1.3,0.5-2.1,0.7
		c-0.8,0.2-1.7,0.3-2.8,0.3c-1.9,0-3.6-0.6-5-1.9c-1.4-1.3-2-2.9-2-4.9c0-1.6,0.4-3,1.1-4c0.7-1,1.7-1.8,3-2.4
		c1.3-0.6,2.9-1,4.7-1.2c1.8-0.2,3.8-0.4,5.9-0.5v-0.6c0-0.8-0.1-1.5-0.4-2.1c-0.3-0.5-0.7-1-1.2-1.3c-0.5-0.3-1.1-0.5-1.9-0.6
		c-0.7-0.1-1.5-0.2-2.3-0.2c-1,0-2,0.1-3.2,0.4c-1.2,0.3-2.4,0.6-3.6,1.1h-0.2v-3.7c0.7-0.2,1.7-0.4,3.1-0.6c1.3-0.2,2.7-0.3,4-0.3
		c1.5,0,2.8,0.1,4,0.4c1.1,0.3,2.1,0.7,2.9,1.3c0.8,0.6,1.4,1.4,1.9,2.3c0.4,0.9,0.6,2.1,0.6,3.5V89.2z M99.6,83.9v-6
		c-1.1,0.1-2.4,0.2-3.9,0.3c-1.5,0.1-2.7,0.3-3.6,0.6c-1,0.3-1.9,0.8-2.5,1.4c-0.6,0.6-1,1.5-1,2.6c0,1.2,0.4,2.2,1.1,2.8
		c0.7,0.6,1.9,0.9,3.4,0.9c1.3,0,2.4-0.2,3.5-0.7C97.8,85.2,98.7,84.6,99.6,83.9z"/>
	<path class="st0" d="M125.2,86.8c0,3.7-0.8,6.4-2.5,8.1c-1.7,1.7-4.2,2.6-7.7,2.6c-1.1,0-2.3-0.1-3.4-0.2c-1.1-0.2-2.2-0.4-3.2-0.7
		v-3.7h0.2c0.6,0.2,1.5,0.5,2.8,0.9c1.3,0.3,2.6,0.5,3.9,0.5c1.2,0,2.3-0.1,3.1-0.4c0.8-0.3,1.4-0.7,1.9-1.2c0.5-0.5,0.8-1.1,1-1.8
		c0.2-0.7,0.3-1.5,0.3-2.4v-2c-1.1,0.9-2.1,1.5-3.1,2c-1,0.4-2.3,0.6-3.8,0.6c-2.6,0-4.6-0.9-6.1-2.8c-1.5-1.9-2.3-4.5-2.3-7.9
		c0-1.9,0.3-3.5,0.8-4.8c0.5-1.3,1.2-2.5,2.1-3.5c0.8-0.9,1.9-1.6,3.1-2.1c1.2-0.5,2.4-0.8,3.6-0.8c1.3,0,2.3,0.1,3.1,0.4
		c0.8,0.3,1.7,0.6,2.7,1.2l0.2-0.9h3.4V86.8z M121.5,83.3V71.5c-1-0.4-1.9-0.8-2.7-0.9c-0.8-0.2-1.7-0.3-2.5-0.3c-2,0-3.6,0.7-4.7,2
		c-1.1,1.3-1.7,3.3-1.7,5.8c0,2.4,0.4,4.3,1.3,5.5c0.9,1.3,2.3,1.9,4.2,1.9c1.1,0,2.1-0.2,3.2-0.6C119.7,84.5,120.7,84,121.5,83.3z"
		/>
	<path class="st0" d="M148.2,78.4c0,3.5-0.9,6.3-2.7,8.3c-1.8,2-4.2,3.1-7.3,3.1c-3.1,0-5.5-1-7.3-3.1c-1.8-2-2.7-4.8-2.7-8.3
		s0.9-6.3,2.7-8.4c1.8-2,4.2-3.1,7.3-3.1c3,0,5.5,1,7.3,3.1C147.2,72.1,148.2,74.9,148.2,78.4z M144.4,78.4c0-2.8-0.5-4.9-1.6-6.2
		c-1.1-1.4-2.6-2-4.6-2c-2,0-3.5,0.7-4.6,2c-1.1,1.4-1.6,3.4-1.6,6.2c0,2.7,0.5,4.8,1.6,6.2c1.1,1.4,2.6,2.1,4.6,2.1
		c1.9,0,3.5-0.7,4.6-2.1C143.8,83.2,144.4,81.2,144.4,78.4z"/>
	<path class="st0" d="M169.2,89.2h-3.6V76.9c0-1-0.1-1.9-0.2-2.8c-0.1-0.9-0.3-1.6-0.6-2c-0.3-0.5-0.8-0.9-1.4-1.2
		c-0.6-0.3-1.4-0.4-2.4-0.4c-1,0-2,0.2-3.1,0.7c-1.1,0.5-2.1,1.1-3.1,1.9v16.1h-3.6V67.6h3.6V70c1.1-0.9,2.3-1.7,3.5-2.2
		c1.2-0.5,2.5-0.8,3.7-0.8c2.3,0,4.1,0.7,5.3,2.1c1.2,1.4,1.8,3.4,1.8,6.1V89.2z"/>
	<path d="M192.7,78.2c0,1.8-0.3,3.4-0.8,4.8c-0.5,1.5-1.2,2.7-2.1,3.7c-0.9,1-1.9,1.7-3,2.2c-1.2,0.5-2.4,0.8-3.7,0.8
		c-1.1,0-2.1-0.1-3-0.4c-0.9-0.2-1.8-0.6-2.8-1.1v9.1h-3.6V67.6h3.6v2.3c1-0.8,2.1-1.5,3.3-2c1.2-0.5,2.5-0.8,3.9-0.8
		c2.6,0,4.6,1,6.1,3C191.9,71.9,192.7,74.7,192.7,78.2z M188.9,78.3c0-2.6-0.4-4.6-1.3-5.8c-0.9-1.3-2.3-1.9-4.1-1.9
		c-1,0-2.1,0.2-3.2,0.7c-1.1,0.5-2.1,1-3,1.8v12.3c1,0.5,1.9,0.8,2.7,0.9c0.7,0.2,1.6,0.3,2.5,0.3c2,0,3.6-0.7,4.7-2.1
		C188.3,83,188.9,81,188.9,78.3z"/>
	<path d="M212.5,89.2h-3.6v-2.3c-0.3,0.2-0.8,0.5-1.3,0.9c-0.5,0.4-1.1,0.7-1.6,0.9c-0.6,0.3-1.3,0.5-2.1,0.7
		c-0.8,0.2-1.7,0.3-2.8,0.3c-1.9,0-3.6-0.6-5-1.9c-1.4-1.3-2-2.9-2-4.9c0-1.6,0.4-3,1.1-4c0.7-1,1.7-1.8,3-2.4
		c1.3-0.6,2.9-1,4.7-1.2c1.8-0.2,3.8-0.4,5.9-0.5v-0.6c0-0.8-0.1-1.5-0.4-2.1c-0.3-0.5-0.7-1-1.2-1.3c-0.5-0.3-1.1-0.5-1.9-0.6
		c-0.7-0.1-1.5-0.2-2.3-0.2c-1,0-2,0.1-3.2,0.4c-1.2,0.3-2.4,0.6-3.6,1.1h-0.2v-3.7c0.7-0.2,1.7-0.4,3.1-0.6c1.3-0.2,2.7-0.3,4-0.3
		c1.5,0,2.8,0.1,4,0.4c1.1,0.3,2.1,0.7,2.9,1.3c0.8,0.6,1.4,1.4,1.9,2.3c0.4,0.9,0.6,2.1,0.6,3.5V89.2z M208.9,83.9v-6
		c-1.1,0.1-2.4,0.2-3.9,0.3c-1.5,0.1-2.7,0.3-3.6,0.6c-1,0.3-1.9,0.8-2.5,1.4c-0.6,0.6-1,1.5-1,2.6c0,1.2,0.4,2.2,1.1,2.8
		c0.7,0.6,1.9,0.9,3.4,0.9c1.3,0,2.4-0.2,3.5-0.7C207,85.2,208,84.6,208.9,83.9z"/>
	<path d="M235.3,67.6l-12.6,29.6h-3.9l4-9l-8.6-20.6h3.9l6.6,16l6.7-16H235.3z"/>
	<g>
		<g>
			<linearGradient id="SVGID_1_" gradientUnits="userSpaceOnUse" x1="22.7549" y1="4.0029" x2="22.7549" y2="99.0569">
				<stop  offset="0" style="stop-color:#AE2027"/>
				<stop  offset="0.3308" style="stop-color:#E82334"/>
				<stop  offset="0.5462" style="stop-color:#F57F2C"/>
				<stop  offset="0.5503" style="stop-color:#F5822D"/>
				<stop  offset="0.592" style="stop-color:#F59B2F"/>
				<stop  offset="0.6371" style="stop-color:#F6B130"/>
				<stop  offset="0.6857" style="stop-color:#F7C331"/>
				<stop  offset="0.7391" style="stop-color:#F8D131"/>
				<stop  offset="0.7998" style="stop-color:#F8DB31"/>
				<stop  offset="0.8739" style="stop-color:#F9E030"/>
				<stop  offset="1" style="stop-color:#F9E230"/>
			</linearGradient>
			<path class="st1" d="M34,45.1c-1.5,2-1.9,3.4-1.8,4.6c0,1.2,0.6,2,1.9,2c1.3,0,2.1-1.2,2.9-3c1-2.4,1.6-4.3,2.8-5.7
				s2.7-1.8,2.7-1.8s-0.6,1.5-1.3,5.6c-0.6,3.6-0.7,7.3,0.5,11.3c1.1,3.7,3.9,9.7,3.9,17.7s-1.7,13.8-6.7,18.5
				c-3.9,3.6-9.8,5.4-16.2,5.6s-12.7-2.8-17-7.9C2.4,88.3,0,82,0,76.3s1.8-11.4,3-14.9s1.9-5.8,1-9.1s-1.3-4.9-2.3-6.8
				C0.8,43.5,0,41.9,0,41.9s1.5-0.7,2.9-0.4s2.9,1.6,3.8,3.9c0.9,2.3,1.5,4.2,2.5,5.4s1.9,1.1,2.5,0.8c0.5-0.3,1.4-1.5,0.6-3.3
				c-0.8-1.8-1.9-3-3.7-5.9s-3.1-6.8-3.2-11.6c-0.2-8.1,5.3-11.4,5.3-11.4s-1,4.1-0.6,7.8c0.4,4.4,1.7,6.4,3.5,6.2
				c1.8-0.1,2.3-2,2.1-3.9c-0.1-1.8-0.4-3.1-1.3-6.1c-1-3.2-1.6-6.4-0.5-10.5s3.3-7.2,4.9-9.3S23.2,0,23.2,0S22.7,3,23,7.2
				c0.2,4.3,1.2,6,2.3,7.5s2.9,3.7,3.6,6.4s0.8,6.1,0.4,8.1c-0.4,2-1.6,3.7-2.2,5.3c-0.6,1.7-0.3,3.6,1.1,4.3
				c1.4,0.6,2.9,0.3,3.7-0.9s1.4-2.3,1.6-5.3c0.2-3-0.6-8.3-0.6-8.3s2.2,1.4,3.4,3.5s1.7,4.3,1.7,6.8s-0.8,5-1.6,6.7
				C35.5,42.8,34,45.1,34,45.1z"/>
			<linearGradient id="SVGID_2_" gradientUnits="userSpaceOnUse" x1="22.8487" y1="14.2917" x2="22.8487" y2="97.1543">
				<stop  offset="0" style="stop-color:#EB382D"/>
				<stop  offset="0.5103" style="stop-color:#FBD01C"/>
				<stop  offset="0.6623" style="stop-color:#FADC5D"/>
				<stop  offset="0.8151" style="stop-color:#F9E788"/>
				<stop  offset="0.9327" style="stop-color:#F9EFA0"/>
				<stop  offset="1" style="stop-color:#F8F4AA"/>
			</linearGradient>
			<path class="st2" d="M38.2,54.2c0,0-0.2,3.6,1.2,7.4c1.4,3.8,3.6,9.2,3.6,16.1s-1.3,10.7-5.6,14.8c-3.7,3.6-9.8,5-14.6,4.9
				c-2.6,0-13-0.7-17.5-9.6S3.3,70,4.6,66.5c0,0,1.7-4.7,2.2-7.3c0.5-2.6-0.4-5-0.4-5s1.9,2.6,4.4,2.5c2.5-0.1,4.3-2,4.3-4.4
				s-1.3-4-2.5-5.6s-3.2-4.3-4.2-8.1s-0.5-5.1-0.5-5.1s0.3,2.9,1.9,4.3s2.9,1.6,4.6,1.3s3.2-1.8,3.5-5.1c0.4-3.3-0.6-5.1-1.5-8
				c-1.1-3.3-1.2-6.7,0.4-10.1c1.8-4,3.6-6,3.6-6s-0.6,3.6,1,7.5c1.6,3.9,4.2,4.6,5.1,8.8c0.8,3.8,0.6,6-0.9,8.6
				c-1.7,3-2.3,5.6-0.6,7.8c1.6,2,4.3,2.1,6.1,1.5c2.4-0.8,3.4-2.7,3.4-2.7s-0.1,1.2-2,4c-1.9,2.8-2.9,4-2.9,6.6s1.9,4.6,4.6,4.6
				S38.2,54.2,38.2,54.2z"/>
		</g>
		<g>
			<path class="st3" d="M39.4,74.8c0,1.9-0.3,3.8-0.8,5.6c-0.5,1.8-1.3,3.5-2.3,5h-8.6L27.1,83c-1,0.8-1.9,1.5-2.8,1.9
				c-0.9,0.4-1.9,0.7-3.1,0.7c-2.2,0-4-0.9-5.3-2.7c-1.3-1.8-2-4.3-2-7.4c0-3.2,0.8-5.7,2.4-7.6c1.6-1.9,3.5-2.8,5.8-2.8
				c1,0,1.8,0.1,2.5,0.3c0.7,0.2,1.5,0.6,2.4,1v-1h3.1v17.6H35c0.5-1,1-2.4,1.2-3.9c0.3-1.6,0.4-3,0.4-4.2c0-2.3-0.3-4.4-0.9-6.2
				c-0.6-1.9-1.5-3.5-2.6-4.8c-1.2-1.3-2.6-2.4-4.3-3.1c-1.7-0.7-3.6-1.1-5.8-1.1c-2.1,0-4,0.4-5.7,1.2c-1.7,0.8-3.2,1.9-4.5,3.3
				c-1.3,1.4-2.2,3-3,4.9c-0.7,1.9-1.1,3.9-1.1,6.1c0,2.3,0.3,4.4,1,6.3c0.7,1.9,1.6,3.5,2.9,4.9c1.3,1.4,2.8,2.5,4.5,3.2
				c1.7,0.7,3.6,1.1,5.7,1.1c1.1,0,2.3-0.1,3.5-0.2c1.2-0.2,2.3-0.4,3.4-0.7v3c-1.3,0.3-2.5,0.5-3.5,0.6c-1.1,0.1-2.2,0.2-3.4,0.2
				c-2.4,0-4.7-0.4-6.8-1.3c-2.1-0.9-3.9-2.1-5.4-3.7c-1.5-1.6-2.7-3.5-3.5-5.8c-0.8-2.2-1.3-4.7-1.3-7.5c0-2.6,0.4-5,1.3-7.2
				c0.9-2.2,2.1-4.2,3.6-5.8c1.5-1.6,3.3-2.9,5.4-3.9c2.1-0.9,4.3-1.4,6.7-1.4c2.6,0,4.8,0.4,6.9,1.3c2,0.9,3.7,2.1,5.1,3.6
				c1.4,1.6,2.4,3.4,3.2,5.6C39,69.7,39.4,72.1,39.4,74.8z M27.1,80.2V69.3c-0.8-0.4-1.6-0.7-2.2-0.9c-0.7-0.2-1.4-0.3-2.1-0.3
				c-1.7,0-3,0.6-4,1.9c-1,1.3-1.4,3-1.4,5.4c0,2.3,0.4,4,1.1,5.2c0.8,1.2,1.9,1.7,3.5,1.7c0.9,0,1.8-0.2,2.6-0.6
				C25.6,81.3,26.4,80.8,27.1,80.2z"/>
		</g>
	</g>
</g>
</svg>
