<?xml version="1.0" encoding="utf-8"?>
<!-- Generator: Adobe Illustrator 23.0.1, SVG Export Plug-In . SVG Version: 6.00 Build 0)  -->
<svg version="1.1" id="Layer_1" xmlns="http://www.w3.org/2000/svg" xmlns:xlink="http://www.w3.org/1999/xlink" x="0px" y="0px" viewBox="0 0 127.559 127.574" style="enable-background:new 0 0 127.559 127.574;" xml:space="preserve" class="hTa73eU4996125SDf" >
<style type="text/css">.hTa73eU4996125SDf .st0{fill:#53AE94;} .hTa73eU4996125SDf .st1{fill:#FFFFFF;} </style>
<g>
	<circle class="st0" cx="63.7795" cy="63.787" r="63.77953"/>
	<g>
		<path class="st1" d="M72.4874,69.96243v-0.01138c-0.48882,0.0341-3.01253,0.18189-8.62831,0.18189
			c-4.49037,0-7.63931-0.12505-8.75337-0.18189v0.01138c-17.26801-0.76166-30.14796-3.76281-30.14796-7.36648
			c0-3.59229,12.89132-6.60481,30.14796-7.36647v11.74316c1.12543,0.07957,4.36532,0.27283,8.83295,0.27283
			c5.3657,0,8.04856-0.22736,8.54874-0.27283V55.24084c17.23391,0.77303,30.07976,3.77418,30.07976,7.36647
			s-12.85722,6.59345-30.07976,7.36647 M72.4874,54.02448V43.52044h24.04334V27.50291H31.07373v16.01753h24.04335v10.50404
			c-19.54161,0.89808-34.22908,4.7632-34.22908,9.40135s14.69884,8.50327,34.22908,9.41271v33.67205h17.38169V72.83854
			c19.50751-0.89807,34.17224-4.7632,34.17224-9.40135c0-4.62678-14.66473-8.50328-34.17224-9.40135"/>
	</g>
</g>
</svg>
