<?xml version="1.0" encoding="utf-8"?>
<!-- Generator: Adobe Illustrator 22.0.1, SVG Export Plug-In . SVG Version: 6.00 Build 0)  -->
<svg version="1.1" id="Layer_1" xmlns="http://www.w3.org/2000/svg" xmlns:xlink="http://www.w3.org/1999/xlink" x="0px" y="0px"
	 viewBox="0 0 453 100" style="enable-background:new 0 0 453 100;" xml:space="preserve">
<style type="text/css">
	.st0{fill-rule:evenodd;clip-rule:evenodd;fill:#7B141F;}
	.st1{fill-rule:evenodd;clip-rule:evenodd;fill:#E2071F;}
	.st2{fill-rule:evenodd;clip-rule:evenodd;fill:#FFFFFF;}
	.st3{fill:#7B141F;}
</style>
<g>
	<rect x="20.3" y="20" class="st0" width="65" height="60"/>
	<polygon class="st1" points="28.5,30.5 63.3,30.5 80.7,49.9 63.3,71.2 28.5,71.2 44.1,49.9 	"/>
	<polyline class="st2" points="80.7,49.9 63.3,30.5 28.5,30.5 44.1,49.9 	"/>
	<path class="st3" d="M129.3,41.6c-1.8-2.1-4.4-3.3-7.7-3.3c-6.8,0-11.8,5.5-11.8,13c0,7.5,5,13,11.6,13c3.6,0,6.6-1.6,8.4-4.3
		l7.5,5.5c-3.4,4.8-9.2,7-14.8,7c-12.8,0-22.1-8.3-22.1-21.2c0-13,9.3-21.2,22.1-21.2c4.6,0,10.3,1.5,13.8,5.9L129.3,41.6z"/>
	<rect x="142" y="31.1" class="st3" width="9" height="40.4"/>
	<polygon class="st3" points="159.2,31.1 172.8,31.1 182.2,57.5 182.4,57.5 191.8,31.1 205.4,31.1 205.4,71.5 196.4,71.5 
		196.4,40.5 196.3,40.5 185.5,71.5 178.7,71.5 168.3,40.5 168.2,40.5 168.2,71.5 159.2,71.5 	"/>
	<path class="st3" d="M213.7,31.1h15.2c7.2,0,14.9,1.5,14.9,10.3c0,4.5-2.8,7.6-7,8.9v0.1c5.4,0.7,8.9,4.6,8.9,9.9
		c0,8.4-8.1,11.2-15.4,11.2h-16.7V31.1z M222.7,47.2h6.5c2.8,0,5.7-1.1,5.7-4.4c0-3.4-3.2-4.2-6.1-4.2h-6.1V47.2z M222.7,64h8.1
		c2.8,0,6-1.2,6-4.7c0-3.8-4.3-4.5-7.3-4.5h-6.8V64z"/>
	<polygon class="st3" points="257.3,31.7 263.2,31.7 286.2,64.7 286.3,64.7 286.3,31.7 291,31.7 291,71.4 285.1,71.4 262.1,38.5 
		262,38.5 262,71.4 257.3,71.4 	"/>
	<rect x="300.9" y="31.7" class="st3" width="4.7" height="39.7"/>
	<path class="st3" d="M328.3,31.7h4.4l16.9,39.7h-5.5l-4-9.8h-19.8l-4.1,9.8h-5.3L328.3,31.7z M330.5,37.8h-0.1l-8.2,19.5h16.2
		L330.5,37.8z"/>
	<path class="st3" d="M388.7,68.7c-4.5,2.5-9.7,3.7-14.9,3.7c-12.3,0-21.2-8.4-21.2-20.9c0-12.5,9.5-20.9,21.4-20.9
		c5.2,0,10.3,1.4,14,5.2l-3.5,3.7c-2.7-2.9-6.8-4.5-10.8-4.5c-9.1,0-16,6.8-16,16.5c0,9.5,6.7,16.5,16.4,16.5c3.2,0,6.9-0.8,9.9-2.3
		V53.6h-9.1v-4.4h13.9V68.7z"/>
	<path class="st3" d="M411.4,31.7h4.4l16.9,39.7h-5.5l-4-9.8h-19.8l-4.1,9.8h-5.3L411.4,31.7z M413.5,37.8h-0.1l-8.2,19.5h16.2
		L413.5,37.8z"/>
</g>
</svg>
