<?xml version="1.0" encoding="utf-8"?>
<!-- Generator: Adobe Illustrator 22.0.1, SVG Export Plug-In . SVG Version: 6.00 Build 0)  -->
<svg version="1.1" id="Layer_1" xmlns="http://www.w3.org/2000/svg" xmlns:xlink="http://www.w3.org/1999/xlink" x="0px" y="0px"
	 viewBox="0 0 246 100" style="enable-background:new 0 0 246 100;" xml:space="preserve">
<style type="text/css">
	.st0{fill:#003A70;}
	.st1{fill:url(#SVGID_1_);}
</style>
<g>
	<path class="st0" d="M20.2,61.2c0-3-0.1-5.5-0.2-7.7h5.6l0.3,3.8h0.2c1.3-2,3.6-4.4,8-4.4c3.4,0,6.1,1.9,7.2,4.8h0.1
		c0.9-1.4,2-2.5,3.2-3.2c1.4-1,3.1-1.5,5.2-1.5c4.3,0,8.7,2.9,8.7,11.2v15.3H52V65.1c0-4.3-1.5-6.9-4.6-6.9c-2.2,0-3.9,1.6-4.6,3.5
		c-0.2,0.6-0.3,1.4-0.3,2.2v15.5h-6.4v-15c0-3.6-1.4-6.2-4.5-6.2c-2.4,0-4.1,1.9-4.7,3.7c-0.3,0.6-0.4,1.4-0.4,2.1v15.3h-6.4V61.2z"
		/>
	<path class="st0" d="M83.2,73.2c0,2.3,0.1,4.6,0.4,6.2h-5.9l-0.4-2.9h-0.2c-1.6,2-4.3,3.5-7.7,3.5c-5.2,0-8.1-3.8-8.1-7.7
		c0-6.5,5.8-9.8,15.4-9.8v-0.4c0-1.7-0.7-4.5-5.3-4.5c-2.6,0-5.2,0.8-7,1.9l-1.3-4.3c1.9-1.2,5.3-2.3,9.4-2.3
		c8.3,0,10.7,5.3,10.7,10.9V73.2z M76.9,66.8c-4.6-0.1-9,0.9-9,4.8c0,2.6,1.7,3.7,3.7,3.7c2.6,0,4.5-1.7,5.1-3.6
		c0.2-0.5,0.2-1,0.2-1.4V66.8z"/>
	<path class="st0" d="M87.8,61.2c0-3-0.1-5.5-0.2-7.7h5.7l0.3,3.9h0.2c1.1-2,3.9-4.5,8.2-4.5c4.5,0,9.2,2.9,9.2,11.1v15.4h-6.5V64.8
		c0-3.7-1.4-6.5-4.9-6.5c-2.6,0-4.4,1.9-5.1,3.8c-0.2,0.6-0.3,1.4-0.3,2.1v15.2h-6.6V61.2z"/>
	<path class="st0" d="M139.6,43.1v29c0,2.7,0.1,5.5,0.2,7.3h-5.8l-0.3-4.1h-0.1c-1.5,2.9-4.7,4.7-8.5,4.7c-6.2,0-11.1-5.3-11.1-13.2
		c-0.1-8.7,5.4-13.8,11.6-13.8c3.6,0,6.1,1.5,7.3,3.4h0.1V43.1H139.6z M133,64.3c0-0.5-0.1-1.2-0.2-1.7c-0.6-2.5-2.7-4.6-5.6-4.6
		c-4.2,0-6.5,3.7-6.5,8.6c0,4.7,2.3,8.2,6.5,8.2c2.7,0,5-1.8,5.6-4.6c0.2-0.6,0.2-1.2,0.2-1.9V64.3z"/>
	<path class="st0" d="M144.2,79.4V53.5h6.6v25.9H144.2z"/>
	<path class="st0" d="M155.4,61.9c0-3.5-0.1-6-0.2-8.3h5.7l0.2,4.9h0.2c1.3-3.7,4.3-4.9,7.1-4.9c0.6,0,1-0.1,1.5,0v5.7
		c-0.5-0.1-1.1-0.2-1.9-0.2c-3.1,0-5.3,2-5.9,4.9c-0.1,0.6-0.2,1.3-0.2,2v13.4h-6.5V61.9z"/>
	<path class="st0" d="M173,79.4V53.5h6.6v25.9H173z"/>
	
		<linearGradient id="SVGID_1_" gradientUnits="userSpaceOnUse" x1="105.4902" y1="31.0715" x2="239.1693" y2="-34.1213" gradientTransform="matrix(0.9998 2.110000e-02 -2.110000e-02 0.9998 5.3819 25.9513)">
		<stop  offset="0" style="stop-color:#FCB813"/>
		<stop  offset="0.2247" style="stop-color:#FFCA05"/>
		<stop  offset="0.3933" style="stop-color:#F9A51A"/>
		<stop  offset="0.5281" style="stop-color:#FFCA05"/>
		<stop  offset="0.6461" style="stop-color:#F9A51A"/>
		<stop  offset="0.6535" style="stop-color:#FAAA17"/>
		<stop  offset="0.6872" style="stop-color:#FDBC0D"/>
		<stop  offset="0.723" style="stop-color:#FEC707"/>
		<stop  offset="0.764" style="stop-color:#FFCA05"/>
		<stop  offset="0.7974" style="stop-color:#FFCA05"/>
		<stop  offset="1" style="stop-color:#FFCA05"/>
	</linearGradient>
	<path class="st1" d="M220.6,26.1c-3.3-3.7-6.7-2-9.5-0.7c-1.2,0.6-9.5,5.3-9.5,5.3c-4.6,1.9-8.2-0.2-9.6-1.9
		c-0.1-0.2-0.3-0.4-0.4-0.5l-0.3-0.6c-0.5-0.8-1.1-1.8-1.8-2.7c-0.4-0.5-0.8-1-1.3-1.5c-3.1-3.2-8.2-5.4-16.5-1.4
		c-4,2.3-16.9,9.7-16.9,9.7c-4.9,2-8.6-0.4-9.8-2.2c-0.1-0.1-0.1-0.1-0.1-0.2l-0.2-0.3l-0.8-1.3c-0.4-0.6-0.7-1.1-1.2-1.7
		c-0.4-0.5-0.8-1-1.3-1.5c-3.1-3.1-8.1-5.4-16.4-1.4c-5,2.9-16.7,9.6-16.7,9.6c0,0,0,0,0,0c-4.8,2.7-8.6,4.9-8.6,4.9l4.4,5.4
		c1.9,1.8,5.4,4.7,10.8,2.2c0,0,14.9-8.7,15-8.7c12.8-7,19.1-0.3,21.9,4.2c0.1,0.1,0.2,0.3,0.3,0.4l0,0c0,0.1,0.1,0.1,0.1,0.2
		l0.3,0.5c1.4,2.1,3.5,3.4,6.1,3.3c1.4,0,2.4-0.5,3.8-1.3l14.5-8.4c0,0,0,0,0,0c12.9-7.1,19.4,0,22.1,4.5c0.2,0.4,0.5,0.8,0.7,1.1
		c1.4,1.8,3.2,3,5.6,3c1.6,0,3.3-1,3.6-1.1L226,33C226,33,224.2,30.3,220.6,26.1z"/>
</g>
</svg>
