<?xml version="1.0" encoding="utf-8"?>
<!-- Generator: Adobe Illustrator 22.0.1, SVG Export Plug-In . SVG Version: 6.00 Build 0)  -->
<svg version="1.1" id="Layer_1" xmlns="http://www.w3.org/2000/svg" xmlns:xlink="http://www.w3.org/1999/xlink" x="0px" y="0px"
	 viewBox="0 0 256 100" style="enable-background:new 0 0 256 100;" xml:space="preserve">
<style type="text/css">
	.st0{fill:#F05A25;}
	.st1{fill:#015F6A;}
</style>
<g>
	<path class="st0" d="M44.2,58.3l6.3-4.9c-1-1.3-2-2.6-3-3.9C40.2,39.4,35.9,29.1,39,20l-18.5,0l0,9.8L44.2,58.3L44.2,58.3z"/>
	<path class="st0" d="M54.1,43.6c0.4-3.2,1.4-9.3,7.5-13.8c5.3-3.9,11.9-4.6,17.8-2.2V20H46.7C44.6,29.2,50.2,39.4,54.1,43.6
		L54.1,43.6z"/>
	<path class="st0" d="M62,34.3L62,34.3c-6.2,4.8-4.7,12.4,1.1,19.2c4.4,5.2,10.3,8.9,16.4,6.1V37.3C74,32,67.5,30,62,34.3L62,34.3z"
		/>
	<polygon class="st0" points="20.5,41.5 20.5,76.8 20.5,76.8 38.3,62.9 20.5,41.5 	"/>
	<path class="st0" d="M52.9,56.3c-1.7,1.4-3.9,3.1-6.3,5l2.3,2.8c3.4,4,8.3,11,14.3,9.1l0.2,0.3l-4.3,3.4h20.3V63.4
		C69,68.8,60,63.8,52.9,56.3L52.9,56.3z"/>
	<path class="st0" d="M43.1,68.7l-2.4-2.9c-4.9,3.8-10.1,7.8-14.3,11l22.7,0C47.6,73.8,45,70.9,43.1,68.7L43.1,68.7z"/>
	<path class="st1" d="M128.5,43.7c5.4-0.9,9-5.4,9-11.2c0-7.7-6.9-12.5-18.7-12.5l-23.4,0l0,0.3c4.8,2.5,4.7,6.6,4.7,10.5V66
		c0,4,0.1,8.1-4.7,10.6v0.3h11.3c11,0,19.4,0.2,25.7-2.7c6.7-3,10.8-8.5,10.8-15.1C143.1,50.5,136.6,45.4,128.5,43.7L128.5,43.7z
		 M109.2,25.2l7.4,0.1c5.5,0,11.1,2.6,11.1,8.5c0,7.1-5,9-12,9l-6.5,0l0,0L109.2,25.2L109.2,25.2z M116.4,70.9l-7.1,0l0-22.4v-0.3
		l7.7,0c8.9,0,16.3,3.2,16.3,11.6C133.2,68,125.5,70.9,116.4,70.9L116.4,70.9z"/>
	<path class="st1" d="M161.1,66c0,4.8-0.1,8.3,4.7,11l0,0.3l-15.9,0l0-0.3c4.7-2.7,4.7-6.1,4.7-11l0-34.5c0-4.8,0.1-8.6-4.7-11.2V20
		l13.2,0l0,0.1c0.4,1,0.9,1.6,1.3,2.2c0.4,0.5,1.3,1.7,1.3,1.7l30.2,39.2l0-32c0-4.8,0.1-8.3-4.7-10.9V20l15.8,0v0.3
		c-4.7,2.6-4.7,6-4.7,10.9l0,48.9c-2.9-1.1-10.9-7.5-16.6-14.9c-10.3-13.3-24.6-31.7-24.6-31.7V66L161.1,66z"/>
	<path class="st1" d="M221.6,30.3c0-4-0.1-7.5-4.6-10V20h18.5l0,0.3c-4.6,2.5-4.6,6.1-4.6,10l0,36.3c0,3.9-0.1,7.8,4.6,10.3v0.3
		l-18.5,0l0-0.3c4.8-2.6,4.6-6.4,4.6-10.3L221.6,30.3L221.6,30.3z"/>
</g>
</svg>
