<?xml version="1.0" encoding="utf-8"?>
<!-- Generator: Adobe Illustrator 22.0.1, SVG Export Plug-In . SVG Version: 6.00 Build 0)  -->
<svg version="1.1" id="Layer_1" xmlns="http://www.w3.org/2000/svg" xmlns:xlink="http://www.w3.org/1999/xlink" x="0px" y="0px"
	 viewBox="0 0 224 100" style="enable-background:new 0 0 224 100;" xml:space="preserve">
<style type="text/css">
	.st0{fill:#003399;}
	.st1{fill-rule:evenodd;clip-rule:evenodd;fill:#003399;}
</style>
<g>
	<path class="st0" d="M50.7,20c8.4,0,17.1,2,26,6l0.4,0.2l0.2,0.4v0l0,0c0.7,2.2,1.4,4.4,1.9,6.6s0.9,4.4,1.2,6.6
		c0.4,2.9,0.7,5.8,0.7,8.7v3.4c-0.2,7.3-1.4,14.6-3.8,21.9l-0.2,0.4l-0.4,0.2C68.3,78.2,59.8,80,51.3,80c-0.2,0-0.4,0-0.7,0v-2.1
		c0.2,0,0.5,0,0.7,0c8,0,16.1-1.7,24.1-5.2C79,61.9,79.9,51,78.4,40.1c-0.3-2.1-0.7-4.3-1.2-6.4c-0.5-2-1-4-1.7-6
		c-8.5-3.7-16.8-5.6-24.8-5.6V20z M25.9,26c7.9-4,16.1-6,24.6-6c0.1,0,0.1,0,0.2,0v2.1c-0.1,0-0.1,0-0.2,0c-8.1,0-15.8,1.9-23.3,5.6
		c-3,7.2-4.8,14.6-4.9,22.1c-0.1,7.5,1.4,15.1,4.8,22.9c7.8,3.4,15.7,5.2,23.5,5.3V80c-8.2-0.1-16.5-1.9-24.7-5.6l-0.5-0.5
		c-3.5-7.8-5.1-15.6-5.2-23.1v-0.5c0-0.2,0-0.3,0-0.4c0.1-7.9,1.9-15.6,5.2-23.2L25.9,26z"/>
	<path class="st1" d="M51.2,66.8C50.8,61,51.1,55,49.3,49.5c-1.6-5.1-7.7-8.1-7.8-13.7c-0.1-4.4,3.2-9.5,9.5-9.5c5.9,0,9.5,4.3,10,9
		c0.5,5.5-6.2,9.2-7.9,14.5C51.3,55.2,51.8,61.1,51.2,66.8z"/>
	<path class="st1" d="M53.5,65.4c-0.2-5-0.2-9.8,1.1-14.1c1.5-4.8,4.7-8.9,9.6-10.2c3.4-0.9,8.3,3,7.5,7c-0.7,3.2-3.9,7-9.1,7.5
		c-2.4,0.2-3.4,2.1-4.9,3.3c6.8-0.7,11.1-3.3,14.2-6.1c0.5,2.4,0.8,6.3-1.1,7.7c-3.6,2.6-7,0.5-11.2,1.7
		C57.3,62.8,55.8,64.3,53.5,65.4z"/>
	<path class="st1" d="M48.9,65.4c0.3-5,0.2-9.8-1.1-14.1c-1.5-4.8-4.7-8.9-9.6-10.2c-3.4-0.9-8.3,3-7.5,7c0.7,3.2,3.9,7,9.1,7.5
		c2.4,0.2,3.4,2.1,4.9,3.3c-6.8-0.7-11.1-3.3-14.2-6.1c-0.5,2.4-0.8,6.3,1.1,7.7c3.6,2.6,7,0.5,11.2,1.7
		C45.2,62.8,46.7,64.3,48.9,65.4z"/>
	<path class="st1" d="M65,72.8V72l0.6-0.2L65,70.9v-1.5l2.7,3.8l-1,0.2l-0.7-0.9L65,72.8z M65,69.4v1.5l-0.4-0.6l-0.2,1.8L65,72v0.8
		L64.3,73l-0.1,1.1l-1,0.2l0.6-4.9l1-0.2L65,69.4L65,69.4z M56,75.4v-0.8h0.2c0.3,0,0.5-0.1,0.6-0.1c0.1,0,0.2-0.1,0.3-0.2
		c0.1-0.1,0.1-0.2,0.1-0.4c0-0.2-0.1-0.3-0.2-0.4c-0.1-0.1-0.2-0.2-0.3-0.2c-0.1,0-0.4,0-0.8,0v-0.8c0.2,0,0.4,0,0.5,0
		c0.2,0,0.3-0.1,0.4-0.2c0.1-0.1,0.1-0.2,0.1-0.4c0-0.2-0.1-0.3-0.2-0.3c-0.1-0.1-0.2-0.2-0.4-0.2c-0.1,0-0.2,0-0.4,0v-0.8
		c0.3,0,0.6,0,0.7,0c0.2,0,0.4,0.1,0.5,0.2c0.2,0.1,0.3,0.2,0.4,0.3c0.1,0.2,0.2,0.3,0.2,0.5c0,0.2,0,0.4-0.1,0.6
		c-0.1,0.2-0.2,0.3-0.5,0.5c0.3,0.1,0.5,0.2,0.7,0.4c0.2,0.2,0.3,0.4,0.3,0.7c0,0.2,0,0.4-0.1,0.6c-0.1,0.2-0.2,0.4-0.4,0.5
		c-0.2,0.1-0.4,0.2-0.6,0.3C57,75.4,56.6,75.4,56,75.4L56,75.4L56,75.4z M61.7,72.9l0.9,0.1c-0.1,0.5-0.2,0.9-0.5,1.2
		c-0.3,0.3-0.7,0.5-1.1,0.6c-0.6,0.1-1.1,0-1.6-0.4c-0.5-0.4-0.8-0.9-0.9-1.6c-0.1-0.8,0-1.4,0.3-1.9c0.3-0.5,0.8-0.8,1.4-0.9
		c0.6-0.1,1,0,1.4,0.3c0.2,0.2,0.5,0.4,0.6,0.8l-0.9,0.4c-0.1-0.2-0.2-0.4-0.4-0.5c-0.2-0.1-0.4-0.2-0.7-0.1
		c-0.3,0.1-0.6,0.2-0.8,0.5c-0.2,0.3-0.2,0.7-0.1,1.2c0.1,0.6,0.3,1,0.5,1.2c0.2,0.2,0.5,0.3,0.9,0.2c0.2-0.1,0.4-0.2,0.6-0.4
		C61.6,73.5,61.7,73.2,61.7,72.9z M56,70.8v0.8c-0.1,0-0.2,0-0.4,0l-0.5,0.1l0.1,1.1l0.6-0.1c0.1,0,0.2,0,0.2,0v0.8c0,0,0,0,0,0
		l-0.7,0.1l0.1,1.2l0.7-0.1v0.8l-1.5,0.2L54.1,71L56,70.8C56,70.8,56,70.8,56,70.8L56,70.8z M50.2,73.8v-0.8c0.2,0,0.3,0,0.4-0.1
		c0.1,0,0.2-0.1,0.3-0.2c0.1-0.1,0.1-0.2,0.1-0.4c0-0.2,0-0.3-0.1-0.4c-0.1-0.1-0.2-0.2-0.4-0.2c-0.1,0-0.2,0-0.3,0V71
		c0.5,0,0.7,0,0.9,0.1c0.3,0.1,0.5,0.2,0.7,0.5c0.2,0.2,0.3,0.5,0.2,0.9c0,0.3-0.1,0.5-0.2,0.7c-0.1,0.2-0.2,0.3-0.4,0.5
		c-0.2,0.1-0.3,0.2-0.5,0.2C50.7,73.8,50.5,73.8,50.2,73.8z M50.2,71v0.8c-0.1,0-0.2,0-0.4,0l-0.5,0v1.3h0.5c0.1,0,0.2,0,0.3,0v0.8
		c-0.1,0-0.2,0-0.2,0h-0.6l0,1.8l-0.9,0l0.1-4.6l1.5,0C50,71,50.1,71,50.2,71L50.2,71z M41.5,73.4V72C41.7,72,41.9,72,42,72
		c0.1,0,0.2-0.1,0.3-0.2c0.1-0.1,0.1-0.2,0.2-0.3c0-0.2,0-0.3-0.1-0.4c-0.1-0.1-0.2-0.2-0.3-0.2c-0.1,0-0.3-0.1-0.6-0.1V70l0.4,0.1
		c0.5,0.1,0.8,0.2,1,0.3c0.2,0.1,0.4,0.3,0.5,0.5c0.1,0.2,0.1,0.5,0.1,0.8c-0.1,0.3-0.2,0.6-0.5,0.8c-0.2,0.2-0.5,0.3-1,0.3
		c0.2,0.2,0.3,0.3,0.4,0.5c0.1,0.2,0.2,0.5,0.4,0.8l0.4,1l-1.1-0.2l-0.5-1.1C41.6,73.6,41.5,73.5,41.5,73.4L41.5,73.4z M44.1,70.5
		l0.9,0.1l-0.2,2.5c0,0.4,0,0.7,0,0.8c0,0.2,0.1,0.4,0.2,0.5c0.2,0.2,0.3,0.2,0.6,0.2s0.5,0,0.6-0.1c0.2-0.1,0.2-0.2,0.3-0.4
		c0-0.2,0.1-0.4,0.1-0.8l0.2-2.6l0.9,0.1l-0.2,2.4c0,0.6-0.1,1-0.2,1.2c-0.1,0.2-0.2,0.4-0.3,0.5c-0.2,0.2-0.4,0.3-0.6,0.3
		c-0.2,0.1-0.5,0.1-0.9,0.1c-0.5,0-0.8-0.1-1-0.2c-0.2-0.1-0.4-0.3-0.5-0.4c-0.1-0.2-0.2-0.4-0.2-0.5c0-0.3,0-0.7,0-1.2L44.1,70.5z
		 M36.8,71.9l0.2-0.8l2,0.5l-0.5,1.8c-0.2,0.2-0.5,0.2-1,0.3c-0.4,0-0.8,0-1.1-0.1c-0.5-0.1-0.9-0.3-1.1-0.6
		c-0.3-0.3-0.5-0.7-0.6-1.1c-0.1-0.4-0.1-0.8,0.1-1.3c0.1-0.5,0.3-0.8,0.6-1.2c0.3-0.3,0.6-0.5,1.1-0.6c0.3-0.1,0.7-0.1,1.1,0.1
		c0.5,0.2,1,0.4,1.2,0.7c0.2,0.3,0.4,0.7,0.3,1.1l-0.9-0.1c0-0.2-0.1-0.5-0.2-0.6c-0.2-0.2-0.3-0.3-0.6-0.4c-0.4-0.1-0.7-0.1-1,0.1
		c-0.3,0.2-0.5,0.5-0.7,1c-0.2,0.5-0.1,1,0,1.3c0.2,0.3,0.5,0.5,0.8,0.6c0.2,0.1,0.4,0.1,0.6,0.1c0.2,0,0.4-0.1,0.6-0.2l0.2-0.6
		L36.8,71.9L36.8,71.9z M41.5,70l-1.6-0.3l-0.8,4.6l0.9,0.2l0.3-1.9l0.2,0c0.2,0,0.4,0.1,0.5,0.1c0.1,0.1,0.2,0.2,0.2,0.2
		c0,0.1,0.1,0.2,0.2,0.5V72c-0.1,0-0.2,0-0.3,0l-0.7-0.1l0.2-1.1l0.7,0.1c0,0,0.1,0,0.1,0V70z"/>
	<path class="st1" d="M185.3,64.4v-8.5h3.7v-15l-3.7,7.5V29.7H200l3.7,43h-14.7v-8.4H185.3z M185.3,29.7v18.7l-3.7,7.5h3.7v8.5h-7.1
		l-2.9,7.9h-9.1v-9.8l10.2-21.9h-2.1l5.8-10.8H185.3L185.3,29.7z M166.2,44l4.6-10.8l-4.6-2.5V44z M130,39.9c0.2-1.2,0.2-2.4,0-3.6
		V39.9L130,39.9z M166.2,30.7V44l-0.6,1.4c-9-6.4-22.3-0.6-23,6.2c-0.8,7.1,4.6,12.8,18.4,8.5l-4.7,12.7c-18.2,2-25.3-5.2-26.3-13.6
		v-4.8c0.3-2.2,0.8-4.3,1.6-6.3c9-22.3,23.5-17.3,29-17.7l0.8-2.5L166.2,30.7L166.2,30.7z M166.2,62.4l-4.6,9.8h4.6V62.4z M113.6,72
		c9.7-1.9,19.3-13.6,9.7-23c3.7-2,6.1-5.6,6.6-9.1v-3.6c-0.7-3.7-3.5-6.7-8.9-6.8l-7.4-0.2v8.3h3.1c3.3,0,2.9,8.5-1.2,8.5h-1.8v6.5
		c4.4,0.8,2.9,7,0,8.9V72L113.6,72z M130,54.5v4.8C129.8,57.7,129.8,56.1,130,54.5z M100.8,29.1l-6,11.6l2.7-0.2l-7.2,31.8h20.7
		c0.9,0,1.8-0.1,2.7-0.3V61.5c-0.5,0.4-1.1,0.6-1.7,0.6h-7.5l2.5-9.6h5.6c0.4,0,0.8,0,1.1,0.1v-6.5h-5.2l2.1-8.5h3.1v-8.3
		L100.8,29.1z"/>
</g>
</svg>
