<?xml version="1.0" encoding="utf-8"?>
<!-- Generator: Adobe Illustrator 22.0.1, SVG Export Plug-In . SVG Version: 6.00 Build 0)  -->
<svg version="1.1" id="Layer_1" xmlns="http://www.w3.org/2000/svg" xmlns:xlink="http://www.w3.org/1999/xlink" x="0px" y="0px"
	 viewBox="0 0 295 100" style="enable-background:new 0 0 295 100;" xml:space="preserve">
<style type="text/css">
	.st0{fill:#1F489D;}
</style>
<g>
	<path class="st0" d="M98.9,59.3h-1.9v-6.9h3.5c2.4,0,4.8,0.8,4.8,3.2v1.1C105,58.8,101.3,59.3,98.9,59.3z M96.8,40.7h2.1
		c2.4,0,5.3,0.3,5.3,2.7v1.1c0,1.9-2.9,2.7-5,2.7h-2.4V40.7z M88.8,64.9h11.4c6.4,0,12.7-1.6,12.7-7.7v-1.9c0-2.9-2.9-5.6-5.8-5.6
		v-0.3c2.4-0.3,5-2.9,5-5.6v-2.1c0-4.5-4.5-6.9-9-6.9H88.8L88.8,64.9L88.8,64.9z"/>
	<path class="st0" d="M176.2,64.9h8V51.3c1.6,1.1,8.8,13.5,9.8,13.5h9.8c-0.5-1.9-11.7-15.4-11.7-15.9c0-0.5,9.8-12.2,10.9-14.1
		h-9.6l-9,11.9V34.9h-8v30H176.2z"/>
	<rect x="267" y="34.9" class="st0" width="8" height="30"/>
	<path class="st0" d="M128.4,41.2L128.4,41.2l3.7,11.7h-7.4L128.4,41.2z M112.2,64.9h7.7c0.8,0,2.7-5.3,2.7-6.4h10.9
		c1.3,0,1.9,6.4,3.2,6.4h8.2l-11.4-30h-9.6c-0.8,0-2.7,6.1-3.2,7.2c-1.1,2.4-1.9,5-2.9,7.7c-1.1,2.4-1.9,4.8-2.9,7.4
		C114.3,59.6,112.7,62.7,112.2,64.9z"/>
	<polygon class="st0" points="145.9,64.9 153.3,64.9 153.3,44.7 163.4,64.9 173.3,64.9 173.3,34.9 166.1,34.9 166.1,54.8 
		156.3,34.9 145.9,34.9 	"/>
	<path class="st0" d="M247.6,40.7h2.7c2.1,0,5.3,0.8,5.3,2.7v1.1c0,2.7-3.2,3.2-6.1,3.2h-1.9V40.7z M239.6,64.9h8V52.9h1.9
		c2.9,0,4.2,2.4,4.8,4.5c0.8,2.1,1.9,5,2.4,7.2h8.2c0-1.1-2.4-6.9-2.7-8.2c-0.5-1.3-1.1-2.7-1.6-4c-0.8-2.1-1.9-1.9-2.7-2.9
		c2.7-0.3,5.6-3.2,5.6-6.1v-2.1c0-5-5-6.9-10.4-6.9h-13.5V64.9z"/>
	<path class="st0" d="M221.3,52.1h1.9c2.9,0,6.4,0.5,6.4,3.2c0,3.5-2.9,4-6.4,4h-1.9V52.1z M221.3,40.7h2.9c2.7,0,4.8,0.5,4.8,3.2
		c0,2.1-2.7,3.2-5,3.2h-2.7V40.7z M213.3,64.9h12.2c6.4,0,11.9-2.1,11.9-8.2v-0.3c0-3.7-2.4-6.6-5.6-6.9v-0.3
		c2.7-0.5,4.8-3.2,4.8-6.4c0-5.3-3.7-8-9-8h-14.6v30H213.3z"/>
	<path class="st0" d="M26.2,29.8c0-2.1,2.7-4,5-4h5.3c3.7,0,7.4,3.5,7.4,7.2v0.8c0,6.1-9.8,11.7-12.7,16.2c0.8,1.3,5.3,5.8,6.6,7.2
		c1.9,1.9,5.6,5,5.6,8.2V67c0,2.9-3.7,6.9-6.4,6.9h-6.4c-1.9,0-4.2-2.1-4.2-4V29.8H26.2z M51.1,33.5c0-1.3-0.5-3.5-0.8-4.5
		c-0.5-1.1-1.9-2.9-1.9-3.5h5.3c3.2,0,7.2,2.9,7.2,6.1v1.9c0,4.2-14.1,14.3-14.1,16.2c0,0,10.6,10.9,11.7,11.9c2.1,2.1,4,4,5.8,5.8
		c1.1,1.1,5,5,5.6,6.1H48.5c1.3-1.9,2.7-3.7,2.7-6.9v-1.1c0-4-2.9-6.9-4.8-9c-1.3-1.3-5.6-6.4-6.6-7.2
		C42.9,44.7,51.1,41.2,51.1,33.5L51.1,33.5z M67.3,32.2c0-3.2-1.9-4.5-3.2-6.4c5.3,0,8.2-0.5,9.6,3.7c0.8,2.4,0.3,9.6,0.3,13
		c0,8.8,0,17.5,0,26.5L55.1,50c2.9-4.2,11.9-9,11.9-15.4v-2.4H67.3z M20.1,31.2v38.5c0,5.3,5,10.4,10.6,10.4h39.6
		c4.8,0,9.8-5.3,9.8-10.6V29.8c0-5-5-9.8-10.6-9.8H30.7C24.6,20,20.1,25,20.1,31.2z"/>
</g>
</svg>
